{"glyphs":{"0":{"ha":772,"x_min":40,"x_max":718,"o":"m 379 1006 q 649 860 558 1006 q 718 481 718 747 q 635 94 718 207 q 379 -32 542 -32 q 110 114 201 -32 q 40 486 40 228 q 124 879 40 768 q 379 1006 215 1006 m 379 849 q 260 756 294 849 q 235 488 235 683 q 265 211 235 276 q 379 135 301 135 q 499 225 464 135 q 524 485 524 294 q 493 769 524 704 q 379 849 457 849 z "},"1":{"ha":772,"x_min":94,"x_max":525,"o":"m 331 679 l 94 679 l 94 808 q 396 985 350 808 l 525 985 l 525 0 l 331 0 l 331 679 z "},"2":{"ha":772,"x_min":42,"x_max":715,"o":"m 711 174 l 711 0 l 42 0 q 97 217 49 136 q 269 383 144 299 q 476 553 432 499 q 521 689 521 607 q 484 805 521 763 q 382 847 447 847 q 278 801 315 847 q 242 674 242 756 l 242 642 l 56 642 q 54 676 54 657 q 140 919 54 832 q 378 1006 225 1006 q 624 921 533 1006 q 715 693 715 836 q 669 524 715 593 q 494 360 622 454 q 349 247 385 281 q 294 174 313 213 l 711 174 z "},"3":{"ha":772,"x_min":40,"x_max":717,"o":"m 301 440 l 301 571 l 318 571 q 490 719 490 571 q 458 815 490 781 q 368 849 426 849 q 249 779 278 849 q 233 675 235 744 l 53 675 l 53 692 q 110 894 53 824 q 372 1006 196 1006 q 600 933 515 1006 q 685 738 685 860 q 654 620 685 669 q 556 528 624 571 q 678 428 639 488 q 717 283 717 369 q 623 53 717 139 q 372 -32 529 -32 q 131 55 221 -32 q 40 289 42 142 l 229 289 q 376 135 238 135 q 481 176 440 135 q 522 283 522 218 q 493 377 522 338 q 415 431 464 417 q 301 440 376 440 z "},"4":{"ha":772,"x_min":33,"x_max":725,"o":"m 725 379 l 725 218 l 622 218 l 622 0 l 428 0 l 428 218 l 33 218 l 33 382 l 393 985 l 622 985 l 622 379 l 725 379 m 428 379 l 428 800 l 171 379 l 428 379 z "},"5":{"ha":772,"x_min":38,"x_max":718,"o":"m 679 985 l 679 811 l 272 811 l 240 606 q 411 665 319 665 q 633 571 547 665 q 718 325 718 476 q 619 67 718 165 q 363 -32 521 -32 q 130 48 219 -32 q 38 257 40 128 l 229 257 q 365 135 236 135 q 481 185 439 135 q 524 321 524 235 q 481 460 524 410 q 365 511 439 511 q 240 436 272 511 l 65 436 l 153 985 l 679 985 z "},"6":{"ha":772,"x_min":44,"x_max":721,"o":"m 704 761 l 524 761 q 477 828 504 808 q 403 849 450 849 q 305 811 344 849 q 251 707 265 774 q 239 561 243 665 q 329 628 285 608 q 435 649 374 649 q 641 560 561 649 q 721 329 721 471 q 630 68 721 168 q 392 -32 539 -32 q 231 7 304 -32 q 115 114 158 46 q 44 468 44 226 q 126 853 44 718 q 408 1006 219 1006 q 657 893 575 1006 q 704 761 692 843 m 496 447 q 476 472 496 447 q 388 496 456 496 q 278 445 319 496 q 236 313 236 394 q 278 185 236 235 q 386 135 319 135 q 494 186 451 135 q 536 317 536 238 q 496 447 536 399 z "},"7":{"ha":772,"x_min":40,"x_max":733,"o":"m 733 985 l 733 832 q 476 427 558 621 q 381 0 394 233 l 185 0 q 314 482 221 286 q 415 654 343 546 q 531 811 486 763 l 40 811 l 40 985 l 733 985 z "},"8":{"ha":772,"x_min":31,"x_max":729,"o":"m 568 536 q 691 431 653 490 q 729 283 729 371 q 632 56 729 144 q 381 -32 535 -32 q 128 56 225 -32 q 31 283 31 143 q 69 431 31 371 q 192 536 107 490 q 94 619 125 572 q 64 738 64 667 q 153 930 64 854 q 381 1006 243 1006 q 606 930 517 1006 q 696 739 696 854 q 632 578 696 638 q 568 536 613 560 m 488 813 q 467 831 488 813 q 382 849 447 849 q 276 813 317 849 q 235 721 235 778 q 276 627 235 664 q 382 590 317 590 q 487 626 446 590 q 528 719 528 663 q 488 813 528 776 m 379 458 q 267 414 310 458 q 225 294 225 369 q 267 178 225 221 q 379 135 308 135 q 492 178 450 135 q 535 292 535 221 q 493 413 535 368 q 379 458 451 458 z "},"9":{"ha":772,"x_min":39,"x_max":717,"o":"m 53 229 l 240 229 q 276 160 243 186 q 360 133 308 133 q 522 414 522 133 q 461 353 479 365 q 333 317 411 317 q 121 411 203 317 q 39 658 39 506 q 131 909 39 813 q 371 1006 224 1006 q 649 844 553 1006 q 717 514 717 732 q 635 119 717 258 q 354 -33 546 -33 q 141 41 226 -33 q 53 229 56 115 m 365 847 q 262 797 300 847 q 224 661 224 746 q 263 527 224 576 q 368 478 301 478 q 476 528 435 478 q 518 658 518 578 q 477 796 518 744 q 365 847 436 847 z "}," ":{"ha":386,"x_min":0,"x_max":0,"o":""},"!":{"ha":463,"x_min":156,"x_max":364,"o":"m 364 1008 l 364 717 l 306 288 l 213 288 l 156 717 l 156 1008 l 364 1008 m 364 203 l 364 0 l 156 0 l 156 203 l 364 203 z "},"\"":{"ha":658,"x_min":69,"x_max":589,"o":"m 261 1013 l 261 832 l 203 653 l 125 653 l 69 832 l 69 1013 l 261 1013 m 589 1013 l 589 832 l 531 653 l 453 653 l 397 832 l 397 1013 l 589 1013 z "},"#":{"ha":772,"x_min":4,"x_max":768,"o":"m 203 -44 l 56 -44 l 111 239 l 4 239 l 4 376 l 139 376 l 181 589 l 43 589 l 43 726 l 208 726 l 256 968 l 401 968 l 354 726 l 497 726 l 544 968 l 690 968 l 643 726 l 768 726 l 768 589 l 617 589 l 574 376 l 713 376 l 713 239 l 547 239 l 492 -44 l 346 -44 l 401 239 l 258 239 l 203 -44 m 285 376 l 428 376 l 469 589 l 326 589 l 285 376 z "},"$":{"ha":772,"x_min":31,"x_max":732,"o":"m 718 692 l 540 692 q 514 797 543 756 q 432 844 485 838 l 432 565 q 663 453 593 521 q 732 271 732 385 q 701 128 732 193 q 613 28 669 64 q 432 -29 542 -17 l 432 -175 l 338 -175 l 338 -29 q 150 35 224 -18 q 31 275 31 119 l 31 288 l 213 288 q 338 119 219 140 l 338 415 q 54 711 54 481 q 128 900 54 828 q 338 985 203 972 l 338 1060 l 432 1060 l 432 985 q 640 900 564 978 q 718 692 717 822 m 338 593 l 338 844 q 225 717 225 822 q 338 593 225 629 m 432 392 l 432 119 q 549 254 549 149 q 432 392 549 356 z "},"%":{"ha":1235,"x_min":31,"x_max":1199,"o":"m 286 974 q 467 899 393 974 q 542 718 542 825 q 466 542 542 617 q 286 468 390 468 q 106 542 181 468 q 31 721 31 617 q 106 899 31 825 q 286 974 181 974 m 369 802 q 352 819 369 802 q 286 836 335 836 q 203 802 238 836 q 168 721 168 768 q 203 638 168 672 q 286 604 238 604 q 369 638 335 604 q 404 719 404 672 q 369 802 404 768 m 842 985 l 947 985 l 399 -28 l 292 -28 l 842 985 m 943 489 q 1124 415 1050 489 q 1199 232 1199 340 q 1123 56 1199 131 q 943 -18 1047 -18 q 763 56 838 -18 q 688 236 688 131 q 763 415 688 340 q 943 489 838 489 m 1026 317 q 1009 334 1026 317 q 943 351 992 351 q 860 317 894 351 q 825 235 825 283 q 860 152 825 186 q 943 118 894 118 q 1026 152 992 118 q 1061 233 1061 186 q 1026 317 1061 282 z "},"&":{"ha":1003,"x_min":76,"x_max":964,"o":"m 731 518 l 888 518 l 888 503 l 888 496 q 860 338 885 415 q 793 214 835 261 l 964 0 l 740 0 l 676 78 q 535 -8 593 15 q 406 -32 476 -32 q 167 51 257 -32 q 76 268 76 133 q 124 430 76 367 q 294 557 172 493 q 278 578 282 574 l 239 625 q 181 772 181 694 q 256 938 181 871 q 443 1004 332 1004 q 622 945 554 1004 q 690 789 690 886 q 656 661 690 714 q 528 544 621 608 l 689 344 q 731 504 731 424 l 731 518 m 386 443 l 321 403 q 261 292 261 363 q 306 179 261 229 q 408 129 351 129 q 575 206 475 129 l 386 443 m 440 653 q 524 772 524 699 q 503 832 524 811 q 444 853 482 853 q 387 834 410 853 q 364 786 364 815 q 376 740 364 760 q 440 653 388 719 z "},"’":{"ha":386,"x_min":92,"x_max":279,"o":"m 92 1013 l 279 1013 l 279 861 q 217 699 279 751 q 92 651 165 656 l 92 715 q 203 839 207 736 l 92 839 l 92 1013 z "},"(":{"ha":463,"x_min":56,"x_max":421,"o":"m 282 1013 l 421 1013 q 269 660 311 800 q 226 368 226 521 q 268 76 226 215 q 421 -278 310 -62 l 282 -278 q 109 55 163 -97 q 56 368 56 207 q 109 681 56 528 q 282 1013 163 833 z "},")":{"ha":463,"x_min":31,"x_max":396,"o":"m 169 -278 l 31 -278 q 183 74 140 -65 q 225 367 225 214 q 183 658 225 519 q 31 1013 142 797 l 169 1013 q 342 680 289 832 q 396 367 396 528 q 342 54 396 207 q 169 -278 289 -99 z "},"*":{"ha":540,"x_min":32,"x_max":496,"o":"m 183 756 l 32 806 l 63 901 l 214 851 l 214 1013 l 314 1013 l 314 851 l 465 901 l 496 804 l 344 756 l 438 625 l 357 565 l 264 696 l 171 565 l 90 625 l 183 756 z "},"+":{"ha":811,"x_min":69,"x_max":740,"o":"m 740 404 l 740 239 l 488 239 l 488 -14 l 322 -14 l 322 239 l 69 239 l 69 404 l 322 404 l 322 657 l 488 657 l 488 404 l 740 404 z "},",":{"ha":386,"x_min":89,"x_max":297,"o":"m 89 203 l 297 203 l 297 13 q 281 -113 297 -68 q 222 -190 264 -158 q 89 -242 168 -232 l 89 -164 q 208 -4 208 -140 l 208 0 l 89 0 l 89 203 z "},"-":{"ha":463,"x_min":36,"x_max":414,"o":"m 414 475 l 414 288 l 36 288 l 36 475 l 414 475 z "},".":{"ha":386,"x_min":89,"x_max":297,"o":"m 297 203 l 297 0 l 89 0 l 89 203 l 297 203 z "},"/":{"ha":386,"x_min":3,"x_max":382,"o":"m 289 992 l 382 992 l 96 -19 l 3 -19 l 289 992 z "},":":{"ha":463,"x_min":157,"x_max":365,"o":"m 365 203 l 365 0 l 157 0 l 157 203 l 365 203 m 365 722 l 365 519 l 157 519 l 157 722 l 365 722 z "},";":{"ha":463,"x_min":157,"x_max":365,"o":"m 157 203 l 365 203 l 365 13 q 349 -113 365 -68 q 290 -190 332 -158 q 157 -242 236 -232 l 157 -164 q 276 -4 276 -140 l 276 0 l 157 0 l 157 203 m 365 722 l 365 519 l 157 519 l 157 722 l 365 722 z "},"<":{"ha":811,"x_min":56,"x_max":735,"o":"m 735 658 l 735 507 l 204 322 l 735 140 l 735 -14 l 56 239 l 56 407 l 735 658 z "},"=":{"ha":811,"x_min":69,"x_max":742,"o":"m 742 571 l 742 406 l 69 406 l 69 571 l 742 571 m 742 238 l 742 72 l 69 72 l 69 238 l 742 238 z "},">":{"ha":811,"x_min":56,"x_max":735,"o":"m 56 -14 l 56 138 l 586 322 l 56 504 l 56 658 l 735 406 l 735 238 l 56 -14 z "},"?":{"ha":849,"x_min":89,"x_max":772,"o":"m 513 279 l 340 279 q 367 426 338 368 q 478 554 396 483 q 558 633 539 604 q 576 710 576 663 q 535 824 576 778 q 431 869 493 869 q 317 813 361 869 q 278 671 274 756 l 278 668 l 89 668 q 154 910 90 825 q 426 1033 244 1033 q 676 944 579 1033 q 772 714 772 856 q 738 569 772 626 q 606 444 703 513 q 528 374 543 400 q 513 279 513 347 m 535 203 l 535 0 l 326 0 l 326 203 l 535 203 z "},"@":{"ha":1354,"x_min":38,"x_max":1315,"o":"m 894 706 l 1019 706 l 911 317 q 900 258 900 275 q 918 209 900 228 q 968 190 936 190 q 1121 290 1046 190 q 1192 514 1192 389 q 1056 800 1192 678 q 710 928 911 928 q 315 753 467 928 q 172 369 172 588 q 336 29 172 157 q 675 -83 481 -83 q 963 -26 836 -83 l 1001 -128 q 672 -192 861 -192 q 247 -60 415 -192 q 92 131 147 18 q 38 367 38 243 q 91 614 38 488 q 236 835 144 740 q 717 1035 429 1035 q 1161 861 981 1035 q 1315 493 1315 711 q 1201 194 1315 325 q 968 78 1097 78 q 844 114 897 78 q 794 182 808 139 q 586 78 708 78 q 425 147 492 78 q 358 315 358 217 q 461 593 358 465 q 576 685 508 651 q 714 719 643 719 q 872 619 824 719 l 894 706 m 710 621 q 560 533 628 621 q 493 339 493 444 q 529 233 493 276 q 617 190 565 190 q 739 256 683 190 q 802 363 778 300 q 826 479 826 426 q 795 583 826 544 q 710 621 764 621 z "},"A":{"ha":1003,"x_min":36,"x_max":976,"o":"m 696 204 l 317 204 l 249 0 l 36 0 l 396 1013 l 626 1013 l 976 0 l 763 0 l 696 204 m 639 378 l 507 774 l 375 378 l 639 378 z "},"B":{"ha":1003,"x_min":114,"x_max":925,"o":"m 114 0 l 114 1013 l 565 1013 q 804 939 718 1013 q 896 746 896 858 q 864 633 896 681 q 757 538 832 586 q 925 292 925 439 q 898 172 925 231 q 825 74 871 113 q 569 0 738 0 l 114 0 m 322 839 l 322 610 l 549 610 q 696 724 696 610 q 549 839 696 839 l 322 839 m 322 436 l 322 174 l 571 174 q 725 304 725 174 q 571 436 725 436 l 322 436 z "},"C":{"ha":1003,"x_min":61,"x_max":951,"o":"m 947 669 l 749 669 q 703 778 732 742 q 532 851 644 851 q 339 757 408 851 q 269 494 269 663 q 337 236 269 329 q 525 143 404 143 q 681 196 622 143 q 749 346 739 249 l 951 346 q 825 70 942 172 q 519 -32 708 -32 q 185 110 308 -32 q 61 497 61 253 q 186 886 61 743 q 525 1029 311 1029 q 879 869 758 1029 q 947 669 938 792 z "},"D":{"ha":1003,"x_min":107,"x_max":946,"o":"m 107 0 l 107 1013 l 503 1013 q 695 985 619 1013 q 822 896 771 957 q 946 507 946 749 q 822 118 946 263 q 503 0 724 0 l 107 0 m 315 174 l 503 174 q 738 506 738 174 q 503 839 738 839 l 315 839 l 315 174 z "},"E":{"ha":926,"x_min":110,"x_max":867,"o":"m 318 436 l 318 174 l 867 174 l 867 0 l 110 0 l 110 1013 l 842 1013 l 842 839 l 318 839 l 318 610 l 803 610 l 803 436 l 318 436 z "},"F":{"ha":849,"x_min":103,"x_max":814,"o":"m 311 436 l 311 0 l 103 0 l 103 1013 l 814 1013 l 814 839 l 311 839 l 311 610 l 754 610 l 754 436 l 311 436 z "},"G":{"ha":1081,"x_min":58,"x_max":988,"o":"m 988 544 l 988 -3 l 863 -3 l 838 131 q 707 7 779 46 q 532 -32 635 -32 q 192 118 326 -32 q 58 499 58 268 q 194 882 58 735 q 549 1029 331 1029 q 850 938 732 1029 q 988 689 968 846 l 792 689 q 729 790 768 757 q 550 851 660 851 q 342 758 418 851 q 267 501 267 665 q 348 246 267 346 q 556 146 429 146 q 763 243 683 146 q 813 371 806 293 l 582 371 l 582 544 l 988 544 z "},"H":{"ha":1003,"x_min":94,"x_max":913,"o":"m 704 460 l 303 460 l 303 0 l 94 0 l 94 1013 l 303 1013 l 303 633 l 703 633 l 703 1013 l 913 1013 l 913 0 l 704 0 l 704 460 z "},"I":{"ha":386,"x_min":88,"x_max":296,"o":"m 296 1013 l 296 0 l 88 0 l 88 1013 l 296 1013 z "},"J":{"ha":772,"x_min":33,"x_max":675,"o":"m 467 1013 l 675 1013 l 675 264 q 590 45 675 122 q 350 -32 506 -32 q 118 49 207 -32 q 33 275 33 128 l 33 375 l 242 375 l 242 278 q 268 177 242 208 q 354 146 294 146 q 438 176 408 146 q 467 264 467 207 l 467 1013 z "},"K":{"ha":1003,"x_min":103,"x_max":996,"o":"m 311 339 l 311 0 l 103 0 l 103 1013 l 311 1013 l 311 568 l 707 1013 l 953 1013 l 549 576 l 996 0 l 747 0 l 415 447 l 311 339 z "},"L":{"ha":849,"x_min":111,"x_max":804,"o":"m 319 1013 l 319 174 l 804 174 l 804 0 l 111 0 l 111 1013 l 319 1013 z "},"M":{"ha":1157,"x_min":92,"x_max":1078,"o":"m 300 789 l 300 0 l 92 0 l 92 1013 l 403 1013 l 586 207 l 764 1013 l 1078 1013 l 1078 0 l 869 0 l 869 789 l 690 0 l 482 0 l 300 789 z "},"N":{"ha":1003,"x_min":94,"x_max":918,"o":"m 710 0 l 303 700 l 303 0 l 94 0 l 94 1013 l 308 1013 l 710 324 l 710 1013 l 918 1013 l 918 0 l 710 0 z "},"O":{"ha":1081,"x_min":56,"x_max":1031,"o":"m 542 1029 q 889 889 758 1029 q 1031 492 1031 736 q 992 281 1031 385 q 889 108 954 178 q 543 -32 758 -32 q 197 108 328 -32 q 92 283 129 181 q 56 499 56 385 q 197 889 56 736 q 542 1029 326 1029 m 543 851 q 340 755 417 851 q 264 499 264 658 q 340 242 264 339 q 543 146 417 146 q 745 242 668 146 q 822 493 822 338 q 747 754 822 657 q 543 851 671 851 z "},"P":{"ha":926,"x_min":106,"x_max":879,"o":"m 314 361 l 314 0 l 106 0 l 106 1013 l 553 1013 q 795 932 711 1013 q 879 699 879 851 q 796 453 879 544 q 574 361 713 361 l 314 361 m 314 535 l 508 535 q 671 686 671 535 q 631 801 671 764 q 508 839 592 839 l 314 839 l 314 535 z "},"Q":{"ha":1081,"x_min":60,"x_max":1035,"o":"m 924 143 l 1035 38 l 929 -75 l 810 38 q 547 -32 694 -32 q 201 108 332 -32 q 97 283 135 181 q 60 499 60 386 q 97 714 60 611 q 201 889 135 817 q 547 1029 332 1029 q 893 889 763 1029 q 997 715 960 817 q 1035 501 1035 613 q 1005 302 1035 399 q 924 143 975 206 m 667 386 l 781 278 q 826 497 826 369 q 751 755 826 658 q 547 851 675 851 q 344 755 421 851 q 268 499 268 658 q 344 242 268 339 q 546 146 421 146 q 668 172 618 146 l 561 274 l 667 386 z "},"R":{"ha":1003,"x_min":111,"x_max":940,"o":"m 319 401 l 319 0 l 111 0 l 111 1013 l 654 1013 q 850 943 782 1013 q 926 739 926 864 q 756 489 926 556 q 811 465 793 474 q 848 435 829 456 q 873 397 867 414 q 885 336 879 381 q 893 249 892 292 q 896 121 894 206 q 940 38 896 63 l 940 0 l 717 0 q 691 69 697 36 q 685 174 685 103 q 686 240 685 214 q 688 281 688 258 q 657 373 688 344 q 558 401 626 401 l 319 401 m 319 575 l 571 575 q 681 601 650 575 q 718 710 718 635 q 681 813 718 781 q 571 839 649 839 l 319 839 l 319 575 z "},"S":{"ha":926,"x_min":44,"x_max":879,"o":"m 843 704 l 649 704 q 436 863 638 863 q 308 828 356 863 q 261 738 261 794 q 301 655 261 682 q 453 606 342 628 l 611 575 q 815 481 751 547 q 879 296 879 415 q 769 55 879 142 q 464 -32 660 -32 q 162 54 269 -32 q 44 303 54 140 l 247 303 q 311 178 253 221 q 475 135 369 135 q 624 171 569 135 q 679 271 679 207 q 636 365 679 332 q 489 418 593 399 l 347 446 q 128 538 193 475 q 63 718 63 600 q 163 948 63 867 q 446 1029 264 1029 q 772 914 668 1029 q 843 704 843 835 z "},"T":{"ha":849,"x_min":19,"x_max":831,"o":"m 535 839 l 535 0 l 326 0 l 326 839 l 19 839 l 19 1013 l 831 1013 l 831 839 l 535 839 z "},"U":{"ha":1003,"x_min":106,"x_max":908,"o":"m 700 1013 l 908 1013 l 908 326 q 810 71 908 160 q 507 -32 696 -32 q 204 71 318 -32 q 106 326 106 160 l 106 1013 l 314 1013 l 314 326 q 507 146 314 146 q 700 326 700 146 l 700 1013 z "},"V":{"ha":926,"x_min":33,"x_max":899,"o":"m 551 0 l 375 0 l 33 1013 l 243 1013 l 468 250 l 689 1013 l 899 1013 l 551 0 z "},"W":{"ha":1311,"x_min":18,"x_max":1294,"o":"m 1014 0 l 826 0 l 657 790 l 492 0 l 304 0 l 18 1013 l 239 1013 l 396 254 l 553 1013 l 758 1013 l 922 253 l 1074 1013 l 1294 1013 l 1014 0 z "},"X":{"ha":926,"x_min":31,"x_max":907,"o":"m 582 517 l 907 0 l 660 0 l 465 351 l 272 0 l 31 0 l 350 510 l 42 1013 l 289 1013 l 467 679 l 653 1013 l 894 1013 l 582 517 z "},"Y":{"ha":926,"x_min":38,"x_max":903,"o":"m 582 375 l 582 0 l 374 0 l 374 375 l 38 1013 l 269 1013 l 476 565 l 669 1013 l 903 1013 l 582 375 z "},"Z":{"ha":849,"x_min":42,"x_max":803,"o":"m 803 1013 l 803 839 l 286 174 l 803 174 l 803 0 l 42 0 l 42 174 l 560 839 l 42 839 l 42 1013 l 803 1013 z "},"[":{"ha":463,"x_min":92,"x_max":428,"o":"m 428 1013 l 428 871 l 272 871 l 272 -136 l 428 -136 l 428 -278 l 92 -278 l 92 1013 l 428 1013 z "},"\\":{"ha":386,"x_min":-17,"x_max":401,"o":"m 76 992 l 401 -19 l 308 -19 l -17 992 l 76 992 z "},"]":{"ha":463,"x_min":25,"x_max":361,"o":"m 25 -278 l 25 -136 l 181 -136 l 181 871 l 25 871 l 25 1013 l 361 1013 l 361 -278 l 25 -278 z "},"^":{"ha":811,"x_min":85,"x_max":725,"o":"m 725 375 l 568 375 l 400 792 l 240 375 l 85 375 l 314 965 l 488 965 l 725 375 z "},"_":{"ha":772,"x_min":-31,"x_max":803,"o":"m 803 -167 l 803 -262 l -31 -262 l -31 -167 l 803 -167 z "},"‘":{"ha":386,"x_min":93,"x_max":281,"o":"m 281 651 l 93 651 l 93 803 q 156 965 93 913 q 281 1013 207 1008 l 281 949 q 169 825 165 928 l 281 825 l 281 651 z "},"a":{"ha":772,"x_min":39,"x_max":728,"o":"m 728 24 l 728 0 l 517 0 q 494 75 494 28 q 267 -32 392 -32 q 92 39 160 -32 q 39 193 39 96 q 260 429 39 392 l 338 443 q 460 472 433 458 q 493 531 493 490 q 381 606 493 606 q 279 583 308 606 q 243 503 250 561 l 56 503 q 376 763 74 763 q 683 532 683 763 l 683 115 q 728 24 683 64 m 493 301 l 493 354 q 411 331 467 342 l 344 318 q 258 282 283 306 q 233 215 233 258 q 262 149 233 174 q 339 125 290 125 q 453 171 413 125 q 493 301 493 217 z "},"b":{"ha":849,"x_min":82,"x_max":799,"o":"m 82 1013 l 276 1013 l 276 653 q 483 763 346 763 q 615 730 551 763 q 718 642 679 697 q 799 365 799 525 q 708 82 799 196 q 483 -32 618 -32 q 276 76 346 -32 l 276 0 l 82 0 l 82 1013 m 558 534 q 535 567 558 534 q 440 600 513 600 q 322 535 368 600 q 276 368 276 471 q 322 196 276 261 q 440 131 367 131 q 558 196 513 131 q 604 364 604 261 q 558 534 604 468 z "},"c":{"ha":772,"x_min":47,"x_max":725,"o":"m 725 469 l 539 469 q 491 574 522 543 q 400 606 460 606 q 279 542 314 606 q 242 360 242 471 q 284 188 242 250 q 400 125 326 125 q 489 156 457 125 q 539 260 521 188 l 725 260 q 623 47 711 125 q 399 -32 535 -32 q 140 71 232 -32 q 47 360 47 174 q 140 657 47 551 q 401 763 233 763 q 628 685 542 763 q 725 469 715 607 z "},"d":{"ha":849,"x_min":40,"x_max":757,"o":"m 563 0 l 563 76 q 356 -32 490 -32 q 224 1 288 -32 q 121 88 160 33 q 40 364 40 204 q 131 648 40 533 q 356 763 221 763 q 563 653 492 763 l 563 1013 l 757 1013 l 757 0 l 563 0 m 399 600 q 281 534 326 600 q 235 364 235 468 q 281 196 235 261 q 399 131 326 131 q 517 194 471 131 q 563 361 563 258 q 517 534 563 468 q 399 600 472 600 z "},"e":{"ha":772,"x_min":31,"x_max":729,"o":"m 728 314 l 225 314 q 253 182 229 219 q 381 117 296 117 q 529 211 492 117 l 721 211 q 594 34 689 100 q 374 -32 500 -32 q 122 72 214 -32 q 31 356 31 175 q 124 653 31 544 q 378 763 217 763 q 577 705 492 763 q 700 544 663 647 q 729 347 729 460 q 728 314 729 331 m 228 443 l 526 443 q 496 551 521 513 q 375 614 451 614 q 228 443 247 614 z "},"f":{"ha":463,"x_min":19,"x_max":435,"o":"m 435 735 l 435 606 l 319 606 l 319 0 l 125 0 l 125 606 l 19 606 l 19 735 l 125 735 l 125 825 q 317 1013 125 1013 q 428 1008 374 1013 l 428 863 q 372 867 403 867 q 319 808 319 867 l 319 735 l 435 735 z "},"g":{"ha":849,"x_min":47,"x_max":751,"o":"m 567 750 l 751 750 l 751 -25 q 658 -230 751 -157 q 394 -303 564 -303 q 136 -231 225 -303 q 63 -90 64 -171 l 264 -90 q 401 -178 288 -178 q 521 -135 475 -178 q 567 -25 567 -93 l 567 76 q 466 -8 513 15 q 354 -32 419 -32 q 131 75 215 -32 q 47 357 47 182 q 136 647 47 531 q 358 763 225 763 q 567 635 483 763 l 567 750 m 400 600 q 285 533 329 600 q 242 360 242 467 q 285 194 242 258 q 397 131 328 131 q 522 194 474 131 q 569 360 569 258 q 522 532 569 464 q 400 600 474 600 z "},"h":{"ha":849,"x_min":93,"x_max":751,"o":"m 93 1013 l 288 1013 l 288 642 q 507 763 368 763 q 675 706 607 763 q 751 503 751 642 l 751 0 l 557 0 l 557 458 q 535 551 557 518 q 438 597 501 597 q 330 556 372 597 q 288 450 288 514 l 288 0 l 93 0 l 93 1013 z "},"i":{"ha":386,"x_min":93,"x_max":288,"o":"m 288 750 l 288 0 l 93 0 l 93 750 l 288 750 m 288 1013 l 288 839 l 93 839 l 93 1013 l 288 1013 z "},"j":{"ha":386,"x_min":6,"x_max":292,"o":"m 292 750 l 292 -131 q 251 -262 292 -222 q 121 -303 211 -303 q 6 -296 71 -303 l 6 -140 q 40 -146 24 -146 q 85 -133 72 -146 q 97 -87 97 -119 l 97 750 l 292 750 m 292 1013 l 292 839 l 97 839 l 97 1013 l 292 1013 z "},"k":{"ha":772,"x_min":82,"x_max":761,"o":"m 276 458 l 522 750 l 743 750 l 488 467 l 761 0 l 533 0 l 354 331 l 276 246 l 276 0 l 82 0 l 82 1013 l 276 1013 l 276 458 z "},"l":{"ha":386,"x_min":93,"x_max":288,"o":"m 288 1013 l 288 0 l 93 0 l 93 1013 l 288 1013 z "},"m":{"ha":1235,"x_min":83,"x_max":1144,"o":"m 83 750 l 276 750 l 276 657 q 372 738 325 714 q 482 763 418 763 q 686 651 629 763 q 906 763 769 763 q 1081 701 1018 763 q 1144 531 1144 640 l 1144 0 l 950 0 l 950 500 q 922 571 950 544 q 844 597 893 597 q 747 558 782 597 q 711 450 711 519 l 711 0 l 517 0 l 517 500 q 488 571 517 544 q 411 597 460 597 q 313 558 349 597 q 278 450 278 519 l 278 0 l 83 0 l 83 750 z "},"n":{"ha":849,"x_min":88,"x_max":758,"o":"m 88 750 l 282 750 l 282 642 q 507 763 363 763 q 692 694 626 763 q 758 503 758 626 l 758 0 l 564 0 l 564 463 q 439 597 564 597 q 325 557 368 597 q 282 450 282 517 l 282 0 l 88 0 l 88 750 z "},"o":{"ha":849,"x_min":49,"x_max":790,"o":"m 418 763 q 692 656 594 763 q 790 360 790 550 q 690 74 790 179 q 419 -32 590 -32 q 147 74 246 -32 q 49 365 49 181 q 147 656 49 550 q 418 763 246 763 m 419 606 q 292 539 340 606 q 243 365 243 472 q 292 192 243 258 q 419 125 340 125 q 547 191 497 125 q 596 363 596 257 q 548 540 596 474 q 419 606 500 606 z "},"p":{"ha":849,"x_min":81,"x_max":797,"o":"m 275 750 l 275 639 q 483 763 344 763 q 615 730 551 763 q 717 644 679 697 q 797 364 797 532 q 708 80 797 193 q 483 -33 618 -33 q 275 89 344 -33 l 275 -303 l 81 -303 l 81 750 l 275 750 m 558 534 q 535 567 558 534 q 439 600 513 600 q 320 535 365 600 q 275 364 275 469 q 320 194 275 258 q 439 129 365 129 q 557 194 511 129 q 603 361 603 260 q 558 534 603 468 z "},"q":{"ha":849,"x_min":39,"x_max":756,"o":"m 561 750 l 756 750 l 756 -303 l 561 -303 l 561 89 q 351 -33 493 -33 q 221 -1 285 -33 q 119 85 157 32 q 39 364 39 194 q 128 649 39 536 q 353 763 218 763 q 561 639 492 763 l 561 750 m 516 535 q 493 567 516 535 q 397 600 471 600 q 278 535 324 600 q 233 364 233 469 q 278 194 233 258 q 397 129 324 129 q 515 193 469 129 q 561 360 561 257 q 516 535 561 469 z "},"r":{"ha":540,"x_min":88,"x_max":514,"o":"m 88 750 l 282 750 l 282 603 q 368 721 313 679 q 490 763 424 763 q 514 761 503 763 l 514 564 q 453 569 479 569 q 282 399 282 569 l 282 0 l 88 0 l 88 750 z "},"s":{"ha":772,"x_min":40,"x_max":722,"o":"m 701 508 l 514 508 q 374 610 513 610 q 292 591 322 610 q 261 540 261 572 q 275 506 261 518 q 329 482 289 494 l 575 411 q 722 222 722 368 q 633 35 722 106 q 394 -32 550 -32 q 40 218 49 -32 l 231 218 q 268 147 242 167 q 383 121 308 121 q 490 140 451 121 q 528 194 528 160 q 513 231 528 217 q 463 256 499 244 l 231 328 q 108 390 142 357 q 67 513 67 436 q 149 695 67 628 q 375 763 232 763 q 613 695 526 763 q 701 508 699 628 z "},"t":{"ha":463,"x_min":19,"x_max":418,"o":"m 418 735 l 418 606 l 310 606 l 310 197 q 322 131 310 147 q 374 115 335 115 q 418 119 389 115 l 418 -17 q 306 -32 371 -32 q 115 144 115 -32 l 115 606 l 19 606 l 19 735 l 115 735 l 115 936 l 310 936 l 310 735 l 418 735 z "},"u":{"ha":849,"x_min":81,"x_max":751,"o":"m 751 0 l 557 0 l 557 89 q 332 -32 476 -32 q 147 36 213 -32 q 81 228 81 104 l 81 750 l 275 750 l 275 268 q 400 133 275 133 q 514 174 471 133 q 557 281 557 214 l 557 750 l 751 750 l 751 0 z "},"v":{"ha":772,"x_min":19,"x_max":744,"o":"m 486 0 l 282 0 l 19 750 l 225 750 l 388 201 l 539 750 l 744 750 l 486 0 z "},"w":{"ha":1081,"x_min":7,"x_max":1064,"o":"m 851 0 l 650 0 l 538 529 l 418 0 l 218 0 l 7 750 l 208 750 l 328 225 l 442 750 l 636 750 l 749 225 l 863 750 l 1064 750 l 851 0 z "},"x":{"ha":772,"x_min":22,"x_max":743,"o":"m 493 378 l 743 0 l 510 0 l 383 233 l 256 0 l 22 0 l 272 378 l 28 750 l 261 750 l 383 524 l 504 750 l 738 750 l 493 378 z "},"y":{"ha":772,"x_min":13,"x_max":747,"o":"m 547 750 l 747 750 l 439 -137 q 392 -234 415 -204 q 329 -281 369 -264 q 189 -304 272 -304 q 119 -299 158 -304 l 119 -153 q 171 -161 150 -161 q 257 -125 222 -161 q 292 -36 292 -89 l 292 -32 l 292 -31 l 13 750 l 226 750 l 392 204 l 547 750 z "},"z":{"ha":694,"x_min":29,"x_max":650,"o":"m 638 750 l 638 593 l 269 157 l 650 157 l 650 0 l 29 0 l 29 157 l 400 593 l 54 593 l 54 750 l 638 750 z "},"{":{"ha":540,"x_min":51,"x_max":440,"o":"m 440 1013 l 440 875 l 389 875 q 326 796 326 875 l 326 525 q 298 417 326 449 q 192 374 269 385 q 298 329 269 361 q 326 221 326 297 l 326 -50 q 340 -121 326 -101 q 389 -140 354 -140 l 440 -140 l 440 -278 l 335 -278 q 212 -223 260 -278 q 164 -83 164 -168 l 164 208 q 154 270 164 250 q 121 301 144 290 q 57 308 101 308 l 51 310 l 51 438 l 57 438 l 74 438 q 164 525 164 439 l 164 818 q 212 958 164 903 q 335 1013 260 1013 l 440 1013 z "},"|":{"ha":389,"x_min":139,"x_max":250,"o":"m 250 1013 l 250 -278 l 139 -278 l 139 1013 l 250 1013 z "},"}":{"ha":540,"x_min":100,"x_max":489,"o":"m 100 -278 l 100 -140 l 151 -140 q 214 -61 214 -140 l 214 210 q 242 318 214 286 q 349 361 271 350 q 242 406 271 374 q 214 514 214 438 l 214 785 q 200 856 214 836 q 151 875 186 875 l 100 875 l 100 1013 l 206 1013 q 328 958 281 1013 q 376 818 376 903 l 376 526 q 386 465 376 485 q 419 433 396 444 q 483 426 439 426 l 489 425 l 489 297 l 483 297 l 467 297 q 376 210 376 296 l 376 -83 q 328 -223 376 -168 q 206 -278 281 -278 l 100 -278 z "},"~":{"ha":811,"x_min":83,"x_max":721,"o":"m 613 400 l 721 400 q 544 197 708 197 q 429 233 482 197 l 350 292 q 265 325 306 325 q 199 288 215 325 q 192 235 193 272 l 83 235 q 260 436 93 436 q 375 401 326 436 l 454 343 q 539 308 501 308 q 606 346 589 308 q 613 400 611 361 z "},"¡":{"ha":463,"x_min":92,"x_max":300,"o":"m 92 -258 l 92 33 l 150 463 l 243 463 l 300 33 l 300 -258 l 92 -258 m 92 547 l 92 750 l 300 750 l 300 547 l 92 547 z "},"¢":{"ha":772,"x_min":50,"x_max":725,"o":"m 421 604 l 421 126 q 496 165 468 133 q 539 260 524 196 l 725 260 q 629 54 714 135 q 421 -32 544 -26 l 421 -172 l 360 -172 l 360 -31 q 133 83 215 -21 q 50 360 50 186 q 129 642 50 539 q 360 761 208 746 l 360 881 l 421 881 l 421 763 q 633 680 549 761 q 725 469 717 599 l 539 469 q 497 565 525 533 q 421 604 469 597 m 360 131 l 360 601 q 244 361 244 571 q 360 131 244 165 z "},"£":{"ha":772,"x_min":43,"x_max":746,"o":"m 521 515 l 521 439 l 351 439 q 372 357 372 394 q 336 242 372 296 q 211 119 300 189 q 367 171 319 171 q 456 156 396 171 q 543 142 507 142 q 689 182 608 142 l 746 31 q 544 -32 640 -32 q 407 -10 500 -32 q 271 13 318 13 q 119 -29 203 13 l 43 111 q 163 215 131 171 q 196 321 196 260 q 167 439 196 368 l 43 439 l 43 515 l 126 515 q 66 634 79 597 q 53 717 53 671 q 156 925 53 842 q 383 993 244 993 q 686 840 608 993 q 725 672 715 783 l 542 672 l 540 688 q 524 758 535 735 q 492 801 514 782 q 385 839 450 839 q 287 803 325 839 q 249 713 249 768 q 286 606 249 682 q 328 515 318 540 l 521 515 z "},"⁄":{"ha":232,"x_min":-240,"x_max":468,"o":"m 347 993 l 468 993 l -119 -28 l -240 -28 l 347 993 z "},"¥":{"ha":772,"x_min":7,"x_max":767,"o":"m 690 488 l 690 406 l 493 406 l 493 332 l 690 332 l 690 250 l 493 250 l 493 0 l 299 0 l 299 250 l 97 250 l 97 332 l 299 332 l 299 406 l 97 406 l 97 488 l 289 488 l 7 978 l 200 978 l 393 625 l 579 978 l 767 978 l 500 488 l 690 488 z "},"ƒ":{"ha":772,"x_min":29,"x_max":743,"o":"m 694 667 l 694 532 l 504 532 l 422 1 q 328 -239 396 -171 q 154 -306 261 -306 q 29 -275 89 -306 l 63 -115 q 142 -144 111 -144 q 198 -110 178 -144 q 232 10 218 -76 l 315 532 l 144 532 l 144 667 l 336 667 l 351 749 q 438 965 375 896 q 610 1033 500 1033 q 743 1010 665 1033 l 715 850 q 639 872 665 872 q 533 724 558 872 l 524 667 l 694 667 z "},"§":{"ha":772,"x_min":46,"x_max":719,"o":"m 657 756 l 481 756 q 372 863 467 863 q 308 843 332 863 q 283 792 283 824 q 309 738 283 763 q 408 674 335 714 l 585 576 q 719 364 719 501 q 689 249 719 294 q 589 172 658 204 q 686 -14 686 104 q 603 -206 686 -132 q 383 -279 519 -279 q 90 0 93 -279 l 272 0 l 272 -14 q 299 -94 276 -74 q 385 -125 329 -125 q 461 -101 432 -125 q 490 -40 490 -78 q 465 22 490 -3 q 393 68 451 36 l 156 207 q 46 390 46 271 q 73 495 46 453 q 174 594 100 538 q 126 646 135 633 q 89 765 89 694 q 171 937 89 869 q 379 1004 253 1004 q 524 976 460 1004 q 621 899 589 947 q 657 756 653 846 m 468 425 l 269 531 q 211 440 211 496 q 227 388 211 408 q 285 343 243 367 l 489 232 q 553 322 553 276 q 535 377 553 356 q 468 425 517 399 z "},"¤":{"ha":772,"x_min":36,"x_max":736,"o":"m 539 733 l 640 835 l 736 739 l 632 635 q 669 492 669 560 q 629 342 669 413 l 736 236 l 640 142 l 536 246 q 462 212 489 219 q 397 204 435 204 q 243 247 301 204 l 133 139 l 39 235 l 147 342 q 106 489 106 418 q 146 635 106 571 l 36 744 l 132 839 l 239 732 q 390 775 310 775 q 539 733 472 775 m 389 639 q 283 596 326 639 q 239 489 239 553 q 283 384 239 428 q 388 340 326 340 q 492 384 449 340 q 536 490 536 428 q 492 595 536 551 q 389 639 449 639 z "},"'":{"ha":331,"x_min":69,"x_max":261,"o":"m 261 1013 l 261 832 l 203 653 l 125 653 l 69 832 l 69 1013 l 261 1013 z "},"“":{"ha":694,"x_min":99,"x_max":601,"o":"m 286 651 l 99 651 l 99 803 q 161 965 99 913 q 286 1013 213 1008 l 286 949 q 175 825 171 928 l 286 825 l 286 651 m 601 651 l 414 651 l 414 803 q 476 965 414 913 q 601 1013 528 1008 l 601 949 q 490 825 486 928 l 601 825 l 601 651 z "},"«":{"ha":772,"x_min":122,"x_max":650,"o":"m 122 303 l 122 461 l 354 668 l 354 506 l 214 382 l 354 258 l 354 100 l 122 303 m 418 303 l 418 461 l 650 668 l 650 506 l 510 382 l 650 258 l 650 100 l 418 303 z "},"‹":{"ha":463,"x_min":115,"x_max":347,"o":"m 115 303 l 115 461 l 347 668 l 347 506 l 207 382 l 347 258 l 347 100 l 115 303 z "},"›":{"ha":463,"x_min":111,"x_max":343,"o":"m 343 465 l 343 306 l 111 100 l 111 263 l 251 386 l 111 510 l 111 668 l 343 465 z "},"ﬁ":{"ha":849,"x_min":13,"x_max":761,"o":"m 761 750 l 761 0 l 567 0 l 567 750 l 761 750 m 761 1013 l 761 839 l 567 839 l 567 1013 l 761 1013 m 428 735 l 428 606 l 313 606 l 313 0 l 118 0 l 118 606 l 13 606 l 13 735 l 118 735 l 118 825 q 310 1013 118 1013 q 421 1008 367 1013 l 421 863 q 365 867 396 867 q 313 808 313 867 l 313 735 l 428 735 z "},"ﬂ":{"ha":849,"x_min":17,"x_max":758,"o":"m 758 1013 l 758 0 l 564 0 l 564 1013 l 758 1013 m 432 735 l 432 606 l 317 606 l 317 0 l 122 0 l 122 606 l 17 606 l 17 735 l 122 735 l 122 825 q 314 1013 122 1013 q 425 1008 371 1013 l 425 863 q 369 867 400 867 q 317 808 317 867 l 317 735 l 432 735 z "},"–":{"ha":772,"x_min":-12,"x_max":774,"o":"m 774 432 l 774 288 l -12 288 l -12 432 l 774 432 z "},"†":{"ha":772,"x_min":43,"x_max":726,"o":"m 726 674 l 726 513 l 478 513 l 478 -269 l 292 -269 l 292 513 l 43 513 l 43 674 l 292 674 l 292 985 l 478 985 l 478 674 l 726 674 z "},"‡":{"ha":772,"x_min":39,"x_max":722,"o":"m 722 674 l 722 513 l 474 513 l 474 203 l 722 203 l 722 42 l 474 42 l 474 -269 l 288 -269 l 288 42 l 39 42 l 39 203 l 288 203 l 288 513 l 39 513 l 39 674 l 288 674 l 288 985 l 474 985 l 474 674 l 722 674 z "},"·":{"ha":386,"x_min":89,"x_max":261,"o":"m 89 406 l 261 406 l 261 235 l 89 235 l 89 406 z "},"¶":{"ha":772,"x_min":26,"x_max":735,"o":"m 735 1013 l 735 913 l 675 913 l 675 -265 l 539 -265 l 539 913 l 451 913 l 451 -265 l 315 -265 l 315 371 q 107 465 188 376 q 26 688 26 554 q 97 903 26 808 q 314 1013 178 1013 l 735 1013 z "},"•":{"ha":486,"x_min":69,"x_max":417,"o":"m 246 590 q 366 539 315 590 q 417 417 417 488 q 366 294 417 344 q 243 243 315 243 q 120 294 171 243 q 69 417 69 344 q 121 540 69 489 q 246 590 172 590 z "},"‚":{"ha":386,"x_min":92,"x_max":279,"o":"m 92 174 l 279 174 l 279 22 q 217 -140 279 -87 q 92 -187 165 -183 l 92 -124 q 203 0 207 -103 l 92 0 l 92 174 z "},"„":{"ha":694,"x_min":100,"x_max":600,"o":"m 100 174 l 288 174 l 288 22 q 225 -140 288 -87 q 100 -187 174 -183 l 100 -124 q 211 0 215 -103 l 100 0 l 100 174 m 413 174 l 600 174 l 600 22 q 538 -140 600 -87 q 413 -187 486 -183 l 413 -124 q 524 0 528 -103 l 413 0 l 413 174 z "},"”":{"ha":694,"x_min":101,"x_max":611,"o":"m 101 1013 l 289 1013 l 289 861 q 226 699 289 751 q 101 651 175 656 l 101 715 q 213 839 217 736 l 101 839 l 101 1013 m 424 1013 l 611 1013 l 611 861 q 549 699 611 751 q 424 651 497 656 l 424 715 q 535 839 539 736 l 424 839 l 424 1013 z "},"»":{"ha":772,"x_min":122,"x_max":642,"o":"m 354 465 l 354 306 l 122 100 l 122 263 l 263 386 l 122 510 l 122 668 l 354 465 m 642 465 l 642 306 l 410 100 l 410 263 l 550 386 l 410 510 l 410 668 l 642 465 z "},"…":{"ha":1389,"x_min":128,"x_max":1261,"o":"m 336 203 l 336 0 l 128 0 l 128 203 l 336 203 m 799 203 l 799 0 l 590 0 l 590 203 l 799 203 m 1261 203 l 1261 0 l 1053 0 l 1053 203 l 1261 203 z "},"‰":{"ha":1389,"x_min":15,"x_max":1375,"o":"m 222 1026 q 370 966 310 1026 q 431 818 431 906 q 369 676 431 736 q 224 615 308 615 q 76 676 138 615 q 15 821 15 736 q 76 966 15 906 q 222 1026 138 1026 m 222 915 q 153 887 182 915 q 125 819 125 858 q 153 751 125 779 q 222 722 182 722 q 292 751 263 722 q 321 818 321 779 q 292 887 321 858 q 222 915 264 915 m 689 1025 l 782 1025 l 197 -29 l 106 -29 l 689 1025 m 654 381 q 802 320 742 381 q 863 172 863 260 q 801 29 863 89 q 656 -31 740 -31 q 508 30 569 -31 q 447 175 447 90 q 508 320 447 260 q 654 381 569 381 m 654 269 q 585 241 614 269 q 557 174 557 213 q 586 105 557 133 q 656 76 615 76 q 724 105 696 76 q 753 172 753 133 q 724 241 753 213 q 654 269 696 269 m 1167 381 q 1315 320 1254 381 q 1375 172 1375 260 q 1314 29 1375 89 q 1168 -31 1253 -31 q 1021 30 1082 -31 q 960 175 960 90 q 1021 320 960 260 q 1167 381 1082 381 m 1167 269 q 1098 241 1126 269 q 1069 174 1069 213 q 1099 105 1069 133 q 1168 76 1128 76 q 1237 105 1208 76 q 1265 172 1265 133 q 1237 241 1265 213 q 1167 269 1208 269 z "},"¿":{"ha":849,"x_min":71,"x_max":756,"o":"m 332 471 l 504 471 q 478 324 507 382 q 365 196 449 267 q 285 117 304 146 q 267 40 267 88 q 308 -74 267 -28 q 413 -119 350 -119 q 526 -62 482 -119 q 567 79 571 -6 l 567 82 l 756 82 q 690 -160 754 -75 q 418 -283 600 -283 q 167 -194 264 -283 q 71 36 71 -106 q 106 181 71 124 q 239 306 142 238 q 317 376 301 350 q 332 471 332 403 m 310 547 l 310 750 l 518 750 l 518 547 l 310 547 z "},"`":{"ha":463,"x_min":24,"x_max":296,"o":"m 24 1051 l 199 1051 l 296 843 l 199 843 l 24 1051 z "},"´":{"ha":463,"x_min":168,"x_max":440,"o":"m 440 1051 l 265 843 l 168 843 l 265 1051 l 440 1051 z "},"ˆ":{"ha":463,"x_min":11,"x_max":453,"o":"m 161 1051 l 310 1051 l 453 843 l 344 843 l 231 982 l 117 843 l 11 843 l 161 1051 z "},"˜":{"ha":463,"x_min":-12,"x_max":479,"o":"m 392 1040 l 479 1040 q 347 864 471 864 q 271 881 314 864 l 172 917 q 131 925 147 925 q 93 910 106 925 q 75 863 81 896 l -12 863 q 26 989 -8 943 q 118 1035 61 1035 q 196 1017 146 1035 l 294 982 q 342 974 314 974 q 392 1040 386 974 z "},"¯":{"ha":463,"x_min":22,"x_max":438,"o":"m 438 999 l 438 889 l 22 889 l 22 999 l 438 999 z "},"˘":{"ha":463,"x_min":49,"x_max":415,"o":"m 415 1039 l 415 1024 q 363 893 415 946 q 232 840 310 840 q 101 893 154 840 q 49 1025 49 946 l 49 1039 l 126 1039 q 233 947 139 947 q 338 1039 322 947 l 415 1039 z "},"˙":{"ha":463,"x_min":156,"x_max":308,"o":"m 308 1032 l 308 863 l 156 863 l 156 1032 l 308 1032 z "},"¨":{"ha":463,"x_min":25,"x_max":436,"o":"m 178 1032 l 178 863 l 25 863 l 25 1032 l 178 1032 m 436 1032 l 436 863 l 283 863 l 283 1032 l 436 1032 z "},"˚":{"ha":463,"x_min":107,"x_max":357,"o":"m 233 1069 q 321 1033 285 1069 q 357 943 357 996 q 320 856 357 892 q 232 819 283 819 q 144 856 181 819 q 107 944 107 892 q 144 1033 107 997 q 233 1069 181 1069 m 233 1003 q 191 985 208 1003 q 174 944 174 968 q 191 903 174 921 q 233 886 208 886 q 274 903 257 886 q 290 944 290 921 q 274 985 290 968 q 233 1003 257 1003 z "},"¸":{"ha":463,"x_min":38,"x_max":408,"o":"m 225 0 l 285 0 l 244 -87 q 303 -78 274 -78 q 380 -104 351 -78 q 408 -176 408 -131 q 362 -272 408 -239 q 229 -306 315 -306 q 38 -267 153 -306 l 64 -194 q 210 -236 160 -236 q 266 -219 243 -236 q 289 -179 289 -203 q 269 -144 289 -157 q 218 -131 250 -131 q 150 -147 185 -131 l 225 0 z "},"˝":{"ha":463,"x_min":-61,"x_max":472,"o":"m 211 1051 l 36 847 l -61 847 l 36 1051 l 211 1051 m 472 1051 l 297 847 l 200 847 l 297 1051 l 472 1051 z "},"˛":{"ha":463,"x_min":63,"x_max":372,"o":"m 235 0 l 339 0 q 219 -94 250 -56 q 188 -185 188 -132 q 293 -254 188 -254 q 372 -246 335 -254 l 372 -311 q 263 -325 318 -325 q 116 -290 169 -325 q 63 -193 63 -254 q 108 -81 63 -132 q 235 0 154 -29 z "},"ˇ":{"ha":463,"x_min":13,"x_max":454,"o":"m 304 843 l 156 843 l 13 1051 l 121 1051 l 235 917 l 349 1051 l 454 1051 l 304 843 z "},"—":{"ha":1389,"x_min":-10,"x_max":1393,"o":"m 1393 432 l 1393 288 l -10 288 l -10 432 l 1393 432 z "},"Æ":{"ha":1389,"x_min":1,"x_max":1342,"o":"m 597 211 l 288 211 l 214 0 l 1 0 l 367 1013 l 1314 1013 l 1314 839 l 806 839 l 806 610 l 1276 610 l 1276 436 l 806 436 l 806 174 l 1342 174 l 1342 0 l 597 0 l 597 211 m 597 385 l 597 839 l 504 839 l 346 385 l 597 385 z "},"ª":{"ha":514,"x_min":43,"x_max":457,"o":"m 446 472 l 446 364 l 51 364 l 51 472 l 446 472 m 457 569 l 457 556 l 329 556 q 315 600 317 571 q 179 536 256 536 q 81 574 118 536 q 43 672 43 611 q 175 815 43 793 l 222 824 q 294 842 279 833 q 315 875 315 851 q 247 918 315 918 q 188 904 206 918 q 165 857 169 890 l 57 857 q 244 1013 60 1013 q 429 874 429 1013 l 429 625 q 457 569 429 594 m 315 736 l 315 768 q 267 754 300 760 l 226 746 q 175 725 190 739 q 160 685 160 711 q 224 631 160 631 q 291 658 267 631 q 315 736 315 686 z "},"Ł":{"ha":849,"x_min":0,"x_max":829,"o":"m 319 588 l 549 743 l 549 621 l 319 464 l 319 174 l 829 174 l 829 0 l 111 0 l 111 357 l 0 279 l 0 403 l 111 481 l 111 1013 l 319 1013 l 319 588 z "},"Ø":{"ha":1081,"x_min":43,"x_max":1049,"o":"m 229 72 l 114 -54 l 43 10 l 163 142 q 49 499 49 294 q 192 889 49 739 q 539 1029 322 1029 q 861 913 729 1029 l 976 1040 l 1049 978 l 925 840 q 1028 496 1028 700 q 990 282 1028 385 q 885 108 953 179 q 539 -32 754 -32 q 229 72 350 -32 m 788 690 l 356 213 q 539 146 425 146 q 743 243 667 146 q 819 501 819 340 q 788 690 819 606 m 297 290 l 733 771 q 539 851 657 851 q 333 754 410 851 q 257 494 257 657 q 297 290 257 379 z "},"Œ":{"ha":1389,"x_min":39,"x_max":1347,"o":"m 867 436 l 867 174 l 1347 174 l 1347 0 l 667 0 l 667 82 q 569 -7 615 18 q 451 -32 522 -32 q 155 117 271 -32 q 39 499 39 267 q 156 881 39 733 q 457 1029 272 1029 q 570 1009 524 1029 q 667 940 617 989 l 667 1013 l 1321 1013 l 1321 839 l 867 839 l 867 610 l 1282 610 l 1282 436 l 867 436 m 658 247 l 658 750 q 494 851 600 851 q 315 755 383 851 q 247 499 247 658 q 315 243 247 340 q 493 146 383 146 q 658 247 600 146 z "},"º":{"ha":507,"x_min":32,"x_max":476,"o":"m 464 472 l 464 364 l 46 364 l 46 472 l 464 472 m 254 1013 q 418 949 360 1013 q 476 771 476 885 q 417 599 476 663 q 254 536 357 536 q 92 600 151 536 q 32 774 32 664 q 92 949 32 885 q 254 1013 151 1013 m 331 878 q 316 898 331 878 q 254 918 301 918 q 178 878 207 918 q 149 775 149 839 q 178 671 149 711 q 254 631 207 631 q 331 670 301 631 q 360 772 360 710 q 331 878 360 838 z "},"æ":{"ha":1235,"x_min":38,"x_max":1190,"o":"m 989 211 l 1181 211 q 1054 34 1149 100 q 833 -32 960 -32 q 556 113 644 -32 q 271 -33 432 -33 q 101 28 164 -33 q 38 196 38 90 q 258 433 38 397 l 336 447 q 458 476 432 463 q 492 532 492 494 q 374 606 492 606 q 278 583 308 606 q 242 503 249 560 l 60 503 q 376 763 64 763 q 619 693 539 763 q 835 763 706 763 q 1037 705 951 763 q 1161 544 1122 647 q 1190 347 1190 461 q 1189 314 1190 331 l 686 314 q 714 185 686 228 q 844 117 758 117 q 935 144 894 117 q 989 211 976 171 m 492 300 l 492 353 q 410 326 461 335 l 343 317 q 232 215 232 301 q 260 148 232 172 q 338 124 289 124 q 452 169 413 124 q 492 300 492 214 m 688 443 l 988 443 q 836 614 972 614 q 688 443 700 614 z "},"ı":{"ha":386,"x_min":93,"x_max":288,"o":"m 288 750 l 288 0 l 93 0 l 93 750 l 288 750 z "},"ł":{"ha":386,"x_min":0,"x_max":350,"o":"m 272 614 l 350 669 l 350 560 l 272 504 l 272 0 l 78 0 l 78 408 l 0 353 l 0 463 l 78 518 l 78 1013 l 272 1013 l 272 614 z "},"ø":{"ha":849,"x_min":15,"x_max":831,"o":"m 175 49 l 75 -53 l 15 3 l 119 110 q 50 365 50 210 q 150 656 50 550 q 424 763 250 763 q 676 676 572 763 l 771 774 l 831 717 l 731 615 q 796 365 796 514 q 697 74 796 181 q 425 -32 597 -32 q 175 49 264 -32 m 585 467 l 306 183 q 425 125 356 125 q 551 192 501 125 q 601 361 601 258 q 585 467 601 417 m 264 256 l 544 542 q 421 607 490 607 q 294 540 343 607 q 244 369 244 474 q 264 256 244 306 z "},"œ":{"ha":1311,"x_min":32,"x_max":1278,"o":"m 1078 211 l 1269 211 q 1142 34 1236 100 q 922 -32 1047 -32 q 674 72 765 -32 q 403 -32 567 -32 q 131 74 229 -32 q 32 365 32 181 q 131 656 32 550 q 403 763 229 763 q 674 657 572 763 q 924 763 764 763 q 1125 705 1039 763 q 1249 544 1211 647 q 1278 347 1278 460 q 1276 314 1278 331 l 774 314 q 803 183 775 228 q 932 117 843 117 q 1024 143 983 117 q 1078 211 1064 169 m 403 606 q 275 539 324 606 q 226 365 226 472 q 275 192 226 258 q 403 125 324 125 q 530 191 481 125 q 579 363 579 257 q 531 540 579 474 q 403 606 483 606 m 776 443 l 1075 443 q 1043 551 1068 515 q 925 614 999 614 q 852 594 886 614 q 800 539 818 574 q 776 443 782 503 z "},"ß":{"ha":849,"x_min":93,"x_max":799,"o":"m 396 485 l 396 617 l 408 617 q 508 651 471 618 q 544 740 544 685 q 508 825 544 794 q 408 856 472 856 q 319 826 351 856 q 288 746 288 797 l 288 0 l 93 0 l 93 719 q 178 943 93 876 q 421 1013 265 1013 q 650 942 561 1013 q 739 760 739 871 q 618 571 739 618 q 728 515 682 558 q 799 328 799 446 q 715 73 799 169 q 496 -24 632 -24 q 396 -15 464 -24 l 396 140 q 414 142 404 142 l 442 143 q 559 192 514 144 q 604 314 604 240 q 553 439 604 393 q 414 485 503 485 l 396 485 z "},"Ä":{"ha":1003,"x_min":36,"x_max":976,"o":"m 696 204 l 317 204 l 249 0 l 36 0 l 396 1013 l 626 1013 l 976 0 l 763 0 l 696 204 m 639 378 l 507 774 l 375 378 l 639 378 m 453 1281 l 453 1111 l 300 1111 l 300 1281 l 453 1281 m 711 1281 l 711 1111 l 558 1111 l 558 1281 l 711 1281 z "},"Á":{"ha":1003,"x_min":36,"x_max":976,"o":"m 696 204 l 317 204 l 249 0 l 36 0 l 396 1013 l 626 1013 l 976 0 l 763 0 l 696 204 m 639 378 l 507 774 l 375 378 l 639 378 m 708 1300 l 533 1092 l 436 1092 l 533 1300 l 708 1300 z "},"À":{"ha":1003,"x_min":36,"x_max":976,"o":"m 696 204 l 317 204 l 249 0 l 36 0 l 396 1013 l 626 1013 l 976 0 l 763 0 l 696 204 m 639 378 l 507 774 l 375 378 l 639 378 m 307 1300 l 482 1300 l 579 1092 l 482 1092 l 307 1300 z "},"Â":{"ha":1003,"x_min":36,"x_max":976,"o":"m 696 204 l 317 204 l 249 0 l 36 0 l 396 1013 l 626 1013 l 976 0 l 763 0 l 696 204 m 639 378 l 507 774 l 375 378 l 639 378 m 435 1300 l 583 1300 l 726 1092 l 618 1092 l 504 1231 l 390 1092 l 285 1092 l 435 1300 z "},"Ă":{"ha":1003,"x_min":36,"x_max":976,"o":"m 696 204 l 317 204 l 249 0 l 36 0 l 396 1013 l 626 1013 l 976 0 l 763 0 l 696 204 m 639 378 l 507 774 l 375 378 l 639 378 m 685 1288 l 685 1272 q 632 1142 685 1194 q 501 1089 579 1089 q 371 1142 424 1089 q 318 1274 318 1194 l 318 1288 l 396 1288 q 503 1196 408 1196 q 573 1217 549 1196 q 607 1288 597 1239 l 685 1288 z "},"Ã":{"ha":1003,"x_min":36,"x_max":976,"o":"m 696 204 l 317 204 l 249 0 l 36 0 l 396 1013 l 626 1013 l 976 0 l 763 0 l 696 204 m 639 378 l 507 774 l 375 378 l 639 378 m 672 1289 l 760 1289 q 628 1113 750 1113 q 551 1129 593 1113 l 453 1165 q 411 1174 431 1174 q 374 1159 386 1174 q 356 1111 361 1144 l 268 1111 q 307 1238 272 1192 q 399 1283 342 1283 q 476 1265 428 1283 l 575 1231 q 622 1222 604 1222 q 672 1289 667 1222 z "},"Å":{"ha":1003,"x_min":36,"x_max":976,"o":"m 696 204 l 317 204 l 249 0 l 36 0 l 396 1013 l 626 1013 l 976 0 l 763 0 l 696 204 m 639 378 l 507 774 l 375 378 l 639 378 m 507 1318 q 594 1281 558 1318 q 631 1192 631 1244 q 594 1104 631 1140 q 506 1068 557 1068 q 417 1105 453 1068 q 381 1193 381 1142 q 417 1282 381 1246 q 507 1318 454 1318 m 507 1251 q 465 1234 482 1251 q 447 1193 447 1217 q 465 1152 447 1169 q 507 1135 482 1135 q 547 1152 531 1135 q 564 1193 564 1169 q 547 1234 564 1217 q 507 1251 531 1251 z "},"Ą":{"ha":1003,"x_min":36,"x_max":1004,"o":"m 696 204 l 317 204 l 249 0 l 36 0 l 396 1013 l 628 1013 l 976 0 q 862 -80 904 -32 q 819 -179 819 -128 q 925 -253 819 -253 q 1004 -246 963 -253 l 1004 -311 q 900 -324 954 -324 q 749 -289 803 -324 q 694 -192 694 -254 q 740 -80 694 -131 q 867 0 785 -29 l 763 0 l 696 204 m 640 378 l 508 774 l 375 378 l 640 378 z "},"Ç":{"ha":1003,"x_min":61,"x_max":951,"o":"m 526 -32 l 500 -87 q 558 -78 528 -78 q 635 -104 607 -78 q 664 -176 664 -131 q 617 -272 664 -239 q 485 -306 571 -306 q 293 -267 408 -306 l 319 -194 q 465 -236 415 -236 q 522 -219 499 -236 q 544 -179 544 -203 q 525 -144 544 -157 q 474 -131 506 -131 q 406 -147 440 -131 l 465 -32 q 317 8 369 -15 q 215 78 265 31 q 61 497 61 225 q 186 886 61 743 q 525 1029 311 1029 q 879 869 758 1029 q 947 669 938 792 l 749 669 q 703 778 732 742 q 532 851 644 851 q 339 757 408 851 q 269 494 269 663 q 337 236 269 329 q 525 143 404 143 q 681 196 622 143 q 749 346 739 249 l 951 346 q 830 73 943 174 q 526 -32 717 -28 z "},"Ć":{"ha":1003,"x_min":61,"x_max":951,"o":"m 947 669 l 749 669 q 703 778 732 742 q 532 851 644 851 q 339 757 408 851 q 269 494 269 663 q 337 236 269 329 q 525 143 404 143 q 681 196 622 143 q 749 346 739 249 l 951 346 q 825 70 942 172 q 519 -32 708 -32 q 185 110 308 -32 q 61 497 61 253 q 186 886 61 743 q 525 1029 311 1029 q 879 869 758 1029 q 947 669 938 792 m 708 1300 l 533 1092 l 436 1092 l 533 1300 l 708 1300 z "},"Č":{"ha":1003,"x_min":61,"x_max":951,"o":"m 947 669 l 749 669 q 703 778 732 742 q 532 851 644 851 q 339 757 408 851 q 269 494 269 663 q 337 236 269 329 q 525 143 404 143 q 681 196 622 143 q 749 346 739 249 l 951 346 q 825 70 942 172 q 519 -32 708 -32 q 185 110 308 -32 q 61 497 61 253 q 186 886 61 743 q 525 1029 311 1029 q 879 869 758 1029 q 947 669 938 792 m 593 1092 l 444 1092 l 301 1300 l 410 1300 l 524 1165 l 638 1300 l 743 1300 l 593 1092 z "},"Ď":{"ha":1003,"x_min":107,"x_max":946,"o":"m 107 0 l 107 1013 l 503 1013 q 695 985 619 1013 q 822 896 771 957 q 946 507 946 749 q 822 118 946 263 q 503 0 724 0 l 107 0 m 315 174 l 503 174 q 738 506 738 174 q 503 839 738 839 l 315 839 l 315 174 m 542 1092 l 393 1092 l 250 1300 l 358 1300 l 472 1165 l 586 1300 l 692 1300 l 542 1092 z "},"Ë":{"ha":926,"x_min":110,"x_max":867,"o":"m 318 436 l 318 174 l 867 174 l 867 0 l 110 0 l 110 1013 l 842 1013 l 842 839 l 318 839 l 318 610 l 803 610 l 803 436 l 318 436 m 426 1281 l 426 1111 l 274 1111 l 274 1281 l 426 1281 m 685 1281 l 685 1111 l 532 1111 l 532 1281 l 685 1281 z "},"É":{"ha":926,"x_min":110,"x_max":867,"o":"m 318 436 l 318 174 l 867 174 l 867 0 l 110 0 l 110 1013 l 842 1013 l 842 839 l 318 839 l 318 610 l 803 610 l 803 436 l 318 436 m 667 1300 l 492 1092 l 394 1092 l 492 1300 l 667 1300 z "},"È":{"ha":926,"x_min":110,"x_max":867,"o":"m 318 436 l 318 174 l 867 174 l 867 0 l 110 0 l 110 1013 l 842 1013 l 842 839 l 318 839 l 318 610 l 803 610 l 803 436 l 318 436 m 289 1300 l 464 1300 l 561 1092 l 464 1092 l 289 1300 z "},"Ê":{"ha":926,"x_min":110,"x_max":867,"o":"m 318 436 l 318 174 l 867 174 l 867 0 l 110 0 l 110 1013 l 842 1013 l 842 839 l 318 839 l 318 610 l 803 610 l 803 436 l 318 436 m 408 1300 l 557 1300 l 700 1092 l 592 1092 l 478 1231 l 364 1092 l 258 1092 l 408 1300 z "},"Ě":{"ha":926,"x_min":110,"x_max":867,"o":"m 318 436 l 318 174 l 867 174 l 867 0 l 110 0 l 110 1013 l 842 1013 l 842 839 l 318 839 l 318 610 l 803 610 l 803 436 l 318 436 m 550 1092 l 401 1092 l 258 1300 l 367 1300 l 481 1165 l 594 1300 l 700 1300 l 550 1092 z "},"Ė":{"ha":926,"x_min":110,"x_max":867,"o":"m 318 436 l 318 174 l 867 174 l 867 0 l 110 0 l 110 1013 l 842 1013 l 842 839 l 318 839 l 318 610 l 803 610 l 803 436 l 318 436 m 556 1281 l 556 1111 l 403 1111 l 403 1281 l 556 1281 z "},"Ę":{"ha":926,"x_min":110,"x_max":900,"o":"m 318 436 l 318 174 l 867 174 l 867 0 q 715 -179 715 -81 q 821 -253 715 -253 q 900 -246 858 -253 l 900 -311 q 797 -324 844 -324 q 644 -289 699 -324 q 590 -192 590 -254 q 764 0 590 -79 l 110 0 l 110 1013 l 842 1013 l 842 839 l 318 839 l 318 610 l 803 610 l 803 436 l 318 436 z "},"Ğ":{"ha":1081,"x_min":58,"x_max":988,"o":"m 988 544 l 988 -3 l 863 -3 l 838 131 q 707 7 779 46 q 532 -32 635 -32 q 192 118 326 -32 q 58 499 58 268 q 194 882 58 735 q 549 1029 331 1029 q 850 938 732 1029 q 988 689 968 846 l 792 689 q 729 790 768 757 q 550 851 660 851 q 342 758 418 851 q 267 501 267 665 q 348 246 267 346 q 556 146 429 146 q 763 243 683 146 q 813 371 806 293 l 582 371 l 582 544 l 988 544 m 736 1288 l 736 1272 q 683 1142 736 1194 q 553 1089 631 1089 q 422 1142 475 1089 q 369 1274 369 1194 l 369 1288 l 447 1288 q 554 1196 460 1196 q 624 1217 600 1196 q 658 1288 649 1239 l 736 1288 z "},"Ï":{"ha":386,"x_min":-12,"x_max":399,"o":"m 296 1013 l 296 0 l 88 0 l 88 1013 l 296 1013 m 140 1281 l 140 1111 l -12 1111 l -12 1281 l 140 1281 m 399 1281 l 399 1111 l 246 1111 l 246 1281 l 399 1281 z "},"Í":{"ha":386,"x_min":88,"x_max":403,"o":"m 296 1013 l 296 0 l 88 0 l 88 1013 l 296 1013 m 403 1300 l 228 1092 l 131 1092 l 228 1300 l 403 1300 z "},"Ì":{"ha":386,"x_min":-14,"x_max":296,"o":"m 296 1013 l 296 0 l 88 0 l 88 1013 l 296 1013 m -14 1300 l 161 1300 l 258 1092 l 161 1092 l -14 1300 z "},"Î":{"ha":386,"x_min":-26,"x_max":415,"o":"m 296 1013 l 296 0 l 88 0 l 88 1013 l 296 1013 m 124 1300 l 272 1300 l 415 1092 l 307 1092 l 193 1231 l 79 1092 l -26 1092 l 124 1300 z "},"İ":{"ha":386,"x_min":88,"x_max":296,"o":"m 296 1013 l 296 0 l 88 0 l 88 1013 l 296 1013 m 268 1281 l 268 1111 l 115 1111 l 115 1281 l 268 1281 z "},"Ĺ":{"ha":849,"x_min":111,"x_max":804,"o":"m 319 1013 l 319 174 l 804 174 l 804 0 l 111 0 l 111 1013 l 319 1013 m 414 1300 l 239 1092 l 142 1092 l 239 1300 l 414 1300 z "},"Ľ":{"ha":849,"x_min":111,"x_max":804,"o":"m 319 1013 l 319 174 l 804 174 l 804 0 l 111 0 l 111 1013 l 319 1013 m 458 1013 l 628 1013 l 628 869 q 580 728 628 785 q 458 669 532 672 l 458 733 q 551 857 554 751 l 458 857 l 458 1013 z "},"Ń":{"ha":1003,"x_min":94,"x_max":918,"o":"m 710 0 l 303 700 l 303 0 l 94 0 l 94 1013 l 308 1013 l 710 324 l 710 1013 l 918 1013 l 918 0 l 710 0 m 694 1300 l 519 1092 l 422 1092 l 519 1300 l 694 1300 z "},"Ň":{"ha":1003,"x_min":94,"x_max":918,"o":"m 710 0 l 303 700 l 303 0 l 94 0 l 94 1013 l 308 1013 l 710 324 l 710 1013 l 918 1013 l 918 0 l 710 0 m 579 1092 l 431 1092 l 288 1300 l 396 1300 l 510 1165 l 624 1300 l 729 1300 l 579 1092 z "},"Ñ":{"ha":1003,"x_min":94,"x_max":918,"o":"m 710 0 l 303 700 l 303 0 l 94 0 l 94 1013 l 308 1013 l 710 324 l 710 1013 l 918 1013 l 918 0 l 710 0 m 674 1289 l 761 1289 q 629 1113 751 1113 q 553 1129 594 1113 l 454 1165 q 413 1174 431 1174 q 375 1159 388 1174 q 357 1111 363 1144 l 269 1111 q 308 1238 274 1192 q 400 1283 343 1283 q 478 1265 429 1283 l 576 1231 q 624 1222 606 1222 q 674 1289 667 1222 z "},"Ö":{"ha":1081,"x_min":56,"x_max":1031,"o":"m 542 1029 q 889 889 758 1029 q 1031 492 1031 736 q 992 281 1031 385 q 889 108 954 178 q 543 -32 758 -32 q 197 108 328 -32 q 92 283 129 181 q 56 499 56 385 q 197 889 56 736 q 542 1029 326 1029 m 543 851 q 340 755 417 851 q 264 499 264 658 q 340 242 264 339 q 543 146 417 146 q 745 242 668 146 q 822 493 822 338 q 747 754 822 657 q 543 851 671 851 m 490 1281 l 490 1111 l 338 1111 l 338 1281 l 490 1281 m 749 1281 l 749 1111 l 596 1111 l 596 1281 l 749 1281 z "},"Ó":{"ha":1081,"x_min":56,"x_max":1031,"o":"m 542 1029 q 889 889 758 1029 q 1031 492 1031 736 q 992 281 1031 385 q 889 108 954 178 q 543 -32 758 -32 q 197 108 328 -32 q 92 283 129 181 q 56 499 56 385 q 197 889 56 736 q 542 1029 326 1029 m 543 851 q 340 755 417 851 q 264 499 264 658 q 340 242 264 339 q 543 146 417 146 q 745 242 668 146 q 822 493 822 338 q 747 754 822 657 q 543 851 671 851 m 736 1300 l 561 1092 l 464 1092 l 561 1300 l 736 1300 z "},"Ò":{"ha":1081,"x_min":56,"x_max":1031,"o":"m 542 1029 q 889 889 758 1029 q 1031 492 1031 736 q 992 281 1031 385 q 889 108 954 178 q 543 -32 758 -32 q 197 108 328 -32 q 92 283 129 181 q 56 499 56 385 q 197 889 56 736 q 542 1029 326 1029 m 543 851 q 340 755 417 851 q 264 499 264 658 q 340 242 264 339 q 543 146 417 146 q 745 242 668 146 q 822 493 822 338 q 747 754 822 657 q 543 851 671 851 m 353 1300 l 528 1300 l 625 1092 l 528 1092 l 353 1300 z "},"Ô":{"ha":1081,"x_min":56,"x_max":1031,"o":"m 542 1029 q 889 889 758 1029 q 1031 492 1031 736 q 992 281 1031 385 q 889 108 954 178 q 543 -32 758 -32 q 197 108 328 -32 q 92 283 129 181 q 56 499 56 385 q 197 889 56 736 q 542 1029 326 1029 m 543 851 q 340 755 417 851 q 264 499 264 658 q 340 242 264 339 q 543 146 417 146 q 745 242 668 146 q 822 493 822 338 q 747 754 822 657 q 543 851 671 851 m 472 1300 l 621 1300 l 764 1092 l 656 1092 l 542 1231 l 428 1092 l 322 1092 l 472 1300 z "},"Õ":{"ha":1081,"x_min":56,"x_max":1031,"o":"m 542 1029 q 889 889 758 1029 q 1031 492 1031 736 q 992 281 1031 385 q 889 108 954 178 q 543 -32 758 -32 q 197 108 328 -32 q 92 283 129 181 q 56 499 56 385 q 197 889 56 736 q 542 1029 326 1029 m 543 851 q 340 755 417 851 q 264 499 264 658 q 340 242 264 339 q 543 146 417 146 q 745 242 668 146 q 822 493 822 338 q 747 754 822 657 q 543 851 671 851 m 711 1289 l 799 1289 q 667 1113 789 1113 q 590 1129 632 1113 l 492 1165 q 450 1174 469 1174 q 413 1159 425 1174 q 394 1111 400 1144 l 307 1111 q 346 1238 311 1192 q 438 1283 381 1283 q 515 1265 467 1283 l 614 1231 q 661 1222 643 1222 q 711 1289 706 1222 z "},"Ő":{"ha":1081,"x_min":56,"x_max":1031,"o":"m 542 1029 q 889 889 758 1029 q 1031 492 1031 736 q 992 281 1031 385 q 889 108 954 178 q 543 -32 758 -32 q 197 108 328 -32 q 92 283 129 181 q 56 499 56 385 q 197 889 56 736 q 542 1029 326 1029 m 543 851 q 340 755 417 851 q 264 499 264 658 q 340 242 264 339 q 543 146 417 146 q 745 242 668 146 q 822 493 822 338 q 747 754 822 657 q 543 851 671 851 m 640 1300 l 465 1096 l 368 1096 l 465 1300 l 640 1300 m 901 1300 l 726 1096 l 629 1096 l 726 1300 l 901 1300 z "},"Ŕ":{"ha":1003,"x_min":111,"x_max":940,"o":"m 319 401 l 319 0 l 111 0 l 111 1013 l 654 1013 q 850 943 782 1013 q 926 739 926 864 q 756 489 926 556 q 811 465 793 474 q 848 435 829 456 q 873 397 867 414 q 885 336 879 381 q 893 249 892 292 q 896 121 894 206 q 940 38 896 63 l 940 0 l 717 0 q 691 69 697 36 q 685 174 685 103 q 686 240 685 214 q 688 281 688 258 q 657 373 688 344 q 558 401 626 401 l 319 401 m 319 575 l 571 575 q 681 601 650 575 q 718 710 718 635 q 681 813 718 781 q 571 839 649 839 l 319 839 l 319 575 m 686 1300 l 511 1092 l 414 1092 l 511 1300 l 686 1300 z "},"Ř":{"ha":1003,"x_min":111,"x_max":940,"o":"m 319 401 l 319 0 l 111 0 l 111 1013 l 654 1013 q 850 943 782 1013 q 926 739 926 864 q 756 489 926 556 q 811 465 793 474 q 848 435 829 456 q 873 397 867 414 q 885 336 879 381 q 893 249 892 292 q 896 121 894 206 q 940 38 896 63 l 940 0 l 717 0 q 691 69 697 36 q 685 174 685 103 q 686 240 685 214 q 688 281 688 258 q 657 373 688 344 q 558 401 626 401 l 319 401 m 319 575 l 571 575 q 681 601 650 575 q 718 710 718 635 q 681 813 718 781 q 571 839 649 839 l 319 839 l 319 575 m 569 1092 l 421 1092 l 278 1300 l 386 1300 l 500 1165 l 614 1300 l 719 1300 l 569 1092 z "},"Ś":{"ha":926,"x_min":44,"x_max":879,"o":"m 843 704 l 649 704 q 436 863 638 863 q 308 828 356 863 q 261 738 261 794 q 301 655 261 682 q 453 606 342 628 l 611 575 q 815 481 751 547 q 879 296 879 415 q 769 55 879 142 q 464 -32 660 -32 q 162 54 269 -32 q 44 303 54 140 l 247 303 q 311 178 253 221 q 475 135 369 135 q 624 171 569 135 q 679 271 679 207 q 636 365 679 332 q 489 418 593 399 l 347 446 q 128 538 193 475 q 63 718 63 600 q 163 948 63 867 q 446 1029 264 1029 q 772 914 668 1029 q 843 704 843 835 m 647 1300 l 472 1092 l 375 1092 l 472 1300 l 647 1300 z "},"Š":{"ha":926,"x_min":44,"x_max":879,"o":"m 843 704 l 649 704 q 436 863 638 863 q 308 828 356 863 q 261 738 261 794 q 301 655 261 682 q 453 606 342 628 l 611 575 q 815 481 751 547 q 879 296 879 415 q 769 55 879 142 q 464 -32 660 -32 q 162 54 269 -32 q 44 303 54 140 l 247 303 q 311 178 253 221 q 475 135 369 135 q 624 171 569 135 q 679 271 679 207 q 636 365 679 332 q 489 418 593 399 l 347 446 q 128 538 193 475 q 63 718 63 600 q 163 948 63 867 q 446 1029 264 1029 q 772 914 668 1029 q 843 704 843 835 m 528 1092 l 379 1092 l 236 1300 l 344 1300 l 458 1165 l 572 1300 l 678 1300 l 528 1092 z "},"Ş":{"ha":926,"x_min":44,"x_max":879,"o":"m 472 -32 l 449 -86 q 506 -78 481 -78 q 584 -104 556 -78 q 613 -176 613 -131 q 566 -272 613 -239 q 433 -306 519 -306 q 242 -267 354 -306 l 268 -194 q 414 -236 363 -236 q 470 -219 447 -236 q 493 -179 493 -203 q 474 -144 493 -157 q 422 -131 454 -131 q 354 -147 389 -131 l 413 -32 q 145 68 235 -14 q 44 303 56 150 l 247 303 q 311 178 253 221 q 475 135 369 135 q 624 171 569 135 q 679 271 679 207 q 636 365 679 332 q 489 418 593 399 l 347 446 q 128 538 193 475 q 63 718 63 600 q 163 948 63 867 q 446 1029 264 1029 q 772 914 668 1029 q 843 704 843 835 l 649 704 q 436 863 638 863 q 308 828 356 863 q 261 738 261 794 q 301 655 261 682 q 453 606 342 628 l 611 575 q 815 481 751 547 q 879 297 879 415 q 472 -32 879 -12 z "},"Ť":{"ha":849,"x_min":19,"x_max":831,"o":"m 535 839 l 535 0 l 326 0 l 326 839 l 19 839 l 19 1013 l 831 1013 l 831 839 l 535 839 m 501 1092 l 353 1092 l 210 1300 l 318 1300 l 432 1165 l 546 1300 l 651 1300 l 501 1092 z "},"Ü":{"ha":1003,"x_min":106,"x_max":908,"o":"m 700 1013 l 908 1013 l 908 326 q 810 71 908 160 q 507 -32 696 -32 q 204 71 318 -32 q 106 326 106 160 l 106 1013 l 314 1013 l 314 326 q 507 146 314 146 q 700 326 700 146 l 700 1013 m 454 1281 l 454 1111 l 301 1111 l 301 1281 l 454 1281 m 713 1281 l 713 1111 l 560 1111 l 560 1281 l 713 1281 z "},"Ú":{"ha":1003,"x_min":106,"x_max":908,"o":"m 700 1013 l 908 1013 l 908 326 q 810 71 908 160 q 507 -32 696 -32 q 204 71 318 -32 q 106 326 106 160 l 106 1013 l 314 1013 l 314 326 q 507 146 314 146 q 700 326 700 146 l 700 1013 m 700 1300 l 525 1092 l 428 1092 l 525 1300 l 700 1300 z "},"Ù":{"ha":1003,"x_min":106,"x_max":908,"o":"m 700 1013 l 908 1013 l 908 326 q 810 71 908 160 q 507 -32 696 -32 q 204 71 318 -32 q 106 326 106 160 l 106 1013 l 314 1013 l 314 326 q 507 146 314 146 q 700 326 700 146 l 700 1013 m 317 1300 l 492 1300 l 589 1092 l 492 1092 l 317 1300 z "},"Û":{"ha":1003,"x_min":106,"x_max":908,"o":"m 700 1013 l 908 1013 l 908 326 q 810 71 908 160 q 507 -32 696 -32 q 204 71 318 -32 q 106 326 106 160 l 106 1013 l 314 1013 l 314 326 q 507 146 314 146 q 700 326 700 146 l 700 1013 m 436 1300 l 585 1300 l 728 1092 l 619 1092 l 506 1231 l 392 1092 l 286 1092 l 436 1300 z "},"Ů":{"ha":1003,"x_min":106,"x_max":908,"o":"m 700 1013 l 908 1013 l 908 326 q 810 71 908 160 q 507 -32 696 -32 q 204 71 318 -32 q 106 326 106 160 l 106 1013 l 314 1013 l 314 326 q 507 146 314 146 q 700 326 700 146 l 700 1013 m 508 1318 q 596 1281 560 1318 q 632 1192 632 1244 q 595 1104 632 1140 q 507 1068 558 1068 q 419 1105 456 1068 q 382 1193 382 1142 q 419 1282 382 1246 q 508 1318 456 1318 m 508 1251 q 466 1234 483 1251 q 449 1193 449 1217 q 466 1152 449 1169 q 508 1135 483 1135 q 549 1152 532 1135 q 565 1193 565 1169 q 549 1234 565 1217 q 508 1251 532 1251 z "},"Ű":{"ha":1003,"x_min":106,"x_max":908,"o":"m 700 1013 l 908 1013 l 908 326 q 810 71 908 160 q 507 -32 696 -32 q 204 71 318 -32 q 106 326 106 160 l 106 1013 l 314 1013 l 314 326 q 507 146 314 146 q 700 326 700 146 l 700 1013 m 601 1300 l 426 1096 l 329 1096 l 426 1300 l 601 1300 m 863 1300 l 688 1096 l 590 1096 l 688 1300 l 863 1300 z "},"Ý":{"ha":926,"x_min":38,"x_max":903,"o":"m 582 375 l 582 0 l 374 0 l 374 375 l 38 1013 l 269 1013 l 476 565 l 669 1013 l 903 1013 l 582 375 m 667 1300 l 492 1092 l 394 1092 l 492 1300 l 667 1300 z "},"Ź":{"ha":849,"x_min":42,"x_max":803,"o":"m 803 1013 l 803 839 l 286 174 l 803 174 l 803 0 l 42 0 l 42 174 l 560 839 l 42 839 l 42 1013 l 803 1013 m 613 1300 l 438 1092 l 340 1092 l 438 1300 l 613 1300 z "},"Ž":{"ha":849,"x_min":42,"x_max":803,"o":"m 803 1013 l 803 839 l 286 174 l 803 174 l 803 0 l 42 0 l 42 174 l 560 839 l 42 839 l 42 1013 l 803 1013 m 497 1092 l 349 1092 l 206 1300 l 314 1300 l 428 1165 l 542 1300 l 647 1300 l 497 1092 z "},"Ż":{"ha":849,"x_min":42,"x_max":803,"o":"m 803 1013 l 803 839 l 286 174 l 803 174 l 803 0 l 42 0 l 42 174 l 560 839 l 42 839 l 42 1013 l 803 1013 m 503 1281 l 503 1111 l 350 1111 l 350 1281 l 503 1281 z "},"Ā":{"ha":1003,"x_min":36,"x_max":976,"o":"m 696 204 l 317 204 l 249 0 l 36 0 l 396 1013 l 626 1013 l 976 0 l 763 0 l 696 204 m 639 378 l 507 774 l 375 378 l 639 378 m 714 1247 l 714 1138 l 299 1138 l 299 1247 l 714 1247 z "},"Ţ":{"ha":849,"x_min":19,"x_max":831,"o":"m 535 839 l 535 0 l 326 0 l 326 839 l 19 839 l 19 1013 l 831 1013 l 831 839 l 535 839 m 350 -83 l 519 -83 l 519 -226 q 472 -367 519 -311 q 350 -426 424 -424 l 350 -362 q 443 -239 446 -344 l 350 -239 l 350 -83 z "},"Ÿ":{"ha":926,"x_min":38,"x_max":903,"o":"m 582 375 l 582 0 l 374 0 l 374 375 l 38 1013 l 269 1013 l 476 565 l 669 1013 l 903 1013 l 582 375 m 422 1281 l 422 1111 l 269 1111 l 269 1281 l 422 1281 m 681 1281 l 681 1111 l 528 1111 l 528 1281 l 681 1281 z "},"Ē":{"ha":926,"x_min":110,"x_max":867,"o":"m 318 436 l 318 174 l 867 174 l 867 0 l 110 0 l 110 1013 l 842 1013 l 842 839 l 318 839 l 318 610 l 803 610 l 803 436 l 318 436 m 686 1247 l 686 1138 l 271 1138 l 271 1247 l 686 1247 z "},"Ī":{"ha":386,"x_min":3,"x_max":381,"o":"m 296 1013 l 296 0 l 88 0 l 88 1013 l 296 1013 m 381 1247 l 381 1138 l 3 1138 l 3 1247 l 381 1247 z "},"Į":{"ha":386,"x_min":47,"x_max":329,"o":"m 296 1013 l 296 0 q 172 -182 172 -89 q 197 -233 172 -212 q 260 -253 221 -253 q 329 -246 292 -253 l 329 -311 q 232 -324 275 -324 q 97 -287 146 -324 q 47 -189 47 -251 q 204 0 47 -83 l 88 0 l 88 1013 l 296 1013 z "},"Ķ":{"ha":1003,"x_min":103,"x_max":996,"o":"m 311 339 l 311 0 l 103 0 l 103 1013 l 311 1013 l 311 568 l 707 1013 l 953 1013 l 549 576 l 996 0 l 747 0 l 415 447 l 311 339 m 438 -83 l 607 -83 l 607 -226 q 559 -367 607 -311 q 438 -426 511 -424 l 438 -362 q 531 -239 533 -344 l 438 -239 l 438 -83 z "},"Ļ":{"ha":849,"x_min":111,"x_max":804,"o":"m 319 1013 l 319 174 l 804 174 l 804 0 l 111 0 l 111 1013 l 319 1013 m 374 -83 l 543 -83 l 543 -226 q 495 -367 543 -311 q 374 -426 447 -424 l 374 -362 q 467 -239 469 -344 l 374 -239 l 374 -83 z "},"Ņ":{"ha":1003,"x_min":94,"x_max":918,"o":"m 710 0 l 303 700 l 303 0 l 94 0 l 94 1013 l 308 1013 l 710 324 l 710 1013 l 918 1013 l 918 0 l 710 0 m 417 -83 l 586 -83 l 586 -226 q 538 -367 586 -311 q 417 -426 490 -424 l 417 -362 q 510 -239 513 -344 l 417 -239 l 417 -83 z "},"Ō":{"ha":1081,"x_min":56,"x_max":1031,"o":"m 542 1029 q 889 889 758 1029 q 1031 492 1031 736 q 992 281 1031 385 q 889 108 954 178 q 543 -32 758 -32 q 197 108 328 -32 q 92 283 129 181 q 56 499 56 385 q 197 889 56 736 q 542 1029 326 1029 m 543 851 q 340 755 417 851 q 264 499 264 658 q 340 242 264 339 q 543 146 417 146 q 745 242 668 146 q 822 493 822 338 q 747 754 822 657 q 543 851 671 851 m 751 1247 l 751 1138 l 336 1138 l 336 1247 l 751 1247 z "},"Ŗ":{"ha":1003,"x_min":111,"x_max":940,"o":"m 319 401 l 319 0 l 111 0 l 111 1013 l 654 1013 q 850 943 782 1013 q 926 739 926 864 q 756 489 926 556 q 811 465 793 474 q 848 435 829 456 q 873 397 867 414 q 885 336 879 381 q 893 249 892 292 q 896 121 894 206 q 940 38 896 63 l 940 0 l 717 0 q 691 69 697 36 q 685 174 685 103 q 686 240 685 214 q 688 281 688 258 q 657 373 688 344 q 558 401 626 401 l 319 401 m 319 575 l 571 575 q 681 601 650 575 q 718 710 718 635 q 681 813 718 781 q 571 839 649 839 l 319 839 l 319 575 m 442 -83 l 611 -83 l 611 -226 q 563 -367 611 -311 q 442 -426 515 -424 l 442 -362 q 535 -239 538 -344 l 442 -239 l 442 -83 z "},"Ģ":{"ha":1081,"x_min":58,"x_max":988,"o":"m 988 544 l 988 -3 l 863 -3 l 838 131 q 707 7 779 46 q 532 -32 635 -32 q 192 118 326 -32 q 58 499 58 268 q 194 882 58 735 q 549 1029 331 1029 q 850 938 732 1029 q 988 689 968 846 l 792 689 q 729 790 768 757 q 550 851 660 851 q 342 758 418 851 q 267 501 267 665 q 348 246 267 346 q 556 146 429 146 q 763 243 683 146 q 813 371 806 293 l 582 371 l 582 544 l 988 544 m 461 -83 l 631 -83 l 631 -226 q 583 -367 631 -311 q 461 -426 535 -424 l 461 -362 q 554 -239 557 -344 l 461 -239 l 461 -83 z "},"Ū":{"ha":1003,"x_min":106,"x_max":908,"o":"m 700 1013 l 908 1013 l 908 326 q 810 71 908 160 q 507 -32 696 -32 q 204 71 318 -32 q 106 326 106 160 l 106 1013 l 314 1013 l 314 326 q 507 146 314 146 q 700 326 700 146 l 700 1013 m 715 1247 l 715 1138 l 300 1138 l 300 1247 l 715 1247 z "},"Ų":{"ha":1003,"x_min":106,"x_max":908,"o":"m 829 -246 l 829 -311 q 718 -325 775 -325 q 613 -308 663 -325 q 518 -192 518 -278 q 551 -101 518 -142 q 663 -10 583 -60 q 511 -32 581 -32 q 204 71 318 -32 q 106 326 106 160 l 106 1013 l 314 1013 l 314 326 q 507 146 314 146 q 700 326 700 146 l 700 1013 l 908 1013 l 908 326 q 836 96 908 190 q 732 -18 813 67 q 642 -183 642 -117 q 749 -254 642 -254 q 829 -246 789 -254 z "},"ä":{"ha":772,"x_min":39,"x_max":728,"o":"m 728 24 l 728 0 l 517 0 q 494 75 494 28 q 267 -32 392 -32 q 92 39 160 -32 q 39 193 39 96 q 260 429 39 392 l 338 443 q 460 472 433 458 q 493 531 493 490 q 381 606 493 606 q 279 583 308 606 q 243 503 250 561 l 56 503 q 376 763 74 763 q 683 532 683 763 l 683 115 q 728 24 683 64 m 493 301 l 493 354 q 411 331 467 342 l 344 318 q 258 282 283 306 q 233 215 233 258 q 262 149 233 174 q 339 125 290 125 q 453 171 413 125 q 493 301 493 217 m 325 1032 l 325 863 l 172 863 l 172 1032 l 325 1032 m 583 1032 l 583 863 l 431 863 l 431 1032 l 583 1032 z "},"á":{"ha":772,"x_min":39,"x_max":728,"o":"m 728 24 l 728 0 l 517 0 q 494 75 494 28 q 267 -32 392 -32 q 92 39 160 -32 q 39 193 39 96 q 260 429 39 392 l 338 443 q 460 472 433 458 q 493 531 493 490 q 381 606 493 606 q 279 583 308 606 q 243 503 250 561 l 56 503 q 376 763 74 763 q 683 532 683 763 l 683 115 q 728 24 683 64 m 493 301 l 493 354 q 411 331 467 342 l 344 318 q 258 282 283 306 q 233 215 233 258 q 262 149 233 174 q 339 125 290 125 q 453 171 413 125 q 493 301 493 217 m 571 1051 l 396 843 l 299 843 l 396 1051 l 571 1051 z "},"à":{"ha":772,"x_min":39,"x_max":728,"o":"m 728 24 l 728 0 l 517 0 q 494 75 494 28 q 267 -32 392 -32 q 92 39 160 -32 q 39 193 39 96 q 260 429 39 392 l 338 443 q 460 472 433 458 q 493 531 493 490 q 381 606 493 606 q 279 583 308 606 q 243 503 250 561 l 56 503 q 376 763 74 763 q 683 532 683 763 l 683 115 q 728 24 683 64 m 493 301 l 493 354 q 411 331 467 342 l 344 318 q 258 282 283 306 q 233 215 233 258 q 262 149 233 174 q 339 125 290 125 q 453 171 413 125 q 493 301 493 217 m 183 1051 l 358 1051 l 456 843 l 358 843 l 183 1051 z "},"â":{"ha":772,"x_min":39,"x_max":728,"o":"m 728 24 l 728 0 l 517 0 q 494 75 494 28 q 267 -32 392 -32 q 92 39 160 -32 q 39 193 39 96 q 260 429 39 392 l 338 443 q 460 472 433 458 q 493 531 493 490 q 381 606 493 606 q 279 583 308 606 q 243 503 250 561 l 56 503 q 376 763 74 763 q 683 532 683 763 l 683 115 q 728 24 683 64 m 493 301 l 493 354 q 411 331 467 342 l 344 318 q 258 282 283 306 q 233 215 233 258 q 262 149 233 174 q 339 125 290 125 q 453 171 413 125 q 493 301 493 217 m 307 1051 l 456 1051 l 599 843 l 490 843 l 376 982 l 263 843 l 157 843 l 307 1051 z "},"ă":{"ha":772,"x_min":39,"x_max":728,"o":"m 728 24 l 728 0 l 517 0 q 494 75 494 28 q 267 -32 392 -32 q 92 39 160 -32 q 39 193 39 96 q 260 429 39 392 l 338 443 q 460 472 433 458 q 493 531 493 490 q 381 606 493 606 q 279 583 308 606 q 243 503 250 561 l 56 503 q 376 763 74 763 q 683 532 683 763 l 683 115 q 728 24 683 64 m 493 301 l 493 354 q 411 331 467 342 l 344 318 q 258 282 283 306 q 233 215 233 258 q 262 149 233 174 q 339 125 290 125 q 453 171 413 125 q 493 301 493 217 m 565 1039 l 565 1024 q 513 893 565 946 q 382 840 460 840 q 251 893 304 840 q 199 1025 199 946 l 199 1039 l 276 1039 q 383 947 289 947 q 488 1039 472 947 l 565 1039 z "},"ã":{"ha":772,"x_min":39,"x_max":728,"o":"m 728 24 l 728 0 l 517 0 q 494 75 494 28 q 267 -32 392 -32 q 92 39 160 -32 q 39 193 39 96 q 260 429 39 392 l 338 443 q 460 472 433 458 q 493 531 493 490 q 381 606 493 606 q 279 583 308 606 q 243 503 250 561 l 56 503 q 376 763 74 763 q 683 532 683 763 l 683 115 q 728 24 683 64 m 493 301 l 493 354 q 411 331 467 342 l 344 318 q 258 282 283 306 q 233 215 233 258 q 262 149 233 174 q 339 125 290 125 q 453 171 413 125 q 493 301 493 217 m 536 1040 l 624 1040 q 492 864 615 864 q 415 881 458 864 l 317 917 q 275 925 292 925 q 238 910 250 925 q 219 863 225 896 l 132 863 q 171 989 136 943 q 263 1035 206 1035 q 340 1017 290 1035 l 439 982 q 486 974 458 974 q 536 1040 531 974 z "},"å":{"ha":772,"x_min":39,"x_max":728,"o":"m 728 24 l 728 0 l 517 0 q 494 75 494 28 q 267 -32 392 -32 q 92 39 160 -32 q 39 193 39 96 q 260 429 39 392 l 338 443 q 460 472 433 458 q 493 531 493 490 q 381 606 493 606 q 279 583 308 606 q 243 503 250 561 l 56 503 q 376 763 74 763 q 683 532 683 763 l 683 115 q 728 24 683 64 m 493 301 l 493 354 q 411 331 467 342 l 344 318 q 258 282 283 306 q 233 215 233 258 q 262 149 233 174 q 339 125 290 125 q 453 171 413 125 q 493 301 493 217 m 379 1069 q 467 1033 431 1069 q 503 943 503 996 q 466 856 503 892 q 378 819 429 819 q 289 856 325 819 q 253 944 253 892 q 290 1033 253 997 q 379 1069 326 1069 m 379 1003 q 337 985 354 1003 q 319 944 319 968 q 337 903 319 921 q 379 886 354 886 q 419 903 403 886 q 436 944 436 921 q 419 985 436 968 q 379 1003 403 1003 z "},"ą":{"ha":772,"x_min":39,"x_max":761,"o":"m 728 24 l 728 0 q 576 -179 576 -81 q 682 -253 576 -253 q 761 -246 717 -253 l 761 -311 q 657 -324 711 -324 q 506 -289 560 -324 q 451 -193 451 -254 q 497 -80 451 -132 q 624 0 543 -28 l 517 0 q 494 75 494 28 q 267 -32 392 -32 q 92 39 160 -32 q 39 193 39 96 q 260 429 39 392 l 338 443 q 460 472 433 458 q 493 531 493 490 q 381 606 493 606 q 279 583 308 606 q 243 503 250 561 l 56 503 q 376 763 74 763 q 683 532 683 763 l 683 115 q 728 24 683 64 m 493 301 l 493 354 q 411 331 467 342 l 344 318 q 258 282 283 306 q 233 215 233 258 q 262 149 233 174 q 339 125 290 125 q 453 171 413 125 q 493 301 493 217 z "},"ć":{"ha":772,"x_min":47,"x_max":725,"o":"m 725 469 l 539 469 q 491 574 522 543 q 400 606 460 606 q 279 542 314 606 q 242 360 242 471 q 284 188 242 250 q 400 125 326 125 q 489 156 457 125 q 539 260 521 188 l 725 260 q 623 47 711 125 q 399 -32 535 -32 q 140 71 232 -32 q 47 360 47 174 q 140 657 47 551 q 401 763 233 763 q 628 685 542 763 q 725 469 715 607 m 593 1051 l 418 843 l 321 843 l 418 1051 l 593 1051 z "},"č":{"ha":772,"x_min":47,"x_max":725,"o":"m 725 469 l 539 469 q 491 574 522 543 q 400 606 460 606 q 279 542 314 606 q 242 360 242 471 q 284 188 242 250 q 400 125 326 125 q 489 156 457 125 q 539 260 521 188 l 725 260 q 623 47 711 125 q 399 -32 535 -32 q 140 71 232 -32 q 47 360 47 174 q 140 657 47 551 q 401 763 233 763 q 628 685 542 763 q 725 469 715 607 m 474 843 l 325 843 l 182 1051 l 290 1051 l 404 917 l 518 1051 l 624 1051 l 474 843 z "},"ç":{"ha":772,"x_min":47,"x_max":725,"o":"m 404 -32 l 381 -87 q 438 -78 406 -78 q 516 -104 488 -78 q 544 -176 544 -131 q 498 -272 544 -239 q 365 -306 451 -306 q 174 -267 285 -306 l 200 -194 q 344 -236 293 -236 q 401 -219 378 -236 q 425 -179 425 -203 q 406 -144 425 -157 q 354 -131 386 -131 q 285 -147 319 -131 l 344 -29 q 124 90 200 -10 q 47 360 47 190 q 140 657 47 551 q 401 763 233 763 q 628 685 542 763 q 725 469 715 607 l 539 469 q 491 574 522 543 q 400 606 460 606 q 279 542 314 606 q 242 361 242 471 q 294 171 242 235 q 401 125 331 125 q 489 156 457 125 q 539 260 521 188 l 725 260 q 624 48 714 129 q 404 -32 535 -33 z "},"ď":{"ha":982,"x_min":40,"x_max":1000,"o":"m 563 0 l 563 76 q 356 -32 490 -32 q 224 1 288 -32 q 121 88 160 33 q 40 364 40 204 q 131 648 40 533 q 356 763 221 763 q 563 653 492 763 l 563 1013 l 757 1013 l 757 0 l 563 0 m 399 600 q 281 534 326 600 q 235 364 235 468 q 281 196 235 261 q 399 131 326 131 q 517 194 471 131 q 563 361 563 258 q 517 534 563 468 q 399 600 472 600 m 831 1013 l 1000 1013 l 1000 869 q 952 728 1000 785 q 831 669 904 672 l 831 733 q 924 857 926 751 l 831 857 l 831 1013 z "},"ë":{"ha":772,"x_min":31,"x_max":729,"o":"m 728 314 l 225 314 q 253 182 229 219 q 381 117 296 117 q 529 211 492 117 l 721 211 q 594 34 689 100 q 374 -32 500 -32 q 122 72 214 -32 q 31 356 31 175 q 124 653 31 544 q 378 763 217 763 q 577 705 492 763 q 700 544 663 647 q 729 347 729 460 q 728 314 729 331 m 228 443 l 526 443 q 496 551 521 513 q 375 614 451 614 q 228 443 247 614 m 336 1032 l 336 863 l 183 863 l 183 1032 l 336 1032 m 594 1032 l 594 863 l 442 863 l 442 1032 l 594 1032 z "},"é":{"ha":772,"x_min":31,"x_max":729,"o":"m 728 314 l 225 314 q 253 182 229 219 q 381 117 296 117 q 529 211 492 117 l 721 211 q 594 34 689 100 q 374 -32 500 -32 q 122 72 214 -32 q 31 356 31 175 q 124 653 31 544 q 378 763 217 763 q 577 705 492 763 q 700 544 663 647 q 729 347 729 460 q 728 314 729 331 m 228 443 l 526 443 q 496 551 521 513 q 375 614 451 614 q 228 443 247 614 m 582 1051 l 407 843 l 310 843 l 407 1051 l 582 1051 z "},"è":{"ha":772,"x_min":31,"x_max":729,"o":"m 728 314 l 225 314 q 253 182 229 219 q 381 117 296 117 q 529 211 492 117 l 721 211 q 594 34 689 100 q 374 -32 500 -32 q 122 72 214 -32 q 31 356 31 175 q 124 653 31 544 q 378 763 217 763 q 577 705 492 763 q 700 544 663 647 q 729 347 729 460 q 728 314 729 331 m 228 443 l 526 443 q 496 551 521 513 q 375 614 451 614 q 228 443 247 614 m 185 1051 l 360 1051 l 457 843 l 360 843 l 185 1051 z "},"ê":{"ha":772,"x_min":31,"x_max":729,"o":"m 728 314 l 225 314 q 253 182 229 219 q 381 117 296 117 q 529 211 492 117 l 721 211 q 594 34 689 100 q 374 -32 500 -32 q 122 72 214 -32 q 31 356 31 175 q 124 653 31 544 q 378 763 217 763 q 577 705 492 763 q 700 544 663 647 q 729 347 729 460 q 728 314 729 331 m 228 443 l 526 443 q 496 551 521 513 q 375 614 451 614 q 228 443 247 614 m 318 1051 l 467 1051 l 610 843 l 501 843 l 388 982 l 274 843 l 168 843 l 318 1051 z "},"ě":{"ha":772,"x_min":31,"x_max":729,"o":"m 728 314 l 225 314 q 253 182 229 219 q 381 117 296 117 q 529 211 492 117 l 721 211 q 594 34 689 100 q 374 -32 500 -32 q 122 72 214 -32 q 31 356 31 175 q 124 653 31 544 q 378 763 217 763 q 577 705 492 763 q 700 544 663 647 q 729 347 729 460 q 728 314 729 331 m 228 443 l 526 443 q 496 551 521 513 q 375 614 451 614 q 228 443 247 614 m 460 843 l 311 843 l 168 1051 l 276 1051 l 390 917 l 504 1051 l 610 1051 l 460 843 z "},"ė":{"ha":772,"x_min":31,"x_max":729,"o":"m 728 314 l 225 314 q 253 182 229 219 q 381 117 296 117 q 529 211 492 117 l 721 211 q 594 34 689 100 q 374 -32 500 -32 q 122 72 214 -32 q 31 356 31 175 q 124 653 31 544 q 378 763 217 763 q 577 705 492 763 q 700 544 663 647 q 729 347 729 460 q 728 314 729 331 m 228 443 l 526 443 q 496 551 521 513 q 375 614 451 614 q 228 443 247 614 m 465 1032 l 465 863 l 313 863 l 313 1032 l 465 1032 z "},"ę":{"ha":772,"x_min":29,"x_max":729,"o":"m 664 -246 l 664 -311 q 554 -325 610 -325 q 408 -289 461 -325 q 354 -190 354 -253 q 383 -105 354 -143 q 486 -15 413 -67 q 372 -33 421 -33 q 122 71 214 -33 q 29 356 29 175 q 122 653 29 544 q 376 763 215 763 q 576 704 490 763 q 700 544 663 646 q 729 347 729 461 q 728 314 729 331 l 225 314 q 253 181 229 219 q 381 115 294 115 q 528 211 490 115 l 719 211 q 685 126 706 158 q 603 29 664 94 q 506 -93 532 -49 q 479 -182 479 -137 q 585 -254 479 -254 q 664 -246 625 -254 m 226 443 l 526 443 q 494 551 521 514 q 375 614 451 614 q 226 443 244 614 z "},"ğ":{"ha":849,"x_min":47,"x_max":751,"o":"m 567 750 l 751 750 l 751 -25 q 658 -230 751 -157 q 394 -303 564 -303 q 136 -231 225 -303 q 63 -90 64 -171 l 264 -90 q 401 -178 288 -178 q 521 -135 475 -178 q 567 -25 567 -93 l 567 76 q 466 -8 513 15 q 354 -32 419 -32 q 131 75 215 -32 q 47 357 47 182 q 136 647 47 531 q 358 763 225 763 q 567 635 483 763 l 567 750 m 400 600 q 285 533 329 600 q 242 360 242 467 q 285 194 242 258 q 397 131 328 131 q 522 194 474 131 q 569 360 569 258 q 522 532 569 464 q 400 600 474 600 m 608 1039 l 608 1024 q 556 893 608 946 q 425 840 503 840 q 294 893 347 840 q 242 1025 242 946 l 242 1039 l 319 1039 q 426 947 332 947 q 531 1039 515 947 l 608 1039 z "},"ï":{"ha":386,"x_min":-12,"x_max":399,"o":"m 288 750 l 288 0 l 93 0 l 93 750 l 288 750 m 140 1032 l 140 863 l -12 863 l -12 1032 l 140 1032 m 399 1032 l 399 863 l 246 863 l 246 1032 l 399 1032 z "},"í":{"ha":386,"x_min":93,"x_max":403,"o":"m 288 750 l 288 0 l 93 0 l 93 750 l 288 750 m 403 1051 l 228 843 l 131 843 l 228 1051 l 403 1051 z "},"ì":{"ha":386,"x_min":-14,"x_max":288,"o":"m 288 750 l 288 0 l 93 0 l 93 750 l 288 750 m -14 1051 l 161 1051 l 258 843 l 161 843 l -14 1051 z "},"î":{"ha":386,"x_min":-26,"x_max":415,"o":"m 288 750 l 288 0 l 93 0 l 93 750 l 288 750 m 124 1051 l 272 1051 l 415 843 l 307 843 l 193 982 l 79 843 l -26 843 l 124 1051 z "},"ĺ":{"ha":386,"x_min":93,"x_max":386,"o":"m 288 1013 l 288 0 l 93 0 l 93 1013 l 288 1013 m 386 1300 l 211 1092 l 114 1092 l 211 1300 l 386 1300 z "},"ľ":{"ha":513,"x_min":93,"x_max":531,"o":"m 288 1013 l 288 0 l 93 0 l 93 1013 l 288 1013 m 361 1013 l 531 1013 l 531 869 q 483 728 531 785 q 361 669 435 672 l 361 733 q 454 857 457 751 l 361 857 l 361 1013 z "},"ń":{"ha":849,"x_min":88,"x_max":758,"o":"m 88 750 l 282 750 l 282 642 q 507 763 363 763 q 692 694 626 763 q 758 503 758 626 l 758 0 l 564 0 l 564 463 q 439 597 564 597 q 325 557 368 597 q 282 450 282 517 l 282 0 l 88 0 l 88 750 m 610 1051 l 435 843 l 338 843 l 435 1051 l 610 1051 z "},"ň":{"ha":849,"x_min":88,"x_max":758,"o":"m 88 750 l 282 750 l 282 642 q 507 763 363 763 q 692 694 626 763 q 758 503 758 626 l 758 0 l 564 0 l 564 463 q 439 597 564 597 q 325 557 368 597 q 282 450 282 517 l 282 0 l 88 0 l 88 750 m 488 843 l 339 843 l 196 1051 l 304 1051 l 418 917 l 532 1051 l 638 1051 l 488 843 z "},"ñ":{"ha":849,"x_min":88,"x_max":758,"o":"m 88 750 l 282 750 l 282 642 q 507 763 363 763 q 692 694 626 763 q 758 503 758 626 l 758 0 l 564 0 l 564 463 q 439 597 564 597 q 325 557 368 597 q 282 450 282 517 l 282 0 l 88 0 l 88 750 m 576 1040 l 664 1040 q 532 864 656 864 q 456 881 500 864 l 357 917 q 315 925 332 925 q 278 910 290 925 q 260 863 265 896 l 172 863 q 211 989 176 943 q 303 1035 246 1035 q 381 1017 331 1035 l 479 982 q 526 974 499 974 q 576 1040 569 974 z "},"ö":{"ha":849,"x_min":49,"x_max":790,"o":"m 418 763 q 692 656 594 763 q 790 360 790 550 q 690 74 790 179 q 419 -32 590 -32 q 147 74 246 -32 q 49 365 49 181 q 147 656 49 550 q 418 763 246 763 m 419 606 q 292 539 340 606 q 243 365 243 472 q 292 192 243 258 q 419 125 340 125 q 547 191 497 125 q 596 363 596 257 q 548 540 596 474 q 419 606 500 606 m 367 1032 l 367 863 l 214 863 l 214 1032 l 367 1032 m 625 1032 l 625 863 l 472 863 l 472 1032 l 625 1032 z "},"ó":{"ha":849,"x_min":49,"x_max":790,"o":"m 418 763 q 692 656 594 763 q 790 360 790 550 q 690 74 790 179 q 419 -32 590 -32 q 147 74 246 -32 q 49 365 49 181 q 147 656 49 550 q 418 763 246 763 m 419 606 q 292 539 340 606 q 243 365 243 472 q 292 192 243 258 q 419 125 340 125 q 547 191 497 125 q 596 363 596 257 q 548 540 596 474 q 419 606 500 606 m 613 1051 l 438 843 l 340 843 l 438 1051 l 613 1051 z "},"ò":{"ha":849,"x_min":49,"x_max":790,"o":"m 418 763 q 692 656 594 763 q 790 360 790 550 q 690 74 790 179 q 419 -32 590 -32 q 147 74 246 -32 q 49 365 49 181 q 147 656 49 550 q 418 763 246 763 m 419 606 q 292 539 340 606 q 243 365 243 472 q 292 192 243 258 q 419 125 340 125 q 547 191 497 125 q 596 363 596 257 q 548 540 596 474 q 419 606 500 606 m 229 1051 l 404 1051 l 501 843 l 404 843 l 229 1051 z "},"ô":{"ha":849,"x_min":49,"x_max":790,"o":"m 418 763 q 692 656 594 763 q 790 360 790 550 q 690 74 790 179 q 419 -32 590 -32 q 147 74 246 -32 q 49 365 49 181 q 147 656 49 550 q 418 763 246 763 m 419 606 q 292 539 340 606 q 243 365 243 472 q 292 192 243 258 q 419 125 340 125 q 547 191 497 125 q 596 363 596 257 q 548 540 596 474 q 419 606 500 606 m 349 1051 l 497 1051 l 640 843 l 532 843 l 418 982 l 304 843 l 199 843 l 349 1051 z "},"õ":{"ha":849,"x_min":49,"x_max":790,"o":"m 418 763 q 692 656 594 763 q 790 360 790 550 q 690 74 790 179 q 419 -32 590 -32 q 147 74 246 -32 q 49 365 49 181 q 147 656 49 550 q 418 763 246 763 m 419 606 q 292 539 340 606 q 243 365 243 472 q 292 192 243 258 q 419 125 340 125 q 547 191 497 125 q 596 363 596 257 q 548 540 596 474 q 419 606 500 606 m 582 1040 l 669 1040 q 538 864 661 864 q 461 881 506 864 l 363 917 q 321 925 338 925 q 283 910 296 925 q 265 863 271 896 l 178 863 q 217 989 182 943 q 308 1035 251 1035 q 386 1017 336 1035 l 485 982 q 532 974 504 974 q 582 1040 575 974 z "},"ő":{"ha":849,"x_min":49,"x_max":790,"o":"m 418 763 q 692 656 594 763 q 790 360 790 550 q 690 74 790 179 q 419 -32 590 -32 q 147 74 246 -32 q 49 365 49 181 q 147 656 49 550 q 418 763 246 763 m 419 606 q 292 539 340 606 q 243 365 243 472 q 292 192 243 258 q 419 125 340 125 q 547 191 497 125 q 596 363 596 257 q 548 540 596 474 q 419 606 500 606 m 515 1051 l 340 847 l 243 847 l 340 1051 l 515 1051 m 776 1051 l 601 847 l 504 847 l 601 1051 l 776 1051 z "},"ŕ":{"ha":540,"x_min":88,"x_max":514,"o":"m 88 750 l 282 750 l 282 603 q 368 721 313 679 q 490 763 424 763 q 514 761 503 763 l 514 564 q 453 569 479 569 q 282 399 282 569 l 282 0 l 88 0 l 88 750 m 483 1051 l 308 843 l 211 843 l 308 1051 l 483 1051 z "},"ś":{"ha":772,"x_min":40,"x_max":722,"o":"m 701 508 l 514 508 q 374 610 513 610 q 292 591 322 610 q 261 540 261 572 q 275 506 261 518 q 329 482 289 494 l 575 411 q 722 222 722 368 q 633 35 722 106 q 394 -32 550 -32 q 40 218 49 -32 l 231 218 q 268 147 242 167 q 383 121 308 121 q 490 140 451 121 q 528 194 528 160 q 513 231 528 217 q 463 256 499 244 l 231 328 q 108 390 142 357 q 67 513 67 436 q 149 695 67 628 q 375 763 232 763 q 613 695 526 763 q 701 508 699 628 m 582 1051 l 407 843 l 310 843 l 407 1051 l 582 1051 z "},"š":{"ha":772,"x_min":40,"x_max":722,"o":"m 701 508 l 514 508 q 374 610 513 610 q 292 591 322 610 q 261 540 261 572 q 275 506 261 518 q 329 482 289 494 l 575 411 q 722 222 722 368 q 633 35 722 106 q 394 -32 550 -32 q 40 218 49 -32 l 231 218 q 268 147 242 167 q 383 121 308 121 q 490 140 451 121 q 528 194 528 160 q 513 231 528 217 q 463 256 499 244 l 231 328 q 108 390 142 357 q 67 513 67 436 q 149 695 67 628 q 375 763 232 763 q 613 695 526 763 q 701 508 699 628 m 461 843 l 313 843 l 169 1051 l 278 1051 l 392 917 l 506 1051 l 611 1051 l 461 843 z "},"ș":{"ha":772,"x_min":40,"x_max":722,"o":"m 701 508 l 514 508 q 374 610 513 610 q 292 591 322 610 q 261 540 261 572 q 275 506 261 518 q 329 482 289 494 l 575 411 q 722 222 722 368 q 633 35 722 106 q 394 -32 550 -32 q 40 218 49 -32 l 231 218 q 268 147 242 167 q 383 121 308 121 q 490 140 451 121 q 528 194 528 160 q 513 231 528 217 q 463 256 499 244 l 231 328 q 108 390 142 357 q 67 513 67 436 q 149 695 67 628 q 375 763 232 763 q 613 695 526 763 q 701 508 699 628 m 315 -83 l 485 -83 l 485 -226 q 437 -367 485 -311 q 315 -426 389 -424 l 315 -362 q 408 -239 411 -344 l 315 -239 l 315 -83 z "},"ť":{"ha":535,"x_min":19,"x_max":553,"o":"m 418 735 l 418 606 l 310 606 l 310 197 q 322 131 310 147 q 374 115 335 115 q 418 119 389 115 l 418 -17 q 306 -32 371 -32 q 115 144 115 -32 l 115 606 l 19 606 l 19 735 l 115 735 l 115 936 l 310 936 l 310 735 l 418 735 m 383 1151 l 553 1151 l 553 1008 q 505 867 553 924 q 383 808 457 811 l 383 872 q 476 996 479 890 l 383 996 l 383 1151 z "},"ü":{"ha":849,"x_min":81,"x_max":751,"o":"m 751 0 l 557 0 l 557 89 q 332 -32 476 -32 q 147 36 213 -32 q 81 228 81 104 l 81 750 l 275 750 l 275 268 q 400 133 275 133 q 514 174 471 133 q 557 281 557 214 l 557 750 l 751 750 l 751 0 m 363 1032 l 363 863 l 210 863 l 210 1032 l 363 1032 m 621 1032 l 621 863 l 468 863 l 468 1032 l 621 1032 z "},"ú":{"ha":849,"x_min":81,"x_max":751,"o":"m 751 0 l 557 0 l 557 89 q 332 -32 476 -32 q 147 36 213 -32 q 81 228 81 104 l 81 750 l 275 750 l 275 268 q 400 133 275 133 q 514 174 471 133 q 557 281 557 214 l 557 750 l 751 750 l 751 0 m 608 1051 l 433 843 l 336 843 l 433 1051 l 608 1051 z "},"ù":{"ha":849,"x_min":81,"x_max":751,"o":"m 751 0 l 557 0 l 557 89 q 332 -32 476 -32 q 147 36 213 -32 q 81 228 81 104 l 81 750 l 275 750 l 275 268 q 400 133 275 133 q 514 174 471 133 q 557 281 557 214 l 557 750 l 751 750 l 751 0 m 226 1051 l 401 1051 l 499 843 l 401 843 l 226 1051 z "},"û":{"ha":849,"x_min":81,"x_max":751,"o":"m 751 0 l 557 0 l 557 89 q 332 -32 476 -32 q 147 36 213 -32 q 81 228 81 104 l 81 750 l 275 750 l 275 268 q 400 133 275 133 q 514 174 471 133 q 557 281 557 214 l 557 750 l 751 750 l 751 0 m 344 1051 l 493 1051 l 636 843 l 528 843 l 414 982 l 300 843 l 194 843 l 344 1051 z "},"ů":{"ha":849,"x_min":81,"x_max":751,"o":"m 751 0 l 557 0 l 557 89 q 332 -32 476 -32 q 147 36 213 -32 q 81 228 81 104 l 81 750 l 275 750 l 275 268 q 400 133 275 133 q 514 174 471 133 q 557 281 557 214 l 557 750 l 751 750 l 751 0 m 417 1069 q 504 1033 468 1069 q 540 943 540 996 q 503 856 540 892 q 415 819 467 819 q 327 856 364 819 q 290 944 290 892 q 327 1033 290 997 q 417 1069 364 1069 m 417 1003 q 374 985 392 1003 q 357 944 357 968 q 374 903 357 921 q 417 886 392 886 q 457 903 440 886 q 474 944 474 921 q 457 985 474 968 q 417 1003 440 1003 z "},"ű":{"ha":849,"x_min":81,"x_max":776,"o":"m 751 0 l 557 0 l 557 89 q 332 -32 476 -32 q 147 36 213 -32 q 81 228 81 104 l 81 750 l 275 750 l 275 268 q 400 133 275 133 q 514 174 471 133 q 557 281 557 214 l 557 750 l 751 750 l 751 0 m 515 1051 l 340 847 l 243 847 l 340 1051 l 515 1051 m 776 1051 l 601 847 l 504 847 l 601 1051 l 776 1051 z "},"ý":{"ha":772,"x_min":13,"x_max":747,"o":"m 547 750 l 747 750 l 439 -137 q 392 -234 415 -204 q 329 -281 369 -264 q 189 -304 272 -304 q 119 -299 158 -304 l 119 -153 q 171 -161 150 -161 q 257 -125 222 -161 q 292 -36 292 -89 l 292 -32 l 292 -31 l 13 750 l 226 750 l 392 204 l 547 750 m 572 1051 l 397 843 l 300 843 l 397 1051 l 572 1051 z "},"ź":{"ha":694,"x_min":29,"x_max":650,"o":"m 638 750 l 638 593 l 269 157 l 650 157 l 650 0 l 29 0 l 29 157 l 400 593 l 54 593 l 54 750 l 638 750 m 538 1051 l 363 843 l 265 843 l 363 1051 l 538 1051 z "},"ž":{"ha":694,"x_min":29,"x_max":650,"o":"m 638 750 l 638 593 l 269 157 l 650 157 l 650 0 l 29 0 l 29 157 l 400 593 l 54 593 l 54 750 l 638 750 m 419 843 l 271 843 l 128 1051 l 236 1051 l 350 917 l 464 1051 l 569 1051 l 419 843 z "},"ż":{"ha":694,"x_min":29,"x_max":650,"o":"m 638 750 l 638 593 l 269 157 l 650 157 l 650 0 l 29 0 l 29 157 l 400 593 l 54 593 l 54 750 l 638 750 m 425 1032 l 425 863 l 272 863 l 272 1032 l 425 1032 z "},"ÿ":{"ha":772,"x_min":13,"x_max":747,"o":"m 547 750 l 747 750 l 439 -137 q 392 -234 415 -204 q 329 -281 369 -264 q 189 -304 272 -304 q 119 -299 158 -304 l 119 -153 q 171 -161 150 -161 q 257 -125 222 -161 q 292 -36 292 -89 l 292 -32 l 292 -31 l 13 750 l 226 750 l 392 204 l 547 750 m 326 1032 l 326 863 l 174 863 l 174 1032 l 326 1032 m 585 1032 l 585 863 l 432 863 l 432 1032 l 585 1032 z "},"ţ":{"ha":463,"x_min":19,"x_max":418,"o":"m 418 735 l 418 606 l 310 606 l 310 197 q 322 131 310 147 q 374 115 335 115 q 418 119 389 115 l 418 -17 q 306 -32 371 -32 q 115 144 115 -32 l 115 606 l 19 606 l 19 735 l 115 735 l 115 936 l 310 936 l 310 735 l 418 735 m 176 -83 l 346 -83 l 346 -226 q 298 -367 346 -311 q 176 -426 250 -424 l 176 -362 q 269 -239 272 -344 l 176 -239 l 176 -83 z "},"ā":{"ha":772,"x_min":39,"x_max":728,"o":"m 728 24 l 728 0 l 517 0 q 494 75 494 28 q 267 -32 392 -32 q 92 39 160 -32 q 39 193 39 96 q 260 429 39 392 l 338 443 q 460 472 433 458 q 493 531 493 490 q 381 606 493 606 q 279 583 308 606 q 243 503 250 561 l 56 503 q 376 763 74 763 q 683 532 683 763 l 683 115 q 728 24 683 64 m 493 301 l 493 354 q 411 331 467 342 l 344 318 q 258 282 283 306 q 233 215 233 258 q 262 149 233 174 q 339 125 290 125 q 453 171 413 125 q 493 301 493 217 m 586 999 l 586 889 l 171 889 l 171 999 l 586 999 z "},"ē":{"ha":772,"x_min":31,"x_max":729,"o":"m 728 314 l 225 314 q 253 182 229 219 q 381 117 296 117 q 529 211 492 117 l 721 211 q 594 34 689 100 q 374 -32 500 -32 q 122 72 214 -32 q 31 356 31 175 q 124 653 31 544 q 378 763 217 763 q 577 705 492 763 q 700 544 663 647 q 729 347 729 460 q 728 314 729 331 m 228 443 l 526 443 q 496 551 521 513 q 375 614 451 614 q 228 443 247 614 m 597 999 l 597 889 l 182 889 l 182 999 l 597 999 z "},"ī":{"ha":386,"x_min":10,"x_max":369,"o":"m 288 750 l 288 0 l 93 0 l 93 750 l 288 750 m 369 999 l 369 889 l 10 889 l 10 999 l 369 999 z "},"ķ":{"ha":772,"x_min":82,"x_max":761,"o":"m 276 458 l 522 750 l 743 750 l 488 467 l 761 0 l 533 0 l 354 331 l 276 246 l 276 0 l 82 0 l 82 1013 l 276 1013 l 276 458 m 318 -83 l 488 -83 l 488 -226 q 440 -367 488 -311 q 318 -426 392 -424 l 318 -362 q 411 -239 414 -344 l 318 -239 l 318 -83 z "},"ļ":{"ha":386,"x_min":93,"x_max":288,"o":"m 288 1013 l 288 0 l 93 0 l 93 1013 l 288 1013 m 108 -83 l 278 -83 l 278 -226 q 230 -367 278 -311 q 108 -426 182 -424 l 108 -362 q 201 -239 204 -344 l 108 -239 l 108 -83 z "},"ņ":{"ha":849,"x_min":88,"x_max":758,"o":"m 88 750 l 282 750 l 282 642 q 507 763 363 763 q 692 694 626 763 q 758 503 758 626 l 758 0 l 564 0 l 564 463 q 439 597 564 597 q 325 557 368 597 q 282 450 282 517 l 282 0 l 88 0 l 88 750 m 339 -83 l 508 -83 l 508 -226 q 460 -367 508 -311 q 339 -426 413 -424 l 339 -362 q 432 -239 435 -344 l 339 -239 l 339 -83 z "},"ō":{"ha":849,"x_min":49,"x_max":790,"o":"m 418 763 q 692 656 594 763 q 790 360 790 550 q 690 74 790 179 q 419 -32 590 -32 q 147 74 246 -32 q 49 365 49 181 q 147 656 49 550 q 418 763 246 763 m 419 606 q 292 539 340 606 q 243 365 243 472 q 292 192 243 258 q 419 125 340 125 q 547 191 497 125 q 596 363 596 257 q 548 540 596 474 q 419 606 500 606 m 628 999 l 628 889 l 213 889 l 213 999 l 628 999 z "},"ŗ":{"ha":540,"x_min":88,"x_max":514,"o":"m 88 750 l 282 750 l 282 603 q 368 721 313 679 q 490 763 424 763 q 514 761 503 763 l 514 564 q 453 569 479 569 q 282 399 282 569 l 282 0 l 88 0 l 88 750 m 103 -83 l 272 -83 l 272 -226 q 224 -367 272 -311 q 103 -426 176 -424 l 103 -362 q 196 -239 199 -344 l 103 -239 l 103 -83 z "},"ū":{"ha":849,"x_min":81,"x_max":751,"o":"m 751 0 l 557 0 l 557 89 q 332 -32 476 -32 q 147 36 213 -32 q 81 228 81 104 l 81 750 l 275 750 l 275 268 q 400 133 275 133 q 514 174 471 133 q 557 281 557 214 l 557 750 l 751 750 l 751 0 m 624 999 l 624 889 l 208 889 l 208 999 l 624 999 z "},"ų":{"ha":849,"x_min":81,"x_max":783,"o":"m 646 0 l 557 0 l 557 89 q 332 -32 476 -32 q 147 36 213 -32 q 81 228 81 104 l 81 750 l 275 750 l 275 268 q 400 133 275 133 q 514 174 471 133 q 557 281 557 214 l 557 750 l 751 750 l 751 0 q 597 -179 597 -78 q 703 -253 597 -253 q 783 -246 739 -253 l 783 -311 q 679 -324 733 -324 q 526 -289 581 -324 q 472 -192 472 -254 q 502 -102 472 -146 q 582 -29 532 -58 q 646 0 601 -17 z "},"ř":{"ha":540,"x_min":75,"x_max":517,"o":"m 88 750 l 282 750 l 282 603 q 368 721 313 679 q 490 763 424 763 q 514 761 503 763 l 514 564 q 453 569 479 569 q 282 399 282 569 l 282 0 l 88 0 l 88 750 m 367 843 l 218 843 l 75 1051 l 183 1051 l 297 917 l 411 1051 l 517 1051 l 367 843 z "},"ş":{"ha":772,"x_min":40,"x_max":722,"o":"m 393 -32 l 367 -87 q 425 -78 396 -78 q 502 -104 474 -78 q 531 -176 531 -131 q 485 -272 531 -239 q 353 -306 439 -306 q 160 -267 275 -306 l 186 -194 q 332 -236 282 -236 q 388 -219 365 -236 q 411 -179 411 -203 q 392 -144 411 -157 q 340 -131 372 -131 q 272 -147 307 -131 l 332 -31 q 115 46 183 -12 q 40 218 46 104 l 231 218 q 268 147 242 167 q 383 121 308 121 q 490 140 451 121 q 528 194 528 160 q 513 231 528 217 q 463 256 499 244 l 231 328 q 108 390 142 357 q 67 513 67 436 q 149 695 67 628 q 375 763 232 763 q 613 695 526 763 q 701 508 699 628 l 514 508 q 374 610 513 610 q 292 591 322 610 q 261 540 261 572 q 275 506 261 518 q 329 482 289 494 l 575 411 q 722 222 722 368 q 638 39 722 110 q 418 -32 553 -32 l 393 -32 z "},"ģ":{"ha":849,"x_min":47,"x_max":751,"o":"m 567 750 l 751 750 l 751 -25 q 658 -230 751 -157 q 394 -303 564 -303 q 136 -231 225 -303 q 63 -90 64 -171 l 264 -90 q 401 -178 288 -178 q 521 -135 475 -178 q 567 -25 567 -93 l 567 76 q 466 -8 513 15 q 354 -32 419 -32 q 131 75 215 -32 q 47 357 47 182 q 136 647 47 531 q 358 763 225 763 q 567 635 483 763 l 567 750 m 400 600 q 285 533 329 600 q 242 360 242 467 q 285 194 242 258 q 397 131 328 131 q 522 194 474 131 q 569 360 569 258 q 522 532 569 464 q 400 600 474 600 m 507 842 l 338 842 l 338 985 q 385 1126 338 1069 q 507 1185 433 1182 l 507 1121 q 414 997 411 1103 l 507 997 l 507 842 z "},"į":{"ha":386,"x_min":47,"x_max":321,"o":"m 288 750 l 288 0 q 172 -178 172 -81 q 203 -237 172 -219 q 260 -253 229 -253 q 321 -246 281 -253 l 321 -311 q 233 -324 265 -324 q 97 -287 147 -324 q 47 -189 47 -251 q 200 0 47 -90 l 93 0 l 93 750 l 288 750 m 288 1013 l 288 839 l 93 839 l 93 1013 l 288 1013 z "},"Ș":{"ha":926,"x_min":44,"x_max":879,"o":"m 843 704 l 649 704 q 436 863 638 863 q 308 828 356 863 q 261 738 261 794 q 301 655 261 682 q 453 606 342 628 l 611 575 q 815 481 751 547 q 879 296 879 415 q 769 55 879 142 q 464 -32 660 -32 q 162 54 269 -32 q 44 303 54 140 l 247 303 q 311 178 253 221 q 475 135 369 135 q 624 171 569 135 q 679 271 679 207 q 636 365 679 332 q 489 418 593 399 l 347 446 q 128 538 193 475 q 63 718 63 600 q 163 948 63 867 q 446 1029 264 1029 q 772 914 668 1029 q 843 704 843 835 m 392 -83 l 561 -83 l 561 -226 q 513 -367 561 -311 q 392 -426 465 -424 l 392 -362 q 485 -239 488 -344 l 392 -239 l 392 -83 z "},"Ð":{"ha":1003,"x_min":0,"x_max":946,"o":"m 107 471 l 0 471 l 0 582 l 107 582 l 107 1013 l 503 1013 q 697 985 622 1013 q 824 896 772 957 q 913 721 881 824 q 946 507 946 618 q 913 292 946 394 q 824 118 881 190 q 698 28 774 56 q 503 0 622 0 l 107 0 l 107 471 m 315 471 l 315 174 l 503 174 q 682 249 631 174 q 746 506 746 339 q 682 764 746 674 q 503 839 631 839 l 315 839 l 315 582 l 524 582 l 524 471 l 315 471 z "},"Đ":{"ha":1003,"x_min":0,"x_max":946,"o":"m 107 471 l 0 471 l 0 582 l 107 582 l 107 1013 l 503 1013 q 697 985 622 1013 q 824 896 772 957 q 913 721 881 824 q 946 507 946 618 q 913 292 946 394 q 824 118 881 190 q 698 28 774 56 q 503 0 622 0 l 107 0 l 107 471 m 315 471 l 315 174 l 503 174 q 682 249 631 174 q 746 506 746 339 q 682 764 746 674 q 503 839 631 839 l 315 839 l 315 582 l 524 582 l 524 471 l 315 471 z "},"Þ":{"ha":926,"x_min":106,"x_max":879,"o":"m 314 194 l 314 0 l 106 0 l 106 1013 l 314 1013 l 314 846 l 553 846 q 793 768 714 846 q 879 531 879 683 q 797 285 879 375 q 574 194 714 194 l 314 194 m 314 368 l 508 368 q 671 519 671 368 q 631 635 671 597 q 508 672 592 672 l 314 672 l 314 368 z "},"đ":{"ha":849,"x_min":40,"x_max":840,"o":"m 563 828 l 378 828 l 378 921 l 563 921 l 563 1013 l 757 1013 l 757 921 l 840 921 l 840 828 l 757 828 l 757 0 l 563 0 l 563 76 q 356 -32 490 -32 q 131 82 221 -32 q 40 364 40 196 q 131 648 40 533 q 356 763 221 763 q 563 653 492 763 l 563 828 m 399 600 q 281 534 326 600 q 235 364 235 468 q 281 196 235 261 q 399 131 326 131 q 517 194 471 131 q 563 361 563 258 q 517 534 563 468 q 399 600 472 600 z "},"ð":{"ha":849,"x_min":49,"x_max":790,"o":"m 600 986 l 483 917 q 715 678 640 810 q 790 374 790 546 q 692 75 790 182 q 419 -32 594 -32 q 147 74 246 -32 q 49 368 49 181 q 206 690 49 597 q 381 742 289 742 q 499 715 431 742 q 367 849 443 804 l 260 785 l 201 836 l 299 897 q 174 964 246 929 l 267 1029 q 388 971 315 1011 q 408 961 390 968 l 529 1033 l 600 986 m 419 596 q 292 531 340 596 q 244 361 244 467 q 292 190 244 254 q 419 125 340 125 q 547 189 499 125 q 594 357 594 253 q 547 531 594 467 q 419 596 500 596 z "},"þ":{"ha":849,"x_min":81,"x_max":797,"o":"m 275 1013 l 275 639 q 483 763 344 763 q 708 649 618 763 q 797 364 797 536 q 708 81 797 194 q 483 -32 618 -32 q 275 89 344 -32 l 275 -303 l 81 -303 l 81 1013 l 275 1013 m 558 534 q 535 567 558 534 q 439 600 513 600 q 320 535 365 600 q 275 364 275 469 q 320 195 275 260 q 439 131 365 131 q 557 195 511 131 q 603 361 603 260 q 558 534 603 468 z "},"€":{"ha":772,"x_min":8,"x_max":758,"o":"m 42 442 l 97 442 q 94 490 94 461 q 96 536 94 519 l 8 536 l 42 631 l 108 631 q 251 907 147 808 q 506 1006 356 1006 q 631 986 578 1006 q 758 911 683 967 l 696 732 q 493 825 579 825 q 311 631 363 825 l 660 631 l 626 536 l 293 536 q 289 479 289 503 q 292 442 289 456 l 593 442 l 558 347 l 307 347 q 383 201 335 253 q 493 150 431 150 q 574 164 535 150 q 696 222 614 178 l 696 15 q 485 -32 553 -32 q 324 10 403 -32 q 197 122 244 53 q 108 347 135 214 l 8 347 l 42 442 z "},"¹":{"ha":488,"x_min":56,"x_max":336,"o":"m 204 796 l 56 796 l 56 881 q 247 985 218 881 l 336 985 l 336 394 l 204 394 l 204 796 z "},"²":{"ha":488,"x_min":22,"x_max":456,"o":"m 453 507 l 453 394 l 22 394 q 56 528 25 479 q 167 629 86 578 q 297 728 269 697 q 324 806 324 758 q 301 871 324 847 q 239 894 279 894 q 177 869 199 894 q 156 796 156 843 q 158 774 156 793 l 31 774 q 29 799 29 785 q 85 946 29 894 q 246 997 142 997 q 401 949 347 997 q 456 811 456 901 q 426 707 456 749 q 314 608 397 665 q 232 549 244 560 q 193 507 219 540 l 453 507 z "},"³":{"ha":488,"x_min":21,"x_max":457,"o":"m 186 654 l 186 740 l 201 740 q 306 821 306 740 q 285 876 306 856 q 232 896 265 896 q 163 857 179 896 q 153 793 153 838 l 31 793 q 69 929 35 885 q 236 997 125 997 q 383 953 328 997 q 438 835 438 908 q 365 711 438 756 q 457 568 457 667 q 397 428 457 481 q 236 376 336 376 q 78 428 135 376 q 21 575 22 481 l 149 575 q 239 483 154 483 q 301 507 276 483 q 325 567 325 531 q 208 654 325 651 l 186 654 z "},"°":{"ha":842,"x_min":210,"x_max":631,"o":"m 421 953 q 569 891 507 953 q 631 743 631 829 q 569 593 631 654 q 418 532 507 532 q 272 594 333 532 q 210 743 210 657 q 272 891 210 829 q 421 953 333 953 m 421 865 q 333 829 369 865 q 297 742 297 793 q 333 656 297 693 q 418 619 369 619 q 507 656 471 619 q 543 743 543 692 q 507 829 543 793 q 421 865 471 865 z "},"−":{"ha":811,"x_min":56,"x_max":756,"o":"m 756 404 l 756 239 l 56 239 l 56 404 l 756 404 z "},"×":{"ha":811,"x_min":110,"x_max":701,"o":"m 585 617 l 701 500 l 522 321 l 700 142 l 583 25 l 406 204 l 228 26 l 111 143 l 289 321 l 110 499 l 226 617 l 406 438 l 585 617 z "},"÷":{"ha":811,"x_min":69,"x_max":742,"o":"m 742 404 l 742 239 l 69 239 l 69 404 l 742 404 m 319 658 l 492 658 l 492 488 l 319 488 l 319 658 m 319 156 l 492 156 l 492 -15 l 319 -15 l 319 156 z "},"™":{"ha":1389,"x_min":99,"x_max":1290,"o":"m 421 904 l 421 379 l 289 379 l 289 904 l 99 904 l 99 1013 l 606 1013 l 606 904 l 421 904 m 1049 379 l 918 379 l 800 864 l 800 379 l 674 379 l 674 1013 l 864 1013 l 983 526 l 1100 1013 l 1290 1013 l 1290 379 l 1164 379 l 1164 864 l 1049 379 z "},"±":{"ha":811,"x_min":78,"x_max":732,"o":"m 732 143 l 732 -22 l 78 -22 l 78 143 l 732 143 m 732 600 l 732 435 l 488 435 l 488 190 l 322 190 l 322 435 l 78 435 l 78 600 l 322 600 l 322 844 l 488 844 l 488 600 l 732 600 z "},"½":{"ha":1207,"x_min":56,"x_max":1175,"o":"m 204 796 l 56 796 l 56 881 q 247 985 218 881 l 336 985 l 336 394 l 204 394 l 204 796 m 815 993 l 936 993 l 349 -28 l 228 -28 l 815 993 m 1172 113 l 1172 0 l 742 0 q 775 134 744 85 q 886 235 806 183 q 1016 333 989 303 q 1043 411 1043 364 q 1021 476 1043 453 q 958 500 999 500 q 897 474 918 500 q 875 401 875 449 q 878 379 875 399 l 750 379 q 749 404 749 390 q 805 551 749 500 q 965 603 861 603 q 1121 555 1067 603 q 1175 417 1175 507 q 1146 313 1175 354 q 1033 214 1117 271 q 951 154 969 169 q 913 113 939 146 l 1172 113 z "},"¼":{"ha":1207,"x_min":56,"x_max":1181,"o":"m 204 796 l 56 796 l 56 881 q 247 985 218 881 l 336 985 l 336 394 l 204 394 l 204 796 m 824 993 l 944 993 l 357 -28 l 236 -28 l 824 993 m 1181 233 l 1181 129 l 1117 129 l 1117 0 l 985 0 l 985 129 l 736 129 l 736 232 l 965 590 l 1117 590 l 1117 233 l 1181 233 m 985 233 l 985 461 l 838 233 l 985 233 z "},"¾":{"ha":1207,"x_min":21,"x_max":1181,"o":"m 186 654 l 186 740 l 201 740 q 306 821 306 740 q 285 876 306 856 q 232 896 265 896 q 163 857 179 896 q 153 793 153 838 l 31 793 q 69 929 35 885 q 236 997 125 997 q 383 953 328 997 q 438 835 438 908 q 365 711 438 756 q 457 568 457 667 q 397 428 457 481 q 236 376 336 376 q 78 428 135 376 q 21 575 22 481 l 149 575 q 239 483 154 483 q 301 507 276 483 q 325 567 325 531 q 208 654 325 651 l 186 654 m 868 993 l 989 993 l 401 -28 l 281 -28 l 868 993 m 1181 233 l 1181 129 l 1117 129 l 1117 0 l 985 0 l 985 129 l 736 129 l 736 232 l 965 590 l 1117 590 l 1117 233 l 1181 233 m 985 233 l 985 461 l 838 233 l 985 233 z "},"©":{"ha":1024,"x_min":-19,"x_max":1043,"o":"m 767 599 l 642 599 q 513 707 619 707 q 397 651 439 707 q 354 499 354 596 q 395 347 354 401 q 508 293 436 293 q 642 413 631 293 l 769 413 q 693 240 764 303 q 506 178 622 178 q 302 265 378 178 q 226 500 226 353 q 303 735 226 649 q 510 822 379 822 q 725 725 651 822 q 767 599 761 676 m 137 876 q 215 954 137 876 q 513 1032 293 1032 q 888 876 732 1032 q 1043 501 1043 721 q 887 124 1043 279 q 506 -31 731 -31 q 135 126 290 -31 q -19 501 -19 283 q 137 876 -19 721 m 511 932 q 213 806 338 932 q 89 501 89 679 q 213 197 89 325 q 507 69 336 69 q 810 195 686 69 q 935 501 935 321 q 810 806 935 679 q 511 932 686 932 z "},"®":{"ha":1024,"x_min":-19,"x_max":1043,"o":"m 400 435 l 400 194 l 267 194 l 267 810 l 597 810 q 721 765 676 810 q 765 642 765 721 q 668 492 765 539 q 704 472 693 481 q 726 451 715 463 q 739 415 736 440 q 744 360 742 389 q 747 271 746 332 q 774 224 747 238 l 774 194 l 631 194 q 611 307 611 232 q 613 343 611 329 l 613 367 q 528 435 613 435 l 400 435 m 400 547 l 543 547 q 613 563 593 547 q 632 622 632 579 q 613 681 632 665 q 543 697 593 697 l 400 697 l 400 547 m 137 876 q 215 954 137 876 q 513 1032 293 1032 q 888 876 732 1032 q 1043 501 1043 721 q 887 124 1043 279 q 506 -31 731 -31 q 135 126 290 -31 q -19 501 -19 283 q 137 876 -19 721 m 511 932 q 213 806 338 932 q 89 501 89 679 q 213 197 89 325 q 507 69 336 69 q 810 195 686 69 q 935 501 935 321 q 810 806 935 679 q 511 932 686 932 z "},"◊":{"ha":679,"x_min":22,"x_max":642,"o":"m 375 1033 l 642 517 l 375 0 l 289 0 l 22 517 l 289 1033 l 375 1033 m 333 83 l 556 517 l 333 950 l 110 517 l 333 83 z "},"Δ":{"ha":1013,"x_min":11,"x_max":1001,"o":"m 11 0 l 372 1013 l 640 1013 l 1001 0 l 11 0 m 285 174 l 728 174 l 506 853 l 285 174 z "},"≠":{"ha":761,"x_min":69,"x_max":742,"o":"m 171 72 l 69 72 l 69 238 l 260 238 l 354 406 l 69 406 l 69 571 l 447 571 l 538 733 l 674 656 l 625 571 l 742 571 l 742 406 l 533 406 l 439 238 l 742 238 l 742 72 l 346 72 l 251 -96 l 117 -18 l 171 72 z "},"√":{"ha":753,"x_min":10,"x_max":711,"o":"m 661 1268 l 711 1261 l 500 -50 l 165 640 l 35 576 l 10 622 l 215 724 l 483 174 l 661 1268 z "},"≤":{"ha":811,"x_min":63,"x_max":742,"o":"m 742 113 l 742 -14 l 63 -14 l 63 113 l 742 113 m 742 888 l 742 736 l 211 551 l 742 369 l 742 215 l 63 468 l 63 635 l 742 888 z "},"≥":{"ha":811,"x_min":63,"x_max":742,"o":"m 742 113 l 742 -14 l 63 -14 l 63 113 l 742 113 m 63 215 l 63 367 l 593 551 l 63 733 l 63 888 l 742 635 l 742 467 l 63 215 z "},"¬":{"ha":811,"x_min":56,"x_max":756,"o":"m 56 521 l 756 521 l 756 119 l 649 119 l 649 414 l 56 414 l 56 521 z "},"∑":{"ha":988,"x_min":24,"x_max":964,"o":"m 856 1046 l 865 824 l 835 824 q 768 951 808 921 q 629 982 728 982 l 267 982 l 640 489 l 238 25 l 713 25 q 806 31 776 25 q 857 56 836 38 q 889 91 878 72 q 922 163 900 110 q 931 181 924 164 l 964 181 q 904 -133 925 33 q 793 -121 861 -121 l 128 -121 q 24 -126 71 -121 l 503 429 l 24 1056 q 181 1046 103 1046 l 856 1046 z "},"∂":{"ha":681,"x_min":31,"x_max":636,"o":"m 142 931 l 86 1003 q 269 1042 172 1042 q 533 906 429 1042 q 636 563 636 771 q 610 335 636 456 q 544 143 583 214 q 294 -21 453 -21 q 107 57 183 -21 q 31 249 31 135 q 133 497 31 392 q 303 567 203 567 q 399 549 358 567 q 511 476 439 532 q 526 632 526 578 q 450 904 526 799 q 297 976 399 976 q 238 970 260 976 q 153 936 215 964 l 142 931 m 501 422 q 356 510 449 510 q 213 423 272 510 q 153 215 153 336 q 185 74 153 125 q 276 22 218 22 q 379 67 333 22 q 453 193 425 111 q 501 422 478 268 z "},"¦":{"ha":389,"x_min":139,"x_max":250,"o":"m 250 1013 l 250 472 l 139 472 l 139 1013 l 250 1013 m 250 263 l 250 -278 l 139 -278 l 139 263 l 250 263 z "},"μ":{"ha":849,"x_min":81,"x_max":796,"o":"m 267 -306 l 81 -306 l 81 750 l 275 750 l 275 286 q 300 179 275 215 q 392 133 331 133 q 492 175 453 133 q 532 281 532 217 l 532 750 l 726 750 l 726 208 q 735 127 726 147 q 768 107 743 107 q 796 113 778 107 l 796 -8 q 699 -32 750 -32 q 621 -15 650 -32 q 567 43 592 1 q 490 -15 526 1 q 406 -32 454 -32 q 267 21 321 -32 l 267 -306 z "},"А":{"ha":1003,"x_min":36,"x_max":976,"o":"m 697 204 l 317 204 l 249 0 l 36 0 l 396 1013 l 626 1013 l 976 0 l 767 0 l 697 204 m 639 378 l 507 774 l 375 378 l 639 378 z "},"Б":{"ha":1003,"x_min":114,"x_max":925,"o":"m 549 643 q 737 613 658 643 q 854 531 815 582 q 909 426 893 479 q 925 314 925 374 q 897 181 925 251 q 825 74 869 111 q 569 0 738 0 l 114 0 l 114 1013 l 825 1013 l 825 839 l 322 839 l 322 643 l 549 643 m 322 469 l 322 174 l 571 174 q 685 215 644 174 q 725 321 725 256 q 685 428 725 388 q 571 469 644 469 l 322 469 z "},"В":{"ha":1003,"x_min":114,"x_max":925,"o":"m 114 0 l 114 1013 l 565 1013 q 804 939 718 1013 q 896 746 896 858 q 860 622 896 678 q 757 538 824 565 q 881 444 838 514 q 925 292 925 374 q 898 172 925 231 q 825 74 871 113 q 569 0 738 0 l 114 0 m 322 839 l 322 610 l 549 610 q 696 724 696 610 q 549 839 696 839 l 322 839 m 322 436 l 322 174 l 571 174 q 725 304 725 174 q 571 436 725 436 l 322 436 z "},"Г":{"ha":849,"x_min":114,"x_max":825,"o":"m 322 0 l 114 0 l 114 1013 l 825 1013 l 825 839 l 322 839 l 322 0 z "},"Д":{"ha":1250,"x_min":49,"x_max":1201,"o":"m 193 150 q 284 288 249 150 q 319 640 319 426 l 319 1013 l 1042 1013 l 1042 150 l 1201 150 l 1201 -208 l 1021 -208 l 1021 0 l 229 0 l 229 -208 l 49 -208 l 49 150 l 193 150 m 463 174 l 833 174 l 833 839 l 528 839 l 528 575 q 463 174 528 311 z "},"Е":{"ha":985,"x_min":114,"x_max":871,"o":"m 322 436 l 322 174 l 871 174 l 871 0 l 114 0 l 114 1013 l 846 1013 l 846 839 l 322 839 l 322 610 l 807 610 l 807 436 l 322 436 z "},"Ё":{"ha":985,"x_min":114,"x_max":871,"o":"m 322 436 l 322 174 l 871 174 l 871 0 l 114 0 l 114 1013 l 846 1013 l 846 839 l 322 839 l 322 610 l 807 610 l 807 436 l 322 436 m 431 1281 l 431 1111 l 278 1111 l 278 1281 l 431 1281 m 689 1281 l 689 1111 l 536 1111 l 536 1281 l 689 1281 z "},"Ж":{"ha":1518,"x_min":31,"x_max":1497,"o":"m 660 396 l 286 0 l 31 0 l 526 525 l 92 1013 l 319 1013 l 660 625 l 660 1013 l 868 1013 l 868 625 l 1208 1013 l 1436 1013 l 1001 525 l 1497 0 l 1242 0 l 868 396 l 868 0 l 660 0 l 660 396 z "},"З":{"ha":933,"x_min":44,"x_max":879,"o":"m 347 594 l 453 594 q 644 738 644 594 q 597 828 644 794 q 469 863 550 863 q 257 704 268 863 l 63 704 q 133 914 63 835 q 460 1029 238 1029 q 742 948 642 1029 q 843 718 843 867 q 756 524 843 589 q 879 296 879 456 q 769 55 879 142 q 464 -32 660 -32 q 162 54 269 -32 q 44 303 54 140 l 247 303 q 311 178 253 221 q 475 135 369 135 q 624 171 569 135 q 679 271 679 207 q 633 383 679 339 q 489 428 588 428 l 347 428 l 347 594 z "},"И":{"ha":1051,"x_min":114,"x_max":938,"o":"m 322 0 l 114 0 l 114 1013 l 322 1013 l 322 324 l 724 1013 l 938 1013 l 938 0 l 729 0 l 729 700 l 322 0 z "},"Й":{"ha":1051,"x_min":114,"x_max":938,"o":"m 704 1288 l 704 1272 q 651 1142 704 1194 q 521 1089 599 1089 q 390 1142 443 1089 q 338 1274 338 1194 l 338 1288 l 415 1288 q 522 1196 428 1196 q 592 1217 568 1196 q 626 1288 617 1239 l 704 1288 m 322 0 l 114 0 l 114 1013 l 322 1013 l 322 324 l 724 1013 l 938 1013 l 938 0 l 729 0 l 729 700 l 322 0 z "},"К":{"ha":1042,"x_min":114,"x_max":1007,"o":"m 322 0 l 114 0 l 114 1013 l 322 1013 l 322 625 l 718 1013 l 964 1013 l 456 525 l 1007 0 l 729 0 l 322 396 l 322 0 z "},"Л":{"ha":1013,"x_min":50,"x_max":899,"o":"m 690 839 l 382 839 l 382 556 q 378 427 382 486 q 362 299 374 368 q 326 176 350 229 q 267 78 303 124 q 176 8 232 32 q 50 -17 121 -17 l 50 185 q 147 283 121 183 q 174 621 174 383 l 174 1013 l 899 1013 l 899 0 l 690 0 l 690 839 z "},"М":{"ha":1214,"x_min":114,"x_max":1100,"o":"m 322 789 l 322 0 l 114 0 l 114 1013 l 425 1013 l 608 207 l 786 1013 l 1100 1013 l 1100 0 l 892 0 l 892 789 l 713 0 l 504 0 l 322 789 z "},"Н":{"ha":1046,"x_min":114,"x_max":932,"o":"m 724 460 l 322 460 l 322 0 l 114 0 l 114 1013 l 322 1013 l 322 633 l 722 633 l 722 1013 l 932 1013 l 932 0 l 724 0 l 724 460 z "},"О":{"ha":1081,"x_min":56,"x_max":1031,"o":"m 542 1029 q 889 889 758 1029 q 1031 492 1031 736 q 992 281 1031 385 q 889 108 954 178 q 543 -32 758 -32 q 197 108 328 -32 q 92 283 129 181 q 56 499 56 385 q 197 889 56 736 q 542 1029 326 1029 m 543 851 q 340 755 417 851 q 264 499 264 658 q 340 242 264 339 q 543 146 417 146 q 745 242 668 146 q 822 493 822 338 q 747 754 822 657 q 543 851 671 851 z "},"П":{"ha":1046,"x_min":114,"x_max":932,"o":"m 724 839 l 322 839 l 322 0 l 114 0 l 114 1013 l 932 1013 l 932 0 l 724 0 l 724 839 z "},"Р":{"ha":932,"x_min":114,"x_max":888,"o":"m 322 361 l 322 0 l 114 0 l 114 1013 l 561 1013 q 803 932 719 1013 q 888 699 888 851 q 804 453 888 544 q 582 361 721 361 l 322 361 m 322 535 l 517 535 q 679 686 679 535 q 640 801 679 764 q 517 839 600 839 l 322 839 l 322 535 z "},"С":{"ha":1003,"x_min":61,"x_max":951,"o":"m 947 669 l 749 669 q 703 778 732 742 q 532 851 644 851 q 339 757 408 851 q 269 494 269 663 q 337 236 269 329 q 525 143 404 143 q 681 196 622 143 q 749 346 739 249 l 951 346 q 825 70 942 172 q 519 -32 708 -32 q 185 110 308 -32 q 61 497 61 253 q 186 886 61 743 q 525 1029 311 1029 q 879 869 758 1029 q 947 669 938 792 z "},"Т":{"ha":849,"x_min":19,"x_max":831,"o":"m 535 839 l 535 0 l 326 0 l 326 839 l 19 839 l 19 1013 l 831 1013 l 831 839 l 535 839 z "},"У":{"ha":997,"x_min":21,"x_max":967,"o":"m 456 0 l 214 0 l 372 314 l 21 1013 l 247 1013 l 486 533 l 725 1013 l 967 1013 l 456 0 z "},"Ф":{"ha":1239,"x_min":42,"x_max":1197,"o":"m 515 0 l 515 131 q 331 142 389 131 q 42 519 42 199 q 61 656 42 596 q 108 754 81 717 q 180 819 135 792 q 260 858 225 846 q 349 878 294 871 q 429 885 404 885 q 499 886 454 886 q 515 886 510 886 l 515 1013 l 724 1013 l 724 886 q 740 886 729 886 q 810 885 783 886 q 890 878 836 885 q 978 859 943 872 q 1059 819 1014 846 q 1131 754 1104 792 q 1178 656 1158 717 q 1197 519 1197 596 q 1178 373 1197 438 q 1126 269 1158 308 q 1053 199 1094 229 q 969 158 1013 169 q 881 137 925 146 q 802 131 838 128 q 742 131 767 133 q 724 131 729 131 l 724 0 l 515 0 m 515 261 l 515 750 q 506 750 513 750 q 454 749 474 750 q 397 742 435 747 q 333 721 358 736 q 282 681 308 706 q 242 614 256 657 q 228 514 228 571 q 234 440 228 474 q 249 381 240 406 q 274 338 257 357 q 303 305 290 318 q 340 283 317 292 q 376 270 364 275 q 415 263 389 265 q 451 260 442 261 q 487 260 461 260 q 515 261 513 261 m 724 261 q 752 260 726 261 q 788 260 778 260 q 824 263 797 261 q 863 270 850 265 q 899 283 875 275 q 935 305 922 292 q 965 338 949 318 q 990 381 982 357 q 1005 440 999 406 q 1011 514 1011 474 q 997 614 1011 571 q 957 681 983 657 q 906 721 931 706 q 842 742 881 736 q 785 749 804 747 q 733 750 765 750 q 724 750 726 750 l 724 261 z "},"Х":{"ha":926,"x_min":31,"x_max":908,"o":"m 596 517 l 908 0 l 671 0 l 469 335 l 272 0 l 31 0 l 350 510 l 42 1013 l 289 1013 l 472 699 l 653 1013 l 894 1013 l 596 517 z "},"Ц":{"ha":1133,"x_min":114,"x_max":1085,"o":"m 724 174 l 724 1013 l 932 1013 l 932 150 l 1085 150 l 1085 -208 l 904 -208 l 904 0 l 114 0 l 114 1013 l 322 1013 l 322 174 l 724 174 z "},"Ч":{"ha":951,"x_min":94,"x_max":867,"o":"m 658 313 l 439 313 q 190 400 286 313 q 94 621 94 488 l 94 1013 l 303 1013 l 303 629 q 347 524 303 563 q 456 486 392 486 l 657 486 l 657 1013 l 867 1013 l 867 0 l 658 0 l 658 313 z "},"Ш":{"ha":1468,"x_min":94,"x_max":1343,"o":"m 1343 0 l 94 0 l 94 1013 l 303 1013 l 303 174 l 607 174 l 607 1013 l 815 1013 l 815 174 l 1135 174 l 1135 1013 l 1343 1013 l 1343 0 z "},"Щ":{"ha":1643,"x_min":94,"x_max":1524,"o":"m 1336 0 l 94 0 l 94 1013 l 303 1013 l 303 174 l 621 174 l 621 1013 l 829 1013 l 829 174 l 1149 174 l 1149 1013 l 1357 1013 l 1357 150 l 1524 150 l 1524 -208 l 1336 -208 l 1336 0 z "},"Ъ":{"ha":1157,"x_min":19,"x_max":1113,"o":"m 547 651 l 807 651 q 1029 560 946 651 q 1113 314 1113 468 q 1028 81 1113 161 q 786 0 944 0 l 339 0 l 339 839 l 19 839 l 19 1013 l 547 1013 l 547 651 m 547 478 l 547 174 l 742 174 q 865 211 825 174 q 904 326 904 249 q 742 478 904 478 l 547 478 z "},"Ы":{"ha":1318,"x_min":94,"x_max":1228,"o":"m 1228 1013 l 1228 0 l 1019 0 l 1019 1013 l 1228 1013 m 303 651 l 563 651 q 785 560 701 651 q 868 314 868 468 q 784 81 868 161 q 542 0 700 0 l 94 0 l 94 1013 l 303 1013 l 303 651 m 303 478 l 303 174 l 497 174 q 620 211 581 174 q 660 326 660 249 q 497 478 660 478 l 303 478 z "},"Ь":{"ha":954,"x_min":106,"x_max":879,"o":"m 314 651 l 574 651 q 796 560 713 651 q 879 314 879 468 q 795 81 879 161 q 553 0 711 0 l 106 0 l 106 1013 l 314 1013 l 314 651 m 314 478 l 314 174 l 508 174 q 631 211 592 174 q 671 326 671 249 q 508 478 671 478 l 314 478 z "},"Э":{"ha":1003,"x_min":61,"x_max":951,"o":"m 335 432 l 335 606 l 739 606 q 650 787 718 722 q 481 851 582 851 q 310 778 368 851 q 264 669 281 742 l 65 669 q 133 869 75 792 q 488 1029 254 1029 q 826 886 701 1029 q 951 497 951 743 q 828 110 951 253 q 493 -32 704 -32 q 188 70 304 -32 q 61 346 71 172 l 264 346 q 332 196 274 249 q 488 143 390 143 q 662 219 596 143 q 740 432 728 294 l 335 432 z "},"Ю":{"ha":1526,"x_min":94,"x_max":1435,"o":"m 496 606 q 629 889 524 775 q 960 1029 758 1029 q 1147 995 1068 1029 q 1293 889 1225 961 q 1435 492 1435 736 q 1397 281 1435 385 q 1293 108 1358 178 q 961 -32 1163 -32 q 629 108 760 -32 q 492 432 511 235 l 303 432 l 303 0 l 94 0 l 94 1013 l 303 1013 l 303 606 l 496 606 m 961 851 q 766 756 836 851 q 696 499 696 660 q 766 242 696 338 q 961 146 836 146 q 1156 241 1085 146 q 1226 493 1226 336 q 1157 756 1226 660 q 961 851 1088 851 z "},"Я":{"ha":969,"x_min":31,"x_max":879,"o":"m 586 361 l 279 0 l 31 0 l 336 368 q 172 474 238 388 q 106 699 106 561 q 190 932 106 851 q 432 1013 274 1013 l 879 1013 l 879 0 l 671 0 l 671 361 l 586 361 m 671 535 l 671 839 l 476 839 q 353 801 393 839 q 314 686 314 764 q 476 535 314 535 l 671 535 z "},"а":{"ha":772,"x_min":39,"x_max":728,"o":"m 728 24 l 728 0 l 517 0 q 494 75 494 28 q 267 -32 392 -32 q 92 39 160 -32 q 39 193 39 96 q 260 429 39 389 l 338 443 q 460 472 439 461 q 493 531 493 490 q 381 606 493 606 q 279 583 308 606 q 243 503 250 561 l 56 503 q 376 763 74 763 q 683 532 683 763 l 683 115 q 728 24 683 64 m 493 301 l 493 354 q 411 331 467 342 l 344 318 q 260 283 286 307 q 233 215 233 258 q 262 149 233 174 q 339 125 290 125 q 453 171 413 125 q 493 301 493 217 z "},"б":{"ha":842,"x_min":69,"x_max":785,"o":"m 608 1078 l 753 1079 q 751 1019 753 1040 q 739 969 750 999 q 707 925 728 940 q 526 869 647 882 q 351 822 404 856 q 235 642 236 751 q 469 763 294 763 q 601 730 538 763 q 704 642 665 697 q 785 365 785 525 q 690 78 785 189 q 424 -32 596 -32 q 158 66 246 -32 q 69 406 69 164 q 72 523 69 472 q 87 638 75 574 q 119 752 99 703 q 176 850 139 801 q 264 931 213 899 q 536 1006 346 982 q 583 1028 565 1010 q 606 1061 601 1046 l 608 1078 m 544 534 q 522 567 544 534 q 426 600 499 600 q 308 535 354 600 q 263 368 263 471 q 308 196 263 261 q 426 131 353 131 q 544 196 499 131 q 590 364 590 261 q 544 534 590 468 z "},"в":{"ha":794,"x_min":83,"x_max":719,"o":"m 83 0 l 83 750 l 453 750 q 631 696 568 750 q 699 553 699 638 q 670 457 699 503 q 596 397 642 411 q 688 327 656 379 q 719 215 719 275 q 699 126 719 169 q 646 54 679 82 q 457 0 582 0 l 83 0 m 278 597 l 278 463 l 408 463 q 488 476 464 463 q 511 528 511 489 q 488 583 511 568 q 408 597 464 597 l 278 597 m 278 310 l 278 153 l 417 153 q 501 172 475 153 q 526 236 526 190 q 502 296 526 282 q 417 310 478 310 l 278 310 z "},"г":{"ha":631,"x_min":83,"x_max":567,"o":"m 567 750 l 567 593 l 278 593 l 278 0 l 83 0 l 83 750 l 567 750 z "},"д":{"ha":951,"x_min":32,"x_max":919,"o":"m 806 140 l 919 140 l 919 -174 l 767 -174 l 767 0 l 185 0 l 185 -174 l 32 -174 l 32 140 l 118 140 q 196 263 167 140 q 225 539 225 385 l 225 750 l 806 750 l 806 140 m 365 157 l 611 157 l 611 593 l 419 593 l 419 522 q 365 157 419 279 z "},"е":{"ha":772,"x_min":31,"x_max":729,"o":"m 728 314 l 225 314 q 253 182 229 219 q 381 117 296 117 q 529 211 492 117 l 721 211 q 594 34 689 100 q 374 -32 500 -32 q 122 72 214 -32 q 31 356 31 175 q 124 653 31 544 q 378 763 217 763 q 577 705 492 763 q 700 544 663 647 q 729 347 729 460 q 728 314 729 331 m 228 443 l 526 443 q 496 551 521 513 q 375 614 451 614 q 228 443 247 614 z "},"ё":{"ha":772,"x_min":31,"x_max":729,"o":"m 336 1032 l 336 863 l 183 863 l 183 1032 l 336 1032 m 594 1032 l 594 863 l 442 863 l 442 1032 l 594 1032 m 728 314 l 225 314 q 253 182 229 219 q 381 117 296 117 q 529 211 492 117 l 721 211 q 594 34 689 100 q 374 -32 500 -32 q 122 72 214 -32 q 31 356 31 175 q 124 653 31 544 q 378 763 217 763 q 577 705 492 763 q 700 544 663 647 q 729 347 729 460 q 728 314 729 331 m 228 443 l 526 443 q 496 551 521 513 q 375 614 451 614 q 228 443 247 614 z "},"ж":{"ha":1124,"x_min":22,"x_max":1094,"o":"m 461 275 l 271 0 l 22 0 l 318 411 l 72 750 l 278 750 l 461 488 l 461 750 l 656 750 l 656 488 l 839 750 l 1044 750 l 799 411 l 1094 0 l 846 0 l 656 275 l 656 0 l 461 0 l 461 275 z "},"з":{"ha":758,"x_min":40,"x_max":722,"o":"m 286 289 l 286 442 l 417 442 q 447 444 433 442 q 469 451 460 446 q 485 460 478 456 q 496 473 492 464 q 503 487 500 482 q 506 501 506 492 q 507 515 507 511 q 507 529 507 518 l 507 540 q 476 591 507 572 q 394 610 446 610 q 254 508 256 610 l 67 508 q 156 695 69 628 q 393 763 242 763 q 619 695 536 763 q 701 513 701 628 q 660 390 701 436 q 649 383 657 388 q 640 376 642 378 q 722 222 722 325 q 633 35 722 106 q 394 -32 550 -32 q 40 218 49 -32 l 231 218 q 268 147 242 167 q 383 121 308 121 q 490 140 451 121 q 528 194 528 160 q 526 223 528 213 q 515 252 524 233 q 480 280 506 271 q 414 289 454 289 l 286 289 z "},"и":{"ha":854,"x_min":83,"x_max":771,"o":"m 83 750 l 278 750 l 278 281 l 549 750 l 771 750 l 771 0 l 576 0 l 576 469 l 306 0 l 83 0 l 83 750 z "},"й":{"ha":854,"x_min":83,"x_max":771,"o":"m 83 750 l 278 750 l 278 281 l 549 750 l 771 750 l 771 0 l 576 0 l 576 469 l 306 0 l 83 0 l 83 750 m 611 1004 l 611 989 q 558 858 611 911 q 428 806 506 806 q 297 858 350 806 q 244 990 244 911 l 244 1004 l 322 1004 q 429 913 335 913 q 533 1004 518 913 l 611 1004 z "},"к":{"ha":796,"x_min":83,"x_max":763,"o":"m 278 488 l 503 750 l 708 750 l 411 411 l 763 0 l 510 0 l 278 275 l 278 0 l 83 0 l 83 750 l 278 750 l 278 488 z "},"л":{"ha":801,"x_min":40,"x_max":718,"o":"m 144 750 l 718 750 l 718 0 l 524 0 l 524 593 l 339 593 l 339 508 q 269 109 339 232 q 40 -14 199 -14 l 40 174 q 74 181 58 174 q 99 203 89 188 q 117 235 110 218 q 130 279 125 251 q 138 331 135 307 q 143 392 142 354 q 144 456 144 429 q 144 525 144 482 l 144 750 z "},"м":{"ha":925,"x_min":83,"x_max":842,"o":"m 513 0 l 413 0 l 278 413 l 278 0 l 83 0 l 83 750 l 326 750 l 463 296 l 599 750 l 842 750 l 842 0 l 647 0 l 647 413 l 513 0 z "},"н":{"ha":838,"x_min":83,"x_max":754,"o":"m 83 750 l 278 750 l 278 444 l 560 444 l 560 750 l 754 750 l 754 0 l 560 0 l 560 288 l 278 288 l 278 0 l 83 0 l 83 750 z "},"о":{"ha":849,"x_min":49,"x_max":790,"o":"m 418 763 q 692 656 594 763 q 790 360 790 550 q 690 74 790 179 q 419 -32 590 -32 q 147 74 246 -32 q 49 365 49 181 q 147 656 49 550 q 418 763 246 763 m 419 606 q 292 539 340 606 q 243 365 243 472 q 292 192 243 258 q 419 125 340 125 q 547 191 497 125 q 596 363 596 257 q 548 540 596 474 q 419 606 500 606 z "},"п":{"ha":838,"x_min":83,"x_max":754,"o":"m 83 750 l 754 750 l 754 0 l 560 0 l 560 593 l 278 593 l 278 0 l 83 0 l 83 750 z "},"р":{"ha":849,"x_min":81,"x_max":797,"o":"m 275 750 l 275 639 q 483 763 344 763 q 615 730 551 763 q 717 644 679 697 q 797 364 797 532 q 708 80 797 193 q 483 -33 618 -33 q 275 89 344 -33 l 275 -303 l 81 -303 l 81 750 l 275 750 m 558 534 q 535 567 558 534 q 439 600 513 600 q 320 535 365 600 q 275 364 275 469 q 320 194 275 258 q 439 129 365 129 q 557 194 511 129 q 603 361 603 260 q 558 534 603 468 z "},"с":{"ha":772,"x_min":47,"x_max":725,"o":"m 725 469 l 539 469 q 491 574 522 543 q 400 606 460 606 q 279 542 314 606 q 242 360 242 471 q 284 188 242 250 q 400 125 326 125 q 489 156 457 125 q 539 260 521 188 l 725 260 q 623 47 711 125 q 399 -32 535 -32 q 140 71 232 -32 q 47 360 47 174 q 140 657 47 551 q 401 763 233 763 q 628 685 542 763 q 725 469 715 607 z "},"т":{"ha":631,"x_min":29,"x_max":599,"o":"m 599 750 l 599 593 l 411 593 l 411 0 l 217 0 l 217 593 l 29 593 l 29 750 l 599 750 z "},"у":{"ha":772,"x_min":13,"x_max":747,"o":"m 547 750 l 747 750 l 446 -137 q 398 -233 424 -204 q 329 -281 372 -262 q 189 -304 272 -304 q 119 -299 158 -304 l 119 -153 q 171 -161 150 -161 q 256 -126 222 -161 q 289 -37 289 -90 l 289 -32 l 289 -31 l 13 750 l 226 750 l 392 204 l 547 750 z "},"ф":{"ha":1329,"x_min":39,"x_max":1278,"o":"m 561 89 q 353 -33 492 -33 q 128 80 218 -33 q 39 364 39 193 q 119 644 39 532 q 221 730 157 697 q 353 763 285 763 q 561 639 492 763 l 561 999 l 756 999 l 756 639 q 964 763 825 763 q 1096 730 1032 763 q 1197 644 1160 697 q 1278 364 1278 532 q 1188 80 1278 193 q 964 -33 1099 -33 q 756 89 825 -33 l 756 -303 l 561 -303 l 561 89 m 516 535 q 493 567 516 535 q 397 600 471 600 q 278 534 324 600 q 233 361 233 468 q 279 194 233 260 q 397 129 325 129 q 516 194 471 129 q 561 364 561 258 q 516 535 561 469 m 1038 534 q 1016 567 1038 534 q 919 600 993 600 q 801 535 846 600 q 756 364 756 469 q 801 194 756 258 q 919 129 846 129 q 1038 194 992 129 q 1083 361 1083 260 q 1038 534 1083 468 z "},"х":{"ha":772,"x_min":22,"x_max":743,"o":"m 493 378 l 743 0 l 510 0 l 383 233 l 256 0 l 22 0 l 272 378 l 28 750 l 261 750 l 383 524 l 504 750 l 738 750 l 493 378 z "},"ц":{"ha":906,"x_min":83,"x_max":874,"o":"m 83 0 l 83 750 l 278 750 l 278 157 l 560 157 l 560 750 l 754 750 l 754 140 l 874 140 l 874 -174 l 721 -174 l 721 0 l 83 0 z "},"ч":{"ha":803,"x_min":83,"x_max":719,"o":"m 83 750 l 278 750 l 278 481 q 307 408 278 432 q 386 383 336 383 l 525 383 l 525 750 l 719 750 l 719 0 l 525 0 l 525 226 l 389 226 q 172 288 261 226 q 83 479 83 350 l 83 750 z "},"ш":{"ha":1231,"x_min":83,"x_max":1147,"o":"m 1147 0 l 83 0 l 83 750 l 278 750 l 278 157 l 515 157 l 515 750 l 710 750 l 710 157 l 953 157 l 953 750 l 1147 750 l 1147 0 z "},"щ":{"ha":1344,"x_min":83,"x_max":1313,"o":"m 1160 0 l 83 0 l 83 750 l 278 750 l 278 157 l 515 157 l 515 750 l 710 750 l 710 157 l 951 157 l 951 750 l 1146 750 l 1146 140 l 1313 140 l 1313 -174 l 1160 -174 l 1160 0 z "},"ъ":{"ha":963,"x_min":28,"x_max":921,"o":"m 265 0 l 265 593 l 28 593 l 28 750 l 460 750 l 460 499 l 665 499 q 852 424 783 499 q 921 233 921 350 q 901 133 921 186 q 847 54 881 81 q 658 0 783 0 l 265 0 m 460 346 l 460 153 l 611 153 q 728 250 728 153 q 694 322 728 297 q 604 346 661 346 l 460 346 z "},"ы":{"ha":1126,"x_min":83,"x_max":997,"o":"m 442 499 q 664 426 589 499 q 739 233 739 354 q 719 133 739 186 q 665 54 699 81 q 476 0 601 0 l 83 0 l 83 750 l 278 750 l 278 499 l 442 499 m 278 346 l 278 153 l 429 153 q 546 250 546 153 q 513 322 546 297 q 422 346 481 346 l 278 346 m 997 750 l 997 0 l 803 0 l 803 750 l 997 750 z "},"ь":{"ha":781,"x_min":83,"x_max":739,"o":"m 465 499 q 739 253 739 499 q 673 69 739 139 q 476 0 607 0 l 83 0 l 83 750 l 278 750 l 278 499 l 465 499 m 278 346 l 278 153 l 429 153 q 546 250 546 153 q 513 322 546 297 q 422 346 481 346 l 278 346 z "},"э":{"ha":783,"x_min":47,"x_max":725,"o":"m 282 288 l 282 444 l 524 444 q 493 542 513 506 q 372 606 458 606 q 281 574 313 606 q 233 469 250 543 l 47 469 q 144 685 57 607 q 371 763 231 763 q 632 657 539 763 q 725 360 725 551 q 633 71 725 174 q 374 -32 540 -32 q 149 47 238 -32 q 47 260 61 125 l 233 260 q 283 156 251 188 q 372 125 315 125 q 472 167 432 125 q 525 288 513 210 l 282 288 z "},"ю":{"ha":1233,"x_min":83,"x_max":1100,"o":"m 392 288 l 278 288 l 278 0 l 83 0 l 83 750 l 278 750 l 278 444 l 392 444 q 502 679 413 596 q 742 763 592 763 q 1008 658 917 763 q 1100 360 1100 553 q 1006 73 1100 178 q 743 -32 913 -32 q 501 51 592 -32 q 392 288 411 135 m 743 606 q 623 540 665 606 q 581 365 581 475 q 623 190 581 256 q 743 125 665 125 q 863 190 819 125 q 906 363 906 256 q 864 540 906 475 q 743 606 822 606 z "},"я":{"ha":828,"x_min":35,"x_max":738,"o":"m 482 288 l 283 0 l 35 0 l 250 303 q 118 390 165 326 q 71 535 71 454 q 91 624 71 581 q 144 696 111 668 q 333 750 208 750 l 738 750 l 738 0 l 543 0 l 543 288 l 482 288 m 543 440 l 543 597 l 374 597 q 290 580 315 597 q 264 517 264 563 q 289 456 264 471 q 374 440 314 440 l 543 440 z "},"Ѐ":{"ha":985,"x_min":114,"x_max":871,"o":"m 256 1321 l 431 1321 l 528 1113 l 431 1113 l 256 1321 m 322 436 l 322 174 l 871 174 l 871 0 l 114 0 l 114 1013 l 846 1013 l 846 839 l 322 839 l 322 610 l 807 610 l 807 436 l 322 436 z "},"Ђ":{"ha":1068,"x_min":19,"x_max":1000,"o":"m 604 -65 l 639 -65 q 747 -27 703 -65 q 792 78 792 11 l 792 383 q 747 488 792 450 q 639 526 703 526 l 479 526 l 479 0 l 271 0 l 271 839 l 19 839 l 19 1013 l 719 1013 l 719 839 l 479 839 l 479 700 l 656 700 q 904 613 808 700 q 1000 392 1000 525 l 1000 69 q 904 -151 1000 -64 q 656 -239 808 -239 l 604 -239 l 604 -65 z "},"Ѓ":{"ha":849,"x_min":114,"x_max":825,"o":"m 693 1321 l 518 1113 l 421 1113 l 518 1321 l 693 1321 m 322 0 l 114 0 l 114 1013 l 825 1013 l 825 839 l 322 839 l 322 0 z "},"Є":{"ha":1003,"x_min":61,"x_max":951,"o":"m 678 432 l 272 432 q 351 219 285 294 q 525 143 417 143 q 681 196 622 143 q 749 346 739 249 l 951 346 q 825 70 942 172 q 519 -32 708 -32 q 185 110 308 -32 q 61 497 61 253 q 186 886 61 743 q 525 1029 311 1029 q 879 869 758 1029 q 947 669 938 792 l 749 669 q 703 778 732 742 q 532 851 644 851 q 363 787 431 851 q 274 606 294 722 l 678 606 l 678 432 z "},"Ѕ":{"ha":926,"x_min":44,"x_max":879,"o":"m 843 704 l 649 704 q 436 863 638 863 q 308 828 356 863 q 261 738 261 794 q 301 655 261 682 q 453 606 342 628 l 611 575 q 815 481 751 547 q 879 296 879 415 q 769 55 879 142 q 464 -32 660 -32 q 162 54 269 -32 q 44 303 54 140 l 247 303 q 311 178 253 221 q 475 135 369 135 q 624 171 569 135 q 679 271 679 207 q 636 365 679 332 q 489 418 593 399 l 347 446 q 128 538 193 475 q 63 718 63 600 q 163 948 63 867 q 446 1029 264 1029 q 772 914 668 1029 q 843 704 843 835 z "},"І":{"ha":386,"x_min":88,"x_max":296,"o":"m 296 1013 l 296 0 l 88 0 l 88 1013 l 296 1013 z "},"Ї":{"ha":386,"x_min":-12,"x_max":399,"o":"m 140 1281 l 140 1111 l -12 1111 l -12 1281 l 140 1281 m 399 1281 l 399 1111 l 246 1111 l 246 1281 l 399 1281 m 296 1013 l 296 0 l 88 0 l 88 1013 l 296 1013 z "},"Ј":{"ha":772,"x_min":33,"x_max":675,"o":"m 467 1013 l 675 1013 l 675 264 q 590 45 675 122 q 350 -32 506 -32 q 118 49 207 -32 q 33 275 33 128 l 33 375 l 242 375 l 242 278 q 268 177 242 208 q 354 146 294 146 q 438 176 408 146 q 467 264 467 207 l 467 1013 z "},"Љ":{"ha":1536,"x_min":64,"x_max":1478,"o":"m 704 0 l 704 839 l 396 839 l 396 575 q 390 419 396 490 q 364 267 385 349 q 308 131 343 186 q 211 38 274 75 q 64 0 149 0 l 64 201 q 161 306 135 200 q 188 640 188 413 l 188 1013 l 913 1013 l 913 651 l 1172 651 q 1394 560 1311 651 q 1478 314 1478 468 q 1394 81 1478 161 q 1151 0 1310 0 l 704 0 m 913 478 l 913 174 l 1107 174 q 1230 211 1190 174 q 1269 326 1269 249 q 1107 478 1269 478 l 913 478 z "},"Њ":{"ha":1546,"x_min":94,"x_max":1478,"o":"m 913 1013 l 913 651 l 1172 651 q 1394 560 1311 651 q 1478 314 1478 468 q 1394 81 1478 161 q 1151 0 1310 0 l 704 0 l 704 475 l 303 475 l 303 0 l 94 0 l 94 1013 l 303 1013 l 303 649 l 703 649 l 703 1013 l 913 1013 m 913 478 l 913 174 l 1107 174 q 1230 211 1190 174 q 1269 326 1269 249 q 1107 478 1269 478 l 913 478 z "},"Ћ":{"ha":1068,"x_min":19,"x_max":1000,"o":"m 479 0 l 271 0 l 271 839 l 19 839 l 19 1013 l 719 1013 l 719 839 l 479 839 l 478 700 l 656 700 q 904 613 808 700 q 1000 392 1000 525 l 1000 0 l 792 0 l 792 383 q 747 488 792 450 q 639 526 703 526 l 479 526 l 479 0 z "},"Ќ":{"ha":1042,"x_min":114,"x_max":1007,"o":"m 763 1321 l 588 1113 l 490 1113 l 588 1321 l 763 1321 m 322 0 l 114 0 l 114 1013 l 322 1013 l 322 625 l 718 1013 l 964 1013 l 456 525 l 1007 0 l 729 0 l 322 396 l 322 0 z "},"Ѝ":{"ha":1051,"x_min":114,"x_max":938,"o":"m 303 1321 l 478 1321 l 575 1113 l 478 1113 l 303 1321 m 322 0 l 114 0 l 114 1013 l 322 1013 l 322 324 l 724 1013 l 938 1013 l 938 0 l 729 0 l 729 700 l 322 0 z "},"Ў":{"ha":997,"x_min":21,"x_max":967,"o":"m 678 1311 l 678 1296 q 625 1165 678 1218 q 494 1113 572 1113 q 363 1165 415 1113 q 311 1297 311 1218 l 311 1311 l 389 1311 q 494 1219 401 1219 q 600 1311 585 1219 l 678 1311 m 456 0 l 214 0 l 372 314 l 21 1013 l 247 1013 l 486 533 l 725 1013 l 967 1013 l 456 0 z "},"Џ":{"ha":1003,"x_min":94,"x_max":914,"o":"m 594 0 l 594 -208 l 414 -208 l 414 0 l 94 0 l 94 1013 l 303 1013 l 303 174 l 706 174 l 706 1013 l 914 1013 l 914 0 l 594 0 z "},"ѐ":{"ha":772,"x_min":31,"x_max":729,"o":"m 154 1054 l 329 1054 l 426 846 l 329 846 l 154 1054 m 728 314 l 225 314 q 253 182 229 219 q 381 117 296 117 q 529 211 492 117 l 721 211 q 594 34 689 100 q 374 -32 500 -32 q 122 72 214 -32 q 31 356 31 175 q 124 653 31 544 q 378 763 217 763 q 577 705 492 763 q 700 544 663 647 q 729 347 729 460 q 728 314 729 331 m 228 443 l 526 443 q 496 551 521 513 q 375 614 451 614 q 228 443 247 614 z "},"ђ":{"ha":849,"x_min":17,"x_max":751,"o":"m 438 -260 l 438 -94 q 535 -49 501 -94 q 557 44 557 -15 l 557 418 q 535 511 557 478 q 438 557 501 557 q 330 515 372 557 q 288 410 288 474 l 288 0 l 93 0 l 93 817 l 17 817 l 17 926 l 93 926 l 93 1013 l 288 1013 l 288 926 l 501 926 l 501 817 l 288 817 l 288 601 q 507 722 368 722 q 675 665 607 722 q 751 463 751 601 l 751 0 q 675 -203 751 -139 q 507 -260 607 -260 l 438 -260 z "},"ѓ":{"ha":631,"x_min":83,"x_max":567,"o":"m 549 1054 l 374 846 l 276 846 l 374 1054 l 549 1054 m 567 750 l 567 593 l 278 593 l 278 0 l 83 0 l 83 750 l 567 750 z "},"є":{"ha":772,"x_min":47,"x_max":725,"o":"m 490 288 l 247 288 q 300 167 260 210 q 400 125 340 125 q 489 156 457 125 q 539 260 521 188 l 725 260 q 623 47 711 125 q 399 -32 535 -32 q 140 71 232 -32 q 47 360 47 174 q 140 657 47 551 q 401 763 233 763 q 628 685 542 763 q 725 469 715 607 l 539 469 q 491 574 522 543 q 400 606 460 606 q 279 542 314 606 q 249 444 260 506 l 490 444 l 490 288 z "},"ѕ":{"ha":772,"x_min":40,"x_max":722,"o":"m 701 508 l 514 508 q 374 610 513 610 q 292 591 322 610 q 261 540 261 572 q 275 506 261 518 q 329 482 289 494 l 575 411 q 722 222 722 368 q 633 35 722 106 q 394 -32 550 -32 q 40 218 49 -32 l 231 218 q 268 147 242 167 q 383 121 308 121 q 490 140 451 121 q 528 194 528 160 q 513 231 528 217 q 463 256 499 244 l 231 328 q 108 390 142 357 q 67 513 67 436 q 149 695 67 628 q 375 763 232 763 q 613 695 526 763 q 701 508 699 628 z "},"і":{"ha":386,"x_min":93,"x_max":288,"o":"m 288 750 l 288 0 l 93 0 l 93 750 l 288 750 m 288 1013 l 288 839 l 93 839 l 93 1013 l 288 1013 z "},"ї":{"ha":386,"x_min":-12,"x_max":399,"o":"m 140 1032 l 140 863 l -12 863 l -12 1032 l 140 1032 m 399 1032 l 399 863 l 246 863 l 246 1032 l 399 1032 m 288 750 l 288 0 l 93 0 l 93 750 l 288 750 z "},"ј":{"ha":386,"x_min":6,"x_max":292,"o":"m 292 750 l 292 -131 q 251 -262 292 -222 q 121 -303 211 -303 q 6 -296 71 -303 l 6 -140 q 40 -146 24 -146 q 85 -133 72 -146 q 97 -87 97 -119 l 97 750 l 292 750 m 292 1013 l 292 839 l 97 839 l 97 1013 l 292 1013 z "},"љ":{"ha":1282,"x_min":40,"x_max":1215,"o":"m 560 0 l 560 593 l 339 593 l 339 522 q 269 123 339 246 q 40 0 199 0 l 40 188 q 74 194 58 188 q 99 217 89 201 q 117 249 110 232 q 130 293 125 265 q 138 344 135 321 q 143 406 142 368 q 144 469 144 443 q 144 539 144 496 l 144 750 l 754 750 l 754 499 l 942 499 q 1215 253 1215 499 q 1149 69 1215 139 q 953 0 1083 0 l 560 0 m 754 346 l 754 153 l 906 153 q 1022 250 1022 153 q 989 322 1022 297 q 899 346 956 346 l 754 346 z "},"њ":{"ha":1254,"x_min":88,"x_max":1219,"o":"m 564 0 l 564 342 l 282 342 l 282 0 l 88 0 l 88 750 l 282 750 l 282 499 l 564 499 l 564 750 l 758 750 l 758 499 l 946 499 q 1219 253 1219 499 q 1153 69 1219 139 q 957 0 1088 0 l 564 0 m 758 346 l 758 153 l 910 153 q 1026 250 1026 153 q 994 322 1026 297 q 903 346 961 346 l 758 346 z "},"ћ":{"ha":849,"x_min":17,"x_max":751,"o":"m 93 926 l 93 1013 l 288 1013 l 288 926 l 501 926 l 501 817 l 288 817 l 288 601 q 507 722 368 722 q 675 665 607 722 q 751 463 751 601 l 751 0 l 557 0 l 557 418 q 535 511 557 478 q 438 557 501 557 q 330 515 372 557 q 288 410 288 474 l 288 0 l 93 0 l 93 817 l 17 817 l 17 926 l 93 926 z "},"ќ":{"ha":796,"x_min":83,"x_max":763,"o":"m 619 1054 l 444 846 l 347 846 l 444 1054 l 619 1054 m 278 488 l 503 750 l 708 750 l 411 411 l 763 0 l 510 0 l 278 275 l 278 0 l 83 0 l 83 750 l 278 750 l 278 488 z "},"ѝ":{"ha":854,"x_min":83,"x_max":771,"o":"m 203 1054 l 378 1054 l 475 846 l 378 846 l 203 1054 m 83 750 l 278 750 l 278 281 l 549 750 l 771 750 l 771 0 l 576 0 l 576 469 l 306 0 l 83 0 l 83 750 z "},"ў":{"ha":772,"x_min":13,"x_max":747,"o":"m 564 1044 l 564 1029 q 511 899 564 951 q 381 846 458 846 q 249 899 301 846 q 197 1031 197 951 l 197 1044 l 275 1044 q 381 953 288 953 q 486 1044 471 953 l 564 1044 m 547 750 l 747 750 l 446 -137 q 398 -233 424 -204 q 329 -281 372 -262 q 189 -304 272 -304 q 119 -299 158 -304 l 119 -153 q 171 -161 150 -161 q 256 -126 222 -161 q 289 -37 289 -90 l 289 -32 l 289 -31 l 13 750 l 226 750 l 392 204 l 547 750 z "},"џ":{"ha":844,"x_min":83,"x_max":756,"o":"m 496 0 l 496 -174 l 343 -174 l 343 0 l 83 0 l 83 750 l 278 750 l 278 157 l 561 157 l 561 750 l 756 750 l 756 0 l 496 0 z "},"Ҍ":{"ha":954,"x_min":8,"x_max":879,"o":"m 314 478 l 314 174 l 508 174 q 631 211 592 174 q 671 326 671 249 q 508 478 671 478 l 314 478 m 314 881 l 424 881 l 424 771 l 314 771 l 314 651 l 574 651 q 796 560 713 651 q 879 314 879 468 q 795 81 879 161 q 553 0 711 0 l 106 0 l 106 771 l 8 771 l 8 881 l 106 881 l 106 1013 l 314 1013 l 314 881 z "},"ҍ":{"ha":781,"x_min":-28,"x_max":750,"o":"m 278 310 l 278 153 l 447 153 q 531 172 506 153 q 557 236 557 190 q 533 296 557 282 q 447 310 508 310 l 278 310 m 278 654 l 388 654 l 388 544 l 278 544 l 278 463 l 439 463 q 669 398 590 463 q 750 215 747 333 q 730 126 750 169 q 676 54 710 82 q 488 0 613 0 l 83 0 l 83 544 l -28 544 l -28 654 l 83 654 l 83 750 l 278 750 l 278 654 z "},"Ҏ":{"ha":926,"x_min":106,"x_max":879,"o":"m 650 594 q 671 686 671 631 q 631 801 671 764 q 508 839 592 839 l 314 839 l 314 535 l 508 535 q 551 538 526 535 l 489 600 l 567 678 l 650 594 m 794 450 l 860 385 l 782 307 l 703 386 q 574 361 647 361 l 314 361 l 314 0 l 106 0 l 106 1013 l 553 1013 q 795 932 711 1013 q 879 699 879 851 q 794 450 879 543 z "},"ҏ":{"ha":849,"x_min":81,"x_max":797,"o":"m 575 226 q 603 361 603 282 q 558 534 603 468 q 439 600 513 600 q 320 535 365 600 q 275 364 275 469 q 320 194 275 258 q 439 129 365 129 q 501 144 471 129 l 425 221 l 503 299 l 575 226 m 714 88 l 796 6 l 718 -72 l 635 11 q 483 -33 564 -33 q 275 89 344 -33 l 275 -303 l 81 -303 l 81 750 l 275 750 l 275 639 q 483 763 344 763 q 615 730 551 763 q 717 644 679 697 q 797 364 797 532 q 714 88 797 200 z "},"Ґ":{"ha":849,"x_min":103,"x_max":814,"o":"m 311 0 l 103 0 l 103 1013 l 606 1011 l 606 1200 l 814 1200 l 814 839 l 311 839 l 311 0 z "},"ґ":{"ha":631,"x_min":89,"x_max":572,"o":"m 572 925 l 572 593 l 283 593 l 283 0 l 89 0 l 89 750 l 394 750 l 394 925 l 572 925 z "},"Ғ":{"ha":849,"x_min":6,"x_max":825,"o":"m 322 610 l 588 610 l 588 436 l 322 436 l 322 0 l 114 0 l 114 436 l 6 436 l 6 610 l 114 610 l 114 1013 l 825 1013 l 825 839 l 322 839 l 322 610 z "},"ғ":{"ha":631,"x_min":-8,"x_max":567,"o":"m 83 457 l 83 750 l 567 750 l 567 593 l 278 593 l 278 457 l 422 457 l 422 332 l 278 332 l 278 0 l 83 0 l 83 332 l -8 332 l -8 457 l 83 457 z "},"Ҕ":{"ha":849,"x_min":103,"x_max":832,"o":"m 311 0 l 103 0 l 103 1013 l 814 1013 l 814 839 l 311 839 l 311 700 l 488 700 q 736 613 640 700 q 832 392 832 525 l 832 69 q 736 -151 832 -64 q 488 -239 640 -239 l 436 -239 l 436 -65 l 471 -65 q 579 -27 535 -65 q 624 78 624 11 l 624 383 q 579 488 624 450 q 471 526 535 526 l 311 526 l 311 0 z "},"ҕ":{"ha":811,"x_min":83,"x_max":742,"o":"m 278 174 l 278 0 l 83 0 l 83 750 l 567 750 l 567 593 l 278 593 l 278 379 q 350 441 306 424 q 469 458 394 458 q 577 443 519 458 q 665 401 635 428 q 742 199 742 338 l 742 0 q 665 -203 742 -139 q 497 -260 597 -260 l 428 -260 l 428 -94 q 525 -49 492 -94 q 547 44 547 -15 l 547 154 q 510 263 547 232 q 400 293 474 293 q 308 258 339 293 q 278 174 278 224 z "},"Җ":{"ha":1518,"x_min":31,"x_max":1497,"o":"m 1356 150 l 1497 150 l 1497 -208 l 1310 -208 l 1310 0 l 1249 0 l 868 396 l 868 0 l 660 0 l 660 396 l 279 0 l 31 0 l 526 525 l 92 1013 l 319 1013 l 660 625 l 660 1013 l 868 1013 l 868 625 l 1208 1013 l 1436 1013 l 1001 525 l 1356 150 z "},"җ":{"ha":1124,"x_min":22,"x_max":1094,"o":"m 993 140 l 1094 140 l 1094 -174 l 942 -174 l 942 0 l 846 0 l 656 275 l 656 0 l 461 0 l 461 275 l 271 0 l 22 0 l 318 411 l 72 750 l 278 750 l 461 488 l 461 750 l 656 750 l 656 488 l 839 750 l 1044 750 l 799 411 l 993 140 z "},"Ҙ":{"ha":933,"x_min":44,"x_max":879,"o":"m 389 -28 q 142 72 231 -12 q 44 303 53 157 l 247 303 q 311 178 253 221 q 475 135 369 135 q 624 171 569 135 q 679 271 679 207 q 633 383 679 339 q 489 428 588 428 l 347 428 l 347 594 l 453 594 q 644 738 644 594 q 597 828 644 794 q 469 863 550 863 q 257 704 268 863 l 63 704 q 133 914 63 835 q 460 1029 238 1029 q 742 948 642 1029 q 843 718 843 867 q 756 524 843 589 q 879 296 879 456 q 783 67 879 153 q 514 -31 688 -19 q 622 -193 622 -94 q 569 -290 622 -254 q 422 -325 515 -325 q 313 -311 367 -325 l 313 -246 q 392 -254 350 -254 q 497 -185 497 -254 q 474 -104 497 -139 q 389 -28 451 -69 z "},"ҙ":{"ha":758,"x_min":40,"x_max":722,"o":"m 454 -29 q 564 -193 564 -94 q 510 -290 564 -254 q 364 -325 457 -325 q 254 -311 308 -325 l 254 -246 q 333 -254 292 -254 q 439 -185 439 -254 q 416 -106 439 -139 q 333 -29 393 -72 q 40 218 49 -8 l 231 218 q 268 147 242 167 q 383 121 308 121 q 490 140 451 121 q 528 194 528 160 q 526 223 528 213 q 515 252 524 233 q 480 280 506 271 q 414 289 454 289 l 286 289 l 286 442 l 417 442 q 447 444 433 442 q 469 451 460 446 q 485 460 478 456 q 496 473 492 464 q 503 487 500 482 q 506 501 506 492 q 507 515 507 511 q 507 529 507 518 l 507 540 q 476 591 507 572 q 394 610 446 610 q 254 508 256 610 l 67 508 q 156 695 69 628 q 393 763 242 763 q 619 695 536 763 q 701 513 701 628 q 660 390 701 436 q 649 383 657 388 q 640 376 642 378 q 722 222 722 325 q 633 35 722 106 q 454 -29 568 -18 z "},"Қ":{"ha":1042,"x_min":114,"x_max":1007,"o":"m 850 150 l 1007 150 l 1007 -208 l 826 -208 l 826 0 l 729 0 l 322 396 l 322 0 l 114 0 l 114 1013 l 322 1013 l 322 625 l 718 1013 l 964 1013 l 456 525 l 850 150 z "},"қ":{"ha":796,"x_min":83,"x_max":763,"o":"m 643 140 l 763 140 l 763 -174 l 610 -174 l 610 0 l 510 0 l 278 275 l 278 0 l 83 0 l 83 750 l 278 750 l 278 488 l 503 750 l 708 750 l 411 411 l 643 140 z "},"Ҝ":{"ha":1003,"x_min":114,"x_max":1007,"o":"m 383 336 l 322 396 l 322 0 l 114 0 l 114 1013 l 322 1013 l 322 625 l 383 685 l 383 888 l 493 888 l 493 792 l 718 1013 l 964 1013 l 493 561 l 493 489 l 1007 0 l 729 0 l 493 229 l 493 139 l 383 139 l 383 336 z "},"ҝ":{"ha":796,"x_min":83,"x_max":763,"o":"m 328 215 l 278 275 l 278 0 l 83 0 l 83 750 l 278 750 l 278 488 l 328 546 l 328 721 l 438 721 l 438 674 l 503 750 l 708 750 l 438 442 l 438 381 l 763 0 l 510 0 l 438 86 l 438 49 l 328 49 l 328 215 z "},"Ҟ":{"ha":1003,"x_min":3,"x_max":1006,"o":"m 311 925 l 418 925 l 418 815 l 311 815 l 311 625 l 707 1013 l 953 1013 l 444 525 l 1006 0 l 747 0 l 311 396 l 311 0 l 103 0 l 103 815 l 3 815 l 3 925 l 103 925 l 103 1013 l 311 1013 l 311 925 z "},"ҟ":{"ha":796,"x_min":11,"x_max":761,"o":"m 276 696 l 351 696 l 351 614 l 276 614 l 276 488 l 501 750 l 707 750 l 410 411 l 761 0 l 508 0 l 276 275 l 276 0 l 82 0 l 82 614 l 11 614 l 11 696 l 82 696 l 82 750 l 276 750 l 276 696 z "},"Ҡ":{"ha":1267,"x_min":19,"x_max":1232,"o":"m 547 1013 l 547 625 l 943 1013 l 1189 1013 l 681 525 l 1232 0 l 954 0 l 547 396 l 547 0 l 339 0 l 339 839 l 19 839 l 19 1013 l 547 1013 z "},"ҡ":{"ha":978,"x_min":28,"x_max":944,"o":"m 460 750 l 460 488 l 685 750 l 890 750 l 593 411 l 944 0 l 692 0 l 460 275 l 460 0 l 265 0 l 265 593 l 28 593 l 28 750 l 460 750 z "},"Ң":{"ha":1046,"x_min":114,"x_max":1099,"o":"m 932 150 l 1099 150 l 1099 -208 l 911 -208 l 911 0 l 724 0 l 724 460 l 322 460 l 322 0 l 114 0 l 114 1013 l 322 1013 l 322 633 l 722 633 l 722 1013 l 932 1013 l 932 150 z "},"ң":{"ha":844,"x_min":83,"x_max":874,"o":"m 754 140 l 874 140 l 874 -174 l 721 -174 l 721 0 l 560 0 l 560 288 l 278 288 l 278 0 l 83 0 l 83 750 l 278 750 l 278 444 l 560 444 l 560 750 l 754 750 l 754 140 z "},"Ҥ":{"ha":1368,"x_min":94,"x_max":1344,"o":"m 911 0 l 704 0 l 704 460 l 303 460 l 303 0 l 94 0 l 94 1013 l 303 1013 l 303 633 l 703 633 l 703 1013 l 1344 1013 l 1344 839 l 911 839 l 911 0 z "},"ҥ":{"ha":1093,"x_min":83,"x_max":1029,"o":"m 754 0 l 560 0 l 560 288 l 278 288 l 278 0 l 83 0 l 83 750 l 278 750 l 278 444 l 560 444 l 560 750 l 1029 750 l 1029 593 l 754 593 l 754 0 z "},"Ҧ":{"ha":1517,"x_min":94,"x_max":1433,"o":"m 913 0 l 704 0 l 704 839 l 303 839 l 303 0 l 94 0 l 94 1013 l 913 1013 l 913 700 l 1089 700 q 1338 613 1242 700 q 1433 392 1433 525 l 1433 69 q 1338 -151 1433 -64 q 1089 -239 1242 -239 l 1038 -239 l 1038 -65 l 1072 -65 q 1181 -27 1136 -65 q 1225 78 1225 11 l 1225 383 q 1181 488 1225 450 q 1072 526 1136 526 l 913 526 l 913 0 z "},"ҧ":{"ha":1285,"x_min":83,"x_max":1218,"o":"m 754 750 l 754 379 q 826 441 782 424 q 946 458 871 458 q 1053 443 996 458 q 1142 401 1111 428 q 1218 199 1218 338 l 1218 0 q 1142 -203 1218 -139 q 974 -260 1074 -260 l 904 -260 l 904 -94 q 1001 -49 968 -94 q 1024 44 1024 -15 l 1024 154 q 987 263 1024 232 q 876 293 950 293 q 785 258 815 293 q 754 174 754 224 l 754 0 l 560 0 l 560 593 l 278 593 l 278 0 l 83 0 l 83 750 l 754 750 z "},"Ҩ":{"ha":1003,"x_min":61,"x_max":990,"o":"m 525 143 q 632 164 586 143 q 549 418 549 272 q 604 576 549 522 q 747 631 660 631 q 891 571 828 631 q 954 425 954 511 q 901 169 954 272 q 990 119 943 143 l 897 -31 q 782 35 824 4 q 519 -32 681 -32 q 185 110 308 -32 q 61 497 61 253 q 186 886 61 743 q 525 1029 311 1029 q 879 869 758 1029 q 947 669 938 792 l 749 669 q 703 778 732 742 q 532 851 644 851 q 339 757 408 851 q 269 494 269 663 q 336 235 269 328 q 525 143 403 143 m 751 301 q 774 442 774 360 q 765 462 774 451 q 746 472 756 472 q 724 461 732 472 q 715 436 715 450 q 751 301 715 360 z "},"ҩ":{"ha":772,"x_min":47,"x_max":744,"o":"m 400 125 q 444 132 419 125 q 390 279 390 200 q 438 397 390 357 q 558 436 485 436 q 677 393 629 436 q 725 278 725 350 q 683 122 725 194 q 714 109 694 118 q 744 96 733 100 l 694 -37 q 579 18 638 -17 q 399 -32 499 -32 q 140 71 232 -32 q 47 360 47 174 q 140 657 47 551 q 401 763 233 763 q 628 685 542 763 q 725 469 715 607 l 539 469 q 491 574 522 543 q 400 606 460 606 q 279 542 314 606 q 242 360 242 471 q 284 188 242 250 q 400 125 326 125 m 556 215 q 578 289 578 251 q 569 311 578 297 q 553 325 561 325 q 537 312 543 325 q 531 286 531 299 q 556 215 531 250 z "},"Ҫ":{"ha":1003,"x_min":61,"x_max":951,"o":"m 446 -26 q 164 137 267 -3 q 61 497 61 276 q 186 886 61 743 q 525 1029 311 1029 q 879 869 758 1029 q 947 669 938 792 l 749 669 q 703 778 732 742 q 532 851 644 851 q 339 757 408 851 q 269 494 269 663 q 337 236 269 329 q 525 143 404 143 q 681 196 622 143 q 749 346 739 249 l 951 346 q 841 85 943 185 q 572 -29 739 -15 q 681 -193 681 -96 q 627 -290 681 -254 q 481 -325 574 -325 q 371 -311 425 -325 l 371 -246 q 450 -254 408 -254 q 556 -185 556 -254 q 532 -104 556 -139 q 446 -26 508 -69 z "},"ҫ":{"ha":772,"x_min":47,"x_max":725,"o":"m 329 -26 q 121 95 194 -6 q 47 360 47 196 q 140 657 47 551 q 401 763 233 763 q 628 685 542 763 q 725 469 715 607 l 539 469 q 491 574 522 543 q 400 606 460 606 q 279 542 314 606 q 242 360 242 471 q 284 188 242 250 q 400 125 326 125 q 489 156 457 125 q 539 260 521 188 l 725 260 q 640 63 713 139 q 453 -28 568 -12 q 564 -193 564 -93 q 510 -290 564 -254 q 364 -325 457 -325 q 254 -311 308 -325 l 254 -246 q 333 -254 292 -254 q 439 -185 439 -254 q 415 -104 439 -139 q 329 -26 392 -69 z "},"Ҭ":{"ha":849,"x_min":19,"x_max":831,"o":"m 535 150 l 701 150 l 701 -208 l 514 -208 l 514 0 l 326 0 l 326 839 l 19 839 l 19 1013 l 831 1013 l 831 839 l 535 839 l 535 150 z "},"ҭ":{"ha":631,"x_min":29,"x_max":599,"o":"m 411 140 l 531 140 l 531 -174 l 378 -174 l 378 0 l 217 0 l 217 593 l 29 593 l 29 750 l 599 750 l 599 593 l 411 593 l 411 140 z "},"Ү":{"ha":926,"x_min":38,"x_max":903,"o":"m 582 375 l 582 0 l 374 0 l 374 375 l 38 1013 l 269 1013 l 476 565 l 669 1013 l 903 1013 l 582 375 z "},"ү":{"ha":926,"x_min":79,"x_max":861,"o":"m 582 113 l 582 -262 l 374 -262 l 374 113 l 79 750 l 311 750 l 476 303 l 628 750 l 861 750 l 582 113 z "},"Ұ":{"ha":926,"x_min":38,"x_max":903,"o":"m 374 201 l 96 201 l 96 346 l 374 346 l 374 375 l 38 1013 l 269 1013 l 476 565 l 669 1013 l 903 1013 l 582 375 l 582 346 l 860 346 l 860 201 l 582 201 l 582 0 l 374 0 l 374 201 z "},"ұ":{"ha":926,"x_min":79,"x_max":861,"o":"m 582 -32 l 582 -262 l 374 -262 l 374 -32 l 96 -32 l 96 113 l 374 113 l 79 750 l 311 750 l 476 303 l 628 750 l 861 750 l 582 113 l 860 113 l 860 -32 l 582 -32 z "},"Ҳ":{"ha":926,"x_min":31,"x_max":907,"o":"m 813 150 l 907 150 l 907 -208 l 726 -208 l 726 0 l 660 0 l 465 351 l 272 0 l 31 0 l 350 510 l 42 1013 l 289 1013 l 467 679 l 653 1013 l 894 1013 l 582 517 l 813 150 z "},"ҳ":{"ha":772,"x_min":22,"x_max":743,"o":"m 650 140 l 743 140 l 743 -174 l 590 -174 l 590 0 l 510 0 l 383 233 l 256 0 l 22 0 l 272 378 l 28 750 l 261 750 l 383 524 l 504 750 l 738 750 l 493 378 l 650 140 z "},"Ҵ":{"ha":1321,"x_min":19,"x_max":1256,"o":"m 285 839 l 19 839 l 19 1013 l 747 1013 l 747 839 l 493 839 l 493 174 l 894 174 l 894 1013 l 1103 1013 l 1103 150 l 1256 150 l 1256 -208 l 1075 -208 l 1075 0 l 285 0 l 285 839 z "},"ҵ":{"ha":1025,"x_min":29,"x_max":993,"o":"m 189 593 l 29 593 l 29 750 l 543 750 l 543 593 l 383 593 l 383 157 l 665 157 l 665 750 l 860 750 l 860 140 l 993 140 l 993 -174 l 840 -174 l 840 0 l 189 0 l 189 593 z "},"Ҷ":{"ha":1085,"x_min":94,"x_max":1019,"o":"m 839 0 l 658 0 l 658 313 l 439 313 q 190 400 286 313 q 94 621 94 488 l 94 1013 l 303 1013 l 303 629 q 347 524 303 563 q 456 486 392 486 l 657 486 l 657 1013 l 867 1013 l 867 150 l 1019 150 l 1019 -208 l 839 -208 l 839 0 z "},"ҷ":{"ha":871,"x_min":83,"x_max":839,"o":"m 686 0 l 525 0 l 525 226 l 389 226 q 172 288 261 226 q 83 479 83 350 l 83 750 l 278 750 l 278 481 q 307 408 278 432 q 386 383 336 383 l 525 383 l 525 750 l 719 750 l 719 140 l 839 140 l 839 -174 l 686 -174 l 686 0 z "},"Ҹ":{"ha":951,"x_min":94,"x_max":867,"o":"m 428 489 l 428 610 l 538 610 l 538 486 l 657 486 l 657 1013 l 867 1013 l 867 0 l 658 0 l 658 313 l 538 313 l 538 194 l 428 194 l 428 313 q 189 401 283 313 q 94 621 94 490 l 94 1013 l 303 1013 l 303 629 q 338 534 303 571 q 428 489 374 497 z "},"ҹ":{"ha":803,"x_min":83,"x_max":719,"o":"m 344 228 q 158 300 232 238 q 83 479 83 363 l 83 750 l 278 750 l 278 481 q 344 389 278 407 l 344 526 l 454 526 l 454 383 l 525 383 l 525 750 l 719 750 l 719 0 l 525 0 l 525 226 l 454 226 l 454 111 l 344 111 l 344 228 z "},"Һ":{"ha":951,"x_min":94,"x_max":867,"o":"m 303 700 l 522 700 q 771 613 675 700 q 867 392 867 525 l 867 0 l 658 0 l 658 383 q 614 488 658 450 q 506 526 569 526 l 304 526 l 304 0 l 94 0 l 94 1013 l 303 1013 l 303 700 z "},"һ":{"ha":803,"x_min":83,"x_max":719,"o":"m 719 0 l 525 0 l 525 269 q 496 342 525 318 q 417 367 467 367 l 278 367 l 278 0 l 83 0 l 83 750 l 278 750 l 278 524 l 414 524 q 631 462 542 524 q 719 271 719 400 l 719 0 z "},"Ҽ":{"ha":1329,"x_min":35,"x_max":1278,"o":"m 614 651 l 1075 651 q 1007 801 1065 749 q 851 854 949 854 q 700 801 761 854 q 614 651 639 749 m 388 504 q 118 587 201 506 q 35 793 35 668 q 90 972 35 908 q 247 1035 146 1035 q 383 988 332 1035 q 440 858 433 940 l 329 858 q 299 922 318 903 q 246 940 281 940 q 174 901 193 940 q 151 793 151 860 q 176 689 151 726 q 247 651 201 651 l 401 651 q 554 929 438 829 q 846 1029 671 1029 q 1160 896 1043 1029 q 1278 504 1278 763 l 596 504 q 665 239 596 332 q 858 146 733 146 q 1029 219 971 146 q 1075 328 1058 256 l 1274 328 q 1206 128 1264 206 q 851 -32 1085 -32 q 513 111 638 -32 q 388 500 388 254 l 388 504 z "},"ҽ":{"ha":994,"x_min":28,"x_max":947,"o":"m 482 494 l 754 494 q 707 580 738 554 q 622 606 676 606 q 501 542 536 606 q 482 494 489 517 m 269 361 q 89 432 150 363 q 28 588 28 501 q 65 706 28 664 q 169 749 103 749 q 261 718 226 749 q 300 632 296 688 l 225 632 q 169 686 214 686 q 121 661 136 686 q 106 588 106 633 q 123 519 106 544 q 169 494 140 494 l 283 494 q 401 693 313 624 q 624 763 489 763 q 851 685 764 763 q 947 469 938 607 l 947 361 l 464 361 q 506 187 464 249 q 622 125 547 125 q 711 156 679 125 q 761 260 743 188 l 947 260 q 845 47 933 125 q 621 -32 757 -32 q 362 71 454 -32 q 269 360 269 174 l 269 361 z "},"Ҿ":{"ha":1329,"x_min":35,"x_max":1278,"o":"m 614 651 l 1075 651 q 1007 801 1065 749 q 851 854 949 854 q 700 801 761 854 q 614 651 639 749 m 913 -29 q 1022 -193 1022 -93 q 969 -290 1022 -254 q 822 -325 915 -325 q 713 -311 767 -325 l 713 -246 q 792 -254 750 -254 q 897 -185 897 -254 q 874 -105 897 -139 q 790 -29 851 -71 q 495 132 603 -8 q 388 500 388 272 l 388 504 q 118 587 201 506 q 35 793 35 668 q 90 972 35 908 q 247 1035 146 1035 q 383 988 332 1035 q 440 858 433 940 l 329 858 q 299 922 318 903 q 246 940 281 940 q 174 901 193 940 q 151 793 151 860 q 176 689 151 726 q 247 651 201 651 l 401 651 q 554 929 438 829 q 846 1029 671 1029 q 1160 896 1043 1029 q 1278 504 1278 763 l 596 504 q 665 239 596 332 q 858 146 733 146 q 1029 219 971 146 q 1075 328 1058 256 l 1274 328 q 1206 128 1264 206 q 913 -29 1104 -8 z "},"ҿ":{"ha":994,"x_min":28,"x_max":947,"o":"m 482 494 l 754 494 q 707 580 738 554 q 622 606 676 606 q 501 542 536 606 q 482 494 489 517 m 553 -26 q 343 94 417 -7 q 269 360 269 194 l 269 361 q 89 432 150 363 q 28 588 28 501 q 65 706 28 664 q 169 749 103 749 q 261 718 226 749 q 300 632 296 688 l 225 632 q 169 686 214 686 q 121 661 136 686 q 106 588 106 633 q 123 519 106 544 q 169 494 140 494 l 283 494 q 401 693 313 624 q 624 763 489 763 q 851 685 764 763 q 947 469 938 607 l 947 361 l 464 361 q 506 187 464 249 q 622 125 547 125 q 711 156 679 125 q 761 260 743 188 l 947 260 q 863 64 935 140 q 676 -28 790 -12 q 788 -193 788 -94 q 734 -290 788 -254 q 588 -325 681 -325 q 478 -311 532 -325 l 478 -246 q 557 -254 515 -254 q 663 -185 663 -254 q 639 -104 663 -139 q 553 -26 615 -69 z "},"Ӏ":{"ha":386,"x_min":88,"x_max":296,"o":"m 296 1013 l 296 0 l 88 0 l 88 1013 l 296 1013 z "},"Ӂ":{"ha":1518,"x_min":31,"x_max":1497,"o":"m 947 1311 l 947 1296 q 894 1165 947 1218 q 764 1113 842 1113 q 633 1165 686 1113 q 581 1297 581 1218 l 581 1311 l 658 1311 q 765 1219 671 1219 q 869 1311 854 1219 l 947 1311 m 660 396 l 286 0 l 31 0 l 526 525 l 92 1013 l 319 1013 l 660 625 l 660 1013 l 868 1013 l 868 625 l 1208 1013 l 1436 1013 l 1001 525 l 1497 0 l 1242 0 l 868 396 l 868 0 l 660 0 l 660 396 z "},"ӂ":{"ha":1124,"x_min":22,"x_max":1094,"o":"m 742 1044 l 742 1029 q 689 899 742 951 q 558 846 636 846 q 428 899 481 846 q 375 1031 375 951 l 375 1044 l 453 1044 q 560 953 465 953 q 664 1044 649 953 l 742 1044 m 461 275 l 271 0 l 22 0 l 318 411 l 72 750 l 278 750 l 461 488 l 461 750 l 656 750 l 656 488 l 839 750 l 1044 750 l 799 411 l 1094 0 l 846 0 l 656 275 l 656 0 l 461 0 l 461 275 z "},"Ӄ":{"ha":1042,"x_min":114,"x_max":964,"o":"m 533 525 q 782 438 686 525 q 878 217 878 350 l 878 69 q 782 -151 878 -64 q 533 -239 686 -239 l 482 -239 l 482 -65 l 517 -65 q 625 -27 581 -65 q 669 78 669 11 l 669 208 q 625 313 669 275 q 517 351 581 351 l 322 351 l 322 0 l 114 0 l 114 1013 l 322 1013 l 322 625 l 718 1013 l 964 1013 l 456 525 l 533 525 z "},"ӄ":{"ha":796,"x_min":83,"x_max":708,"o":"m 438 413 q 617 345 551 413 q 682 153 682 278 l 682 -1 q 617 -194 682 -126 q 438 -261 551 -261 l 368 -261 l 368 -96 q 488 43 488 -96 l 488 108 q 368 247 488 247 l 278 247 l 278 0 l 83 0 l 83 750 l 278 750 l 278 488 l 503 750 l 708 750 l 411 411 l 438 413 z "},"Ӈ":{"ha":1003,"x_min":94,"x_max":913,"o":"m 704 78 l 704 460 l 303 460 l 303 0 l 94 0 l 94 1013 l 303 1013 l 303 633 l 703 633 l 703 1013 l 913 1013 l 913 69 q 817 -151 913 -64 q 568 -239 721 -239 l 517 -239 l 517 -65 l 551 -65 q 660 -27 615 -65 q 704 78 704 11 z "},"ӈ":{"ha":844,"x_min":83,"x_max":754,"o":"m 560 44 l 560 288 l 278 288 l 278 0 l 83 0 l 83 750 l 278 750 l 278 444 l 560 444 l 560 750 l 754 750 l 754 0 q 689 -192 754 -125 q 510 -260 624 -260 l 440 -260 l 440 -94 q 560 44 560 -94 z "},"Ӌ":{"ha":951,"x_min":94,"x_max":867,"o":"m 686 0 l 686 -208 l 506 -208 l 506 150 l 658 150 l 658 313 l 439 313 q 190 400 286 313 q 94 621 94 488 l 94 1013 l 303 1013 l 303 629 q 347 524 303 563 q 456 486 392 486 l 657 486 l 657 1013 l 867 1013 l 867 0 l 686 0 z "},"ӌ":{"ha":803,"x_min":83,"x_max":719,"o":"m 558 0 l 558 -174 l 406 -174 l 406 140 l 525 140 l 525 226 l 389 226 q 172 288 261 226 q 83 479 83 350 l 83 750 l 278 750 l 278 481 q 307 408 278 432 q 386 383 336 383 l 525 383 l 525 750 l 719 750 l 719 0 l 558 0 z "},"Ӑ":{"ha":1003,"x_min":36,"x_max":976,"o":"m 694 1311 l 694 1296 q 642 1165 694 1218 q 511 1113 589 1113 q 381 1165 433 1113 q 328 1297 328 1218 l 328 1311 l 406 1311 q 513 1219 418 1219 q 617 1311 601 1219 l 694 1311 m 697 204 l 317 204 l 249 0 l 36 0 l 396 1013 l 626 1013 l 976 0 l 767 0 l 697 204 m 639 378 l 507 774 l 375 378 l 639 378 z "},"ӑ":{"ha":772,"x_min":39,"x_max":728,"o":"m 560 1044 l 560 1029 q 507 899 560 951 q 376 846 454 846 q 246 899 299 846 q 193 1031 193 951 l 193 1044 l 271 1044 q 378 953 283 953 q 482 1044 467 953 l 560 1044 m 728 24 l 728 0 l 517 0 q 494 75 494 28 q 267 -32 392 -32 q 92 39 160 -32 q 39 193 39 96 q 260 429 39 389 l 338 443 q 460 472 439 461 q 493 531 493 490 q 381 606 493 606 q 279 583 308 606 q 243 503 250 561 l 56 503 q 376 763 74 763 q 683 532 683 763 l 683 115 q 728 24 683 64 m 493 301 l 493 354 q 411 331 467 342 l 344 318 q 260 283 286 307 q 233 215 233 258 q 262 149 233 174 q 339 125 290 125 q 453 171 413 125 q 493 301 493 217 z "},"Ӓ":{"ha":1003,"x_min":36,"x_max":976,"o":"m 458 1282 l 458 1113 l 306 1113 l 306 1282 l 458 1282 m 717 1282 l 717 1113 l 564 1113 l 564 1282 l 717 1282 m 697 204 l 317 204 l 249 0 l 36 0 l 396 1013 l 626 1013 l 976 0 l 767 0 l 697 204 m 639 378 l 507 774 l 375 378 l 639 378 z "},"ӓ":{"ha":772,"x_min":39,"x_max":728,"o":"m 324 1015 l 324 846 l 171 846 l 171 1015 l 324 1015 m 582 1015 l 582 846 l 429 846 l 429 1015 l 582 1015 m 728 24 l 728 0 l 517 0 q 494 75 494 28 q 267 -32 392 -32 q 92 39 160 -32 q 39 193 39 96 q 260 429 39 389 l 338 443 q 460 472 439 461 q 493 531 493 490 q 381 606 493 606 q 279 583 308 606 q 243 503 250 561 l 56 503 q 376 763 74 763 q 683 532 683 763 l 683 115 q 728 24 683 64 m 493 301 l 493 354 q 411 331 467 342 l 344 318 q 260 283 286 307 q 233 215 233 258 q 262 149 233 174 q 339 125 290 125 q 453 171 413 125 q 493 301 493 217 z "},"Ӕ":{"ha":1389,"x_min":1,"x_max":1342,"o":"m 597 211 l 288 211 l 214 0 l 1 0 l 367 1013 l 1314 1013 l 1314 839 l 806 839 l 806 610 l 1276 610 l 1276 436 l 806 436 l 806 174 l 1342 174 l 1342 0 l 597 0 l 597 211 m 597 385 l 597 839 l 504 839 l 346 385 l 597 385 z "},"ӕ":{"ha":1235,"x_min":38,"x_max":1190,"o":"m 989 211 l 1181 211 q 1054 34 1149 100 q 833 -32 960 -32 q 556 113 644 -32 q 271 -33 432 -33 q 101 28 164 -33 q 38 196 38 90 q 258 433 38 397 l 336 447 q 458 476 432 463 q 492 532 492 494 q 374 606 492 606 q 278 583 308 606 q 242 503 249 560 l 60 503 q 376 763 64 763 q 619 693 539 763 q 835 763 706 763 q 1037 705 951 763 q 1161 544 1122 647 q 1190 347 1190 461 q 1189 314 1190 331 l 686 314 q 714 185 686 228 q 844 117 758 117 q 935 144 894 117 q 989 211 976 171 m 492 300 l 492 353 q 410 326 461 335 l 343 317 q 232 215 232 301 q 260 148 232 172 q 338 124 289 124 q 452 169 413 124 q 492 300 492 214 m 688 443 l 988 443 q 836 614 972 614 q 688 443 700 614 z "},"Ӗ":{"ha":985,"x_min":114,"x_max":871,"o":"m 664 1311 l 664 1296 q 611 1165 664 1218 q 481 1113 558 1113 q 349 1165 401 1113 q 297 1297 297 1218 l 297 1311 l 375 1311 q 481 1219 388 1219 q 586 1311 571 1219 l 664 1311 m 322 436 l 322 174 l 871 174 l 871 0 l 114 0 l 114 1013 l 846 1013 l 846 839 l 322 839 l 322 610 l 807 610 l 807 436 l 322 436 z "},"ӗ":{"ha":772,"x_min":31,"x_max":729,"o":"m 561 1044 l 561 1029 q 508 899 561 951 q 378 846 456 846 q 247 899 300 846 q 194 1031 194 951 l 194 1044 l 272 1044 q 379 953 285 953 q 483 1044 468 953 l 561 1044 m 728 314 l 225 314 q 253 182 229 219 q 381 117 296 117 q 529 211 492 117 l 721 211 q 594 34 689 100 q 374 -32 500 -32 q 122 72 214 -32 q 31 356 31 175 q 124 653 31 544 q 378 763 217 763 q 577 705 492 763 q 700 544 663 647 q 729 347 729 460 q 728 314 729 331 m 228 443 l 526 443 q 496 551 521 513 q 375 614 451 614 q 228 443 247 614 z "},"Ә":{"ha":1003,"x_min":61,"x_max":951,"o":"m 725 346 l 264 346 q 332 196 274 249 q 488 143 390 143 q 639 196 578 143 q 725 346 700 249 m 743 493 q 674 758 743 665 q 481 851 606 851 q 310 778 368 851 q 264 669 281 742 l 65 669 q 133 869 75 792 q 488 1029 254 1029 q 826 886 701 1029 q 951 497 951 743 q 828 110 951 253 q 493 -32 704 -32 q 178 101 296 -32 q 61 493 61 235 l 743 493 z "},"ә":{"ha":772,"x_min":47,"x_max":725,"o":"m 531 369 l 531 371 q 488 543 531 481 q 372 606 446 606 q 283 574 315 606 q 233 471 251 543 l 47 471 q 149 684 61 606 q 374 763 238 763 q 633 660 540 763 q 725 371 725 557 q 632 74 725 179 q 371 -32 539 -32 q 144 46 231 -32 q 47 261 57 124 l 47 369 l 531 369 m 513 236 l 240 236 q 288 151 257 176 q 372 125 318 125 q 493 189 458 125 q 513 236 506 214 z "},"Ӛ":{"ha":1003,"x_min":61,"x_max":951,"o":"m 435 1282 l 435 1113 l 282 1113 l 282 1282 l 435 1282 m 693 1282 l 693 1113 l 540 1113 l 540 1282 l 693 1282 m 725 346 l 264 346 q 332 196 274 249 q 488 143 390 143 q 639 196 578 143 q 725 346 700 249 m 743 493 q 674 758 743 665 q 481 851 606 851 q 310 778 368 851 q 264 669 281 742 l 65 669 q 133 869 75 792 q 488 1029 254 1029 q 826 886 701 1029 q 951 497 951 743 q 828 110 951 253 q 493 -32 704 -32 q 178 101 296 -32 q 61 493 61 235 l 743 493 z "},"ӛ":{"ha":772,"x_min":47,"x_max":725,"o":"m 321 1015 l 321 846 l 168 846 l 168 1015 l 321 1015 m 579 1015 l 579 846 l 426 846 l 426 1015 l 579 1015 m 531 369 l 531 371 q 488 543 531 481 q 372 606 446 606 q 283 574 315 606 q 233 471 251 543 l 47 471 q 149 684 61 606 q 374 763 238 763 q 633 660 540 763 q 725 371 725 557 q 632 74 725 179 q 371 -32 539 -32 q 144 46 231 -32 q 47 261 57 124 l 47 369 l 531 369 m 513 236 l 240 236 q 288 151 257 176 q 372 125 318 125 q 493 189 458 125 q 513 236 506 214 z "},"Ӝ":{"ha":1518,"x_min":31,"x_max":1497,"o":"m 711 1282 l 711 1113 l 558 1113 l 558 1282 l 711 1282 m 969 1282 l 969 1113 l 817 1113 l 817 1282 l 969 1282 m 660 396 l 286 0 l 31 0 l 526 525 l 92 1013 l 319 1013 l 660 625 l 660 1013 l 868 1013 l 868 625 l 1208 1013 l 1436 1013 l 1001 525 l 1497 0 l 1242 0 l 868 396 l 868 0 l 660 0 l 660 396 z "},"ӝ":{"ha":1124,"x_min":22,"x_max":1094,"o":"m 506 1015 l 506 846 l 353 846 l 353 1015 l 506 1015 m 764 1015 l 764 846 l 611 846 l 611 1015 l 764 1015 m 461 275 l 271 0 l 22 0 l 318 411 l 72 750 l 278 750 l 461 488 l 461 750 l 656 750 l 656 488 l 839 750 l 1044 750 l 799 411 l 1094 0 l 846 0 l 656 275 l 656 0 l 461 0 l 461 275 z "},"Ӟ":{"ha":933,"x_min":44,"x_max":879,"o":"m 407 1282 l 407 1113 l 254 1113 l 254 1282 l 407 1282 m 665 1282 l 665 1113 l 513 1113 l 513 1282 l 665 1282 m 347 594 l 453 594 q 644 738 644 594 q 597 828 644 794 q 469 863 550 863 q 257 704 268 863 l 63 704 q 133 914 63 835 q 460 1029 238 1029 q 742 948 642 1029 q 843 718 843 867 q 756 524 843 589 q 879 296 879 456 q 769 55 879 142 q 464 -32 660 -32 q 162 54 269 -32 q 44 303 54 140 l 247 303 q 311 178 253 221 q 475 135 369 135 q 624 171 569 135 q 679 271 679 207 q 633 383 679 339 q 489 428 588 428 l 347 428 l 347 594 z "},"ӟ":{"ha":758,"x_min":40,"x_max":722,"o":"m 340 1015 l 340 846 l 188 846 l 188 1015 l 340 1015 m 599 1015 l 599 846 l 446 846 l 446 1015 l 599 1015 m 286 289 l 286 442 l 417 442 q 447 444 433 442 q 469 451 460 446 q 485 460 478 456 q 496 473 492 464 q 503 487 500 482 q 506 501 506 492 q 507 515 507 511 q 507 529 507 518 l 507 540 q 476 591 507 572 q 394 610 446 610 q 254 508 256 610 l 67 508 q 156 695 69 628 q 393 763 242 763 q 619 695 536 763 q 701 513 701 628 q 660 390 701 436 q 649 383 657 388 q 640 376 642 378 q 722 222 722 325 q 633 35 722 106 q 394 -32 550 -32 q 40 218 49 -32 l 231 218 q 268 147 242 167 q 383 121 308 121 q 490 140 451 121 q 528 194 528 160 q 526 223 528 213 q 515 252 524 233 q 480 280 506 271 q 414 289 454 289 l 286 289 z "},"Ӡ":{"ha":933,"x_min":44,"x_max":879,"o":"m 347 594 l 453 594 q 549 609 508 594 q 615 646 590 624 q 653 701 639 668 q 672 767 667 735 q 676 839 676 799 l 676 839 l 676 839 l 676 839 l 676 839 l 676 839 l 675 839 l 675 839 l 675 839 l 675 839 l 674 839 l 674 839 l 672 839 l 672 839 l 671 839 l 671 839 l 669 839 l 669 839 l 668 839 l 667 839 l 667 839 l 665 839 l 665 839 l 664 839 l 663 839 l 661 839 l 660 839 l 658 839 l 657 839 l 656 839 l 654 839 l 653 839 l 651 839 l 650 839 l 649 839 l 647 839 l 646 839 l 644 839 l 643 839 l 642 839 l 640 839 l 639 839 l 638 839 l 636 839 l 635 839 l 633 839 l 632 839 l 631 839 l 629 839 l 628 839 l 626 839 l 625 839 l 624 839 l 622 839 l 621 839 l 619 839 l 618 839 l 617 839 l 615 839 l 614 839 l 613 839 l 611 839 l 610 839 l 608 839 l 607 839 l 606 839 l 604 839 l 603 839 l 601 839 l 600 839 l 599 839 l 597 839 l 596 839 l 594 839 l 593 839 l 592 839 l 590 839 l 589 839 l 588 839 l 586 839 l 585 839 l 583 839 l 582 839 l 581 839 l 579 839 l 578 839 l 576 839 l 575 839 l 574 839 l 572 839 l 571 839 l 569 839 l 568 839 l 567 839 l 565 839 l 564 839 l 563 839 l 561 839 l 560 839 l 558 839 l 557 839 l 556 839 l 554 839 l 553 839 l 551 839 l 550 839 l 549 839 l 547 839 l 546 839 l 544 839 l 543 839 l 542 839 l 540 839 l 539 839 l 538 839 l 536 839 l 533 839 l 532 839 l 531 839 l 529 839 l 528 839 l 526 839 l 525 839 l 524 839 l 522 839 l 521 839 l 519 839 l 517 839 l 515 839 l 514 839 l 513 839 l 511 839 l 510 839 l 508 839 l 507 839 l 504 839 l 503 839 l 501 839 l 500 839 l 499 839 l 497 839 l 496 839 l 493 839 l 492 839 l 490 839 l 489 839 l 488 839 l 486 839 l 483 839 l 482 839 l 481 839 l 479 839 l 478 839 l 475 839 l 474 839 l 472 839 l 471 839 l 469 839 l 467 839 l 465 839 l 464 839 l 463 839 l 461 839 l 458 839 l 457 839 l 456 839 l 454 839 l 453 839 l 450 839 l 449 839 l 447 839 l 446 839 l 443 839 l 442 839 l 440 839 l 439 839 l 436 839 l 435 839 l 433 839 l 432 839 l 429 839 l 428 839 l 426 839 l 425 839 l 422 839 l 421 839 l 419 839 l 417 839 l 415 839 l 414 839 l 413 839 l 410 839 l 408 839 l 407 839 l 404 839 l 403 839 l 401 839 l 400 839 l 397 839 l 396 839 l 394 839 l 392 839 l 390 839 l 389 839 l 386 839 l 385 839 l 383 839 l 382 839 l 379 839 l 378 839 l 376 839 l 374 839 l 372 839 l 371 839 l 368 839 l 367 839 l 365 839 l 363 839 l 361 839 l 360 839 l 357 839 l 356 839 l 354 839 l 351 839 l 350 839 l 349 839 l 346 839 l 344 839 l 343 839 l 340 839 l 339 839 l 336 839 l 335 839 l 333 839 l 331 839 l 329 839 l 328 839 l 325 839 l 324 839 l 322 839 l 319 839 l 318 839 l 315 839 l 314 839 l 313 839 l 310 839 l 308 839 l 307 839 l 304 839 l 303 839 l 301 839 l 299 839 l 297 839 l 294 839 l 293 839 l 292 839 l 289 839 l 288 839 l 285 839 l 283 839 l 282 839 l 279 839 l 278 839 l 276 839 l 274 839 l 272 839 l 269 839 l 268 839 l 267 839 l 264 839 l 263 839 l 261 839 l 258 839 l 257 839 l 254 839 l 253 839 l 251 839 l 249 839 l 247 839 l 244 839 l 243 839 l 242 839 l 239 839 l 238 839 l 236 839 l 233 839 l 232 839 l 229 839 l 228 839 l 226 839 l 224 839 l 222 839 l 219 839 l 218 839 l 217 839 l 214 839 l 213 839 l 211 839 l 208 839 l 207 839 l 206 839 l 203 839 l 201 839 l 199 839 l 197 839 l 196 839 l 193 839 l 192 839 l 190 839 l 188 839 l 186 839 l 185 839 l 182 839 l 181 839 l 179 839 l 176 839 l 175 839 l 174 839 l 172 839 l 169 839 l 168 839 l 167 839 l 164 839 l 163 839 l 161 839 l 160 839 l 157 839 l 156 839 l 154 839 l 153 839 l 150 839 l 149 839 l 147 839 l 146 839 l 132 839 l 132 1013 l 133 1013 l 135 1013 l 136 1013 l 138 1013 l 139 1013 l 140 1013 l 142 1013 l 143 1013 l 144 1013 l 146 1013 l 147 1013 l 149 1013 l 150 1013 l 151 1013 l 153 1013 l 154 1013 l 156 1013 l 157 1013 l 158 1013 l 160 1013 l 161 1013 l 163 1013 l 164 1013 l 165 1013 l 167 1013 l 168 1013 l 169 1013 l 171 1013 l 172 1013 l 174 1013 l 175 1013 l 176 1013 l 178 1013 l 179 1013 l 181 1013 l 182 1013 l 183 1013 l 185 1013 l 186 1013 l 188 1013 l 189 1013 l 190 1013 l 192 1013 l 193 1013 l 194 1013 l 196 1013 l 197 1013 l 199 1013 l 200 1013 l 201 1013 l 203 1013 l 204 1013 l 206 1013 l 207 1013 l 208 1013 l 210 1013 l 211 1013 l 213 1013 l 214 1013 l 215 1013 l 217 1013 l 218 1013 l 219 1013 l 221 1013 l 222 1013 l 224 1013 l 225 1013 l 226 1013 l 228 1013 l 229 1013 l 231 1013 l 232 1013 l 233 1013 l 235 1013 l 236 1013 l 238 1013 l 239 1013 l 240 1013 l 242 1013 l 244 1013 l 246 1013 l 247 1013 l 249 1013 l 250 1013 l 251 1013 l 253 1013 l 254 1013 l 256 1013 l 257 1013 l 260 1013 l 261 1013 l 263 1013 l 264 1013 l 265 1013 l 267 1013 l 268 1013 l 271 1013 l 272 1013 l 274 1013 l 275 1013 l 276 1013 l 278 1013 l 281 1013 l 282 1013 l 283 1013 l 285 1013 l 286 1013 l 288 1013 l 290 1013 l 292 1013 l 293 1013 l 294 1013 l 296 1013 l 299 1013 l 300 1013 l 301 1013 l 303 1013 l 306 1013 l 307 1013 l 308 1013 l 310 1013 l 311 1013 l 314 1013 l 315 1013 l 317 1013 l 318 1013 l 321 1013 l 322 1013 l 324 1013 l 325 1013 l 328 1013 l 329 1013 l 331 1013 l 333 1013 l 335 1013 l 336 1013 l 338 1013 l 340 1013 l 342 1013 l 343 1013 l 346 1013 l 347 1013 l 349 1013 l 351 1013 l 353 1013 l 354 1013 l 356 1013 l 358 1013 l 360 1013 l 361 1013 l 364 1013 l 365 1013 l 367 1013 l 369 1013 l 371 1013 l 372 1013 l 375 1013 l 376 1013 l 378 1013 l 381 1013 l 382 1013 l 385 1013 l 386 1013 l 388 1013 l 390 1013 l 392 1013 l 393 1013 l 396 1013 l 397 1013 l 400 1013 l 401 1013 l 403 1013 l 406 1013 l 407 1013 l 410 1013 l 411 1013 l 413 1013 l 415 1013 l 417 1013 l 419 1013 l 421 1013 l 422 1013 l 425 1013 l 426 1013 l 429 1013 l 431 1013 l 433 1013 l 435 1013 l 438 1013 l 439 1013 l 440 1013 l 443 1013 l 444 1013 l 447 1013 l 449 1013 l 451 1013 l 453 1013 l 456 1013 l 457 1013 l 460 1013 l 461 1013 l 463 1013 l 465 1013 l 467 1013 l 469 1013 l 471 1013 l 474 1013 l 475 1013 l 478 1013 l 479 1013 l 482 1013 l 483 1013 l 486 1013 l 488 1013 l 490 1013 l 492 1013 l 494 1013 l 497 1013 l 499 1013 l 501 1013 l 503 1013 l 506 1013 l 507 1013 l 510 1013 l 511 1013 l 514 1013 l 515 1013 l 518 1013 l 519 1013 l 522 1013 l 525 1013 l 526 1013 l 529 1013 l 531 1013 l 533 1013 l 535 1013 l 538 1013 l 539 1013 l 542 1013 l 544 1013 l 546 1013 l 549 1013 l 550 1013 l 553 1013 l 556 1013 l 557 1013 l 560 1013 l 561 1013 l 564 1013 l 567 1013 l 568 1013 l 571 1013 l 572 1013 l 575 1013 l 578 1013 l 579 1013 l 582 1013 l 585 1013 l 586 1013 l 589 1013 l 590 1013 l 593 1013 l 596 1013 l 597 1013 l 600 1013 l 603 1013 l 604 1013 l 607 1013 l 610 1013 l 611 1013 l 614 1013 l 617 1013 l 618 1013 l 621 1013 l 624 1013 l 625 1013 l 628 1013 l 631 1013 l 632 1013 l 635 1013 l 638 1013 l 639 1013 l 642 1013 l 644 1013 l 646 1013 l 649 1013 l 651 1013 l 653 1013 l 656 1013 l 658 1013 l 661 1013 l 663 1013 l 665 1013 l 668 1013 l 669 1013 l 672 1013 l 675 1013 l 678 1013 l 679 1013 l 682 1013 l 685 1013 l 688 1013 l 689 1013 l 692 1013 l 694 1013 l 697 1013 l 699 1013 l 701 1013 l 704 1013 l 707 1013 l 708 1013 l 711 1013 l 714 1013 l 717 1013 l 718 1013 l 721 1013 l 724 1013 l 726 1013 l 728 1013 l 731 1013 l 733 1013 l 736 1013 l 739 1013 l 740 1013 l 743 1013 l 746 1013 l 749 1013 l 751 1013 l 753 1013 l 756 1013 l 758 1013 l 761 1013 l 764 1013 l 767 1013 l 768 1013 l 771 1013 l 774 1013 l 776 1013 l 779 1013 l 782 1013 l 783 1013 l 786 1013 l 789 1013 l 792 1013 l 794 1013 l 797 1013 l 800 1013 l 801 1013 l 804 1013 l 807 1013 l 810 1013 l 813 1013 l 815 1013 l 818 1013 l 821 1013 l 822 1013 l 825 1013 l 828 1013 l 831 1013 l 833 1013 l 836 1013 l 839 1013 l 842 1013 l 844 1013 l 847 1013 l 850 1013 l 851 1013 l 854 1013 l 857 1013 l 860 1013 l 863 1013 l 865 1013 l 879 1013 q 871 856 876 919 q 853 718 865 793 q 817 594 842 643 q 756 524 792 544 q 879 296 879 456 q 769 55 879 142 q 464 -32 660 -32 q 162 54 269 -32 q 44 303 54 140 l 247 303 q 311 178 253 221 q 475 135 369 135 q 624 171 569 135 q 679 271 679 207 q 633 383 679 339 q 489 428 588 428 l 347 428 l 347 594 z "},"ӡ":{"ha":758,"x_min":40,"x_max":722,"o":"m 286 289 l 286 442 l 403 442 q 456 458 433 442 q 488 501 478 475 q 501 549 497 526 q 506 593 506 572 l 136 593 l 136 750 l 714 750 q 640 376 714 425 q 722 222 722 325 q 633 35 722 106 q 394 -32 550 -32 q 40 218 49 -32 l 231 218 q 268 147 242 167 q 383 121 308 121 q 490 140 451 121 q 528 194 528 160 q 526 223 528 213 q 515 252 524 233 q 480 280 506 271 q 414 289 454 289 l 286 289 z "},"Ӣ":{"ha":1051,"x_min":114,"x_max":938,"o":"m 733 1222 l 733 1113 l 318 1113 l 318 1222 l 733 1222 m 322 0 l 114 0 l 114 1013 l 322 1013 l 322 324 l 724 1013 l 938 1013 l 938 0 l 729 0 l 729 700 l 322 0 z "},"ӣ":{"ha":854,"x_min":83,"x_max":771,"o":"m 635 956 l 635 846 l 219 846 l 219 956 l 635 956 m 83 750 l 278 750 l 278 281 l 549 750 l 771 750 l 771 0 l 576 0 l 576 469 l 306 0 l 83 0 l 83 750 z "},"Ӥ":{"ha":1051,"x_min":114,"x_max":938,"o":"m 472 1282 l 472 1113 l 319 1113 l 319 1282 l 472 1282 m 731 1282 l 731 1113 l 578 1113 l 578 1282 l 731 1282 m 322 0 l 114 0 l 114 1013 l 322 1013 l 322 324 l 724 1013 l 938 1013 l 938 0 l 729 0 l 729 700 l 322 0 z "},"ӥ":{"ha":854,"x_min":83,"x_max":771,"o":"m 375 1015 l 375 846 l 222 846 l 222 1015 l 375 1015 m 633 1015 l 633 846 l 481 846 l 481 1015 l 633 1015 m 83 750 l 278 750 l 278 281 l 549 750 l 771 750 l 771 0 l 576 0 l 576 469 l 306 0 l 83 0 l 83 750 z "},"Ӧ":{"ha":1081,"x_min":56,"x_max":1031,"o":"m 489 1282 l 489 1113 l 336 1113 l 336 1282 l 489 1282 m 747 1282 l 747 1113 l 594 1113 l 594 1282 l 747 1282 m 542 1029 q 889 889 758 1029 q 1031 492 1031 736 q 992 281 1031 385 q 889 108 954 178 q 543 -32 758 -32 q 197 108 328 -32 q 92 283 129 181 q 56 499 56 385 q 197 889 56 736 q 542 1029 326 1029 m 543 851 q 340 755 417 851 q 264 499 264 658 q 340 242 264 339 q 543 146 417 146 q 745 242 668 146 q 822 493 822 338 q 747 754 822 657 q 543 851 671 851 z "},"ӧ":{"ha":849,"x_min":49,"x_max":790,"o":"m 365 1015 l 365 846 l 213 846 l 213 1015 l 365 1015 m 624 1015 l 624 846 l 471 846 l 471 1015 l 624 1015 m 418 763 q 692 656 594 763 q 790 360 790 550 q 690 74 790 179 q 419 -32 590 -32 q 147 74 246 -32 q 49 365 49 181 q 147 656 49 550 q 418 763 246 763 m 419 606 q 292 539 340 606 q 243 365 243 472 q 292 192 243 258 q 419 125 340 125 q 547 191 497 125 q 596 363 596 257 q 548 540 596 474 q 419 606 500 606 z "},"Ө":{"ha":1081,"x_min":56,"x_max":1031,"o":"m 542 1029 q 889 889 758 1029 q 1031 492 1031 736 q 992 281 1031 385 q 889 108 954 178 q 543 -32 758 -32 q 197 108 328 -32 q 92 283 129 181 q 56 499 56 385 q 197 889 56 736 q 542 1029 326 1029 m 819 556 q 731 772 804 693 q 543 851 658 851 q 355 772 429 851 q 267 556 281 692 l 819 556 m 821 446 l 267 446 q 353 227 279 308 q 543 146 428 146 q 733 228 658 146 q 821 446 808 310 z "},"ө":{"ha":849,"x_min":49,"x_max":790,"o":"m 418 763 q 692 656 594 763 q 790 360 790 550 q 690 74 790 179 q 419 -32 590 -32 q 147 74 246 -32 q 49 365 49 181 q 147 656 49 550 q 418 763 246 763 m 592 421 q 534 556 581 507 q 419 606 488 606 q 305 556 351 606 q 247 421 258 506 l 592 421 m 593 311 l 247 311 q 305 176 258 226 q 419 125 351 125 q 533 176 486 125 q 593 311 581 226 z "},"Ӫ":{"ha":1081,"x_min":56,"x_max":1031,"o":"m 489 1282 l 489 1113 l 336 1113 l 336 1282 l 489 1282 m 747 1282 l 747 1113 l 594 1113 l 594 1282 l 747 1282 m 542 1029 q 889 889 758 1029 q 1031 492 1031 736 q 992 281 1031 385 q 889 108 954 178 q 543 -32 758 -32 q 197 108 328 -32 q 92 283 129 181 q 56 499 56 385 q 197 889 56 736 q 542 1029 326 1029 m 819 556 q 731 772 804 693 q 543 851 658 851 q 355 772 429 851 q 267 556 281 692 l 819 556 m 821 446 l 267 446 q 353 227 279 308 q 543 146 428 146 q 733 228 658 146 q 821 446 808 310 z "},"ӫ":{"ha":849,"x_min":49,"x_max":790,"o":"m 365 1015 l 365 846 l 213 846 l 213 1015 l 365 1015 m 624 1015 l 624 846 l 471 846 l 471 1015 l 624 1015 m 418 763 q 692 656 594 763 q 790 360 790 550 q 690 74 790 179 q 419 -32 590 -32 q 147 74 246 -32 q 49 365 49 181 q 147 656 49 550 q 418 763 246 763 m 592 421 q 534 556 581 507 q 419 606 488 606 q 305 556 351 606 q 247 421 258 506 l 592 421 m 593 311 l 247 311 q 305 176 258 226 q 419 125 351 125 q 533 176 486 125 q 593 311 581 226 z "},"Ӭ":{"ha":1003,"x_min":61,"x_max":951,"o":"m 435 1282 l 435 1113 l 282 1113 l 282 1282 l 435 1282 m 693 1282 l 693 1113 l 540 1113 l 540 1282 l 693 1282 m 335 432 l 335 606 l 739 606 q 650 787 718 722 q 481 851 582 851 q 310 778 368 851 q 264 669 281 742 l 65 669 q 133 869 75 792 q 488 1029 254 1029 q 826 886 701 1029 q 951 497 951 743 q 828 110 951 253 q 493 -32 704 -32 q 188 70 304 -32 q 61 346 71 172 l 264 346 q 332 196 274 249 q 488 143 390 143 q 662 219 596 143 q 740 432 728 294 l 335 432 z "},"ӭ":{"ha":783,"x_min":47,"x_max":725,"o":"m 318 1015 l 318 846 l 165 846 l 165 1015 l 318 1015 m 576 1015 l 576 846 l 424 846 l 424 1015 l 576 1015 m 282 288 l 282 444 l 524 444 q 493 542 513 506 q 372 606 458 606 q 281 574 313 606 q 233 469 250 543 l 47 469 q 144 685 57 607 q 371 763 231 763 q 632 657 539 763 q 725 360 725 551 q 633 71 725 174 q 374 -32 540 -32 q 149 47 238 -32 q 47 260 61 125 l 233 260 q 283 156 251 188 q 372 125 315 125 q 472 167 432 125 q 525 288 513 210 l 282 288 z "},"Ӯ":{"ha":997,"x_min":21,"x_max":967,"o":"m 701 1222 l 701 1113 l 286 1113 l 286 1222 l 701 1222 m 456 0 l 214 0 l 372 314 l 21 1013 l 247 1013 l 486 533 l 725 1013 l 967 1013 l 456 0 z "},"ӯ":{"ha":772,"x_min":13,"x_max":747,"o":"m 588 956 l 588 846 l 172 846 l 172 956 l 588 956 m 547 750 l 747 750 l 446 -137 q 398 -233 424 -204 q 329 -281 372 -262 q 189 -304 272 -304 q 119 -299 158 -304 l 119 -153 q 171 -161 150 -161 q 256 -126 222 -161 q 289 -37 289 -90 l 289 -32 l 289 -31 l 13 750 l 226 750 l 392 204 l 547 750 z "},"Ӱ":{"ha":997,"x_min":21,"x_max":967,"o":"m 442 1282 l 442 1113 l 289 1113 l 289 1282 l 442 1282 m 700 1282 l 700 1113 l 547 1113 l 547 1282 l 700 1282 m 456 0 l 214 0 l 372 314 l 21 1013 l 247 1013 l 486 533 l 725 1013 l 967 1013 l 456 0 z "},"ӱ":{"ha":772,"x_min":13,"x_max":747,"o":"m 328 1015 l 328 846 l 175 846 l 175 1015 l 328 1015 m 586 1015 l 586 846 l 433 846 l 433 1015 l 586 1015 m 547 750 l 747 750 l 446 -137 q 398 -233 424 -204 q 329 -281 372 -262 q 189 -304 272 -304 q 119 -299 158 -304 l 119 -153 q 171 -161 150 -161 q 256 -126 222 -161 q 289 -37 289 -90 l 289 -32 l 289 -31 l 13 750 l 226 750 l 392 204 l 547 750 z "},"Ӳ":{"ha":997,"x_min":21,"x_max":967,"o":"m 586 1317 l 411 1113 l 314 1113 l 411 1317 l 586 1317 m 847 1317 l 672 1113 l 575 1113 l 672 1317 l 847 1317 m 456 0 l 214 0 l 372 314 l 21 1013 l 247 1013 l 486 533 l 725 1013 l 967 1013 l 456 0 z "},"ӳ":{"ha":772,"x_min":13,"x_max":747,"o":"m 472 1050 l 297 846 l 200 846 l 297 1050 l 472 1050 m 733 1050 l 558 846 l 461 846 l 558 1050 l 733 1050 m 547 750 l 747 750 l 446 -137 q 398 -233 424 -204 q 329 -281 372 -262 q 189 -304 272 -304 q 119 -299 158 -304 l 119 -153 q 171 -161 150 -161 q 256 -126 222 -161 q 289 -37 289 -90 l 289 -32 l 289 -31 l 13 750 l 226 750 l 392 204 l 547 750 z "},"Ӵ":{"ha":951,"x_min":94,"x_max":867,"o":"m 428 1282 l 428 1113 l 275 1113 l 275 1282 l 428 1282 m 686 1282 l 686 1113 l 533 1113 l 533 1282 l 686 1282 m 658 313 l 439 313 q 190 400 286 313 q 94 621 94 488 l 94 1013 l 303 1013 l 303 629 q 347 524 303 563 q 456 486 392 486 l 657 486 l 657 1013 l 867 1013 l 867 0 l 658 0 l 658 313 z "},"ӵ":{"ha":803,"x_min":83,"x_max":719,"o":"m 349 1015 l 349 846 l 196 846 l 196 1015 l 349 1015 m 607 1015 l 607 846 l 454 846 l 454 1015 l 607 1015 m 83 750 l 278 750 l 278 481 q 307 408 278 432 q 386 383 336 383 l 525 383 l 525 750 l 719 750 l 719 0 l 525 0 l 525 226 l 389 226 q 172 288 261 226 q 83 479 83 350 l 83 750 z "},"Ӹ":{"ha":1318,"x_min":94,"x_max":1228,"o":"m 608 1282 l 608 1113 l 456 1113 l 456 1282 l 608 1282 m 867 1282 l 867 1113 l 714 1113 l 714 1282 l 867 1282 m 1228 1013 l 1228 0 l 1019 0 l 1019 1013 l 1228 1013 m 303 651 l 563 651 q 785 560 701 651 q 868 314 868 468 q 784 81 868 161 q 542 0 700 0 l 94 0 l 94 1013 l 303 1013 l 303 651 m 303 478 l 303 174 l 497 174 q 620 211 581 174 q 660 326 660 249 q 497 478 660 478 l 303 478 z "},"ӹ":{"ha":1126,"x_min":83,"x_max":997,"o":"m 488 1015 l 488 846 l 335 846 l 335 1015 l 488 1015 m 746 1015 l 746 846 l 593 846 l 593 1015 l 746 1015 m 442 499 q 664 426 589 499 q 739 233 739 354 q 719 133 739 186 q 665 54 699 81 q 476 0 601 0 l 83 0 l 83 750 l 278 750 l 278 499 l 442 499 m 278 346 l 278 153 l 429 153 q 546 250 546 153 q 513 322 546 297 q 422 346 481 346 l 278 346 m 997 750 l 997 0 l 803 0 l 803 750 l 997 750 z "},"":{"ha":631,"x_min":83,"x_max":567,"o":"m 567 750 l 567 593 l 278 593 l 278 0 l 83 0 l 83 750 l 567 750 z "},"":{"ha":849,"x_min":153,"x_max":868,"o":"m 692 1078 l 836 1079 q 790 925 836 960 q 619 875 733 883 q 449 822 506 867 q 425 790 425 804 q 435 774 425 781 q 456 767 444 768 l 465 764 q 551 763 486 763 q 685 730 621 763 q 788 642 749 697 q 868 365 868 525 q 774 79 868 190 q 507 -32 679 -32 q 241 67 329 -32 q 153 406 153 165 q 202 596 153 503 q 322 722 251 689 q 242 806 242 753 q 279 885 242 844 q 356 950 317 926 q 397 969 374 961 q 451 983 419 978 q 504 992 483 989 q 565 1000 525 996 q 619 1006 606 1004 q 667 1028 649 1010 q 689 1061 685 1046 l 692 1078 m 627 534 q 605 567 627 534 q 510 600 582 600 q 392 535 438 600 q 346 368 346 469 q 391 197 346 263 q 510 131 436 131 q 626 197 581 131 q 672 364 672 263 q 627 534 672 468 z "},"":{"ha":951,"x_min":32,"x_max":919,"o":"m 806 140 l 919 140 l 919 -174 l 767 -174 l 767 0 l 185 0 l 185 -174 l 32 -174 l 32 140 l 118 140 q 197 261 169 142 q 225 539 225 381 l 225 750 l 806 750 l 806 140 m 365 157 l 611 157 l 611 593 l 419 593 l 419 522 q 365 157 419 279 z "},"":{"ha":838,"x_min":83,"x_max":754,"o":"m 83 750 l 754 750 l 754 0 l 560 0 l 560 593 l 278 593 l 278 0 l 83 0 l 83 750 z "},"":{"ha":631,"x_min":29,"x_max":599,"o":"m 599 750 l 599 593 l 411 593 l 411 0 l 217 0 l 217 593 l 29 593 l 29 750 l 599 750 z "},"Ĉ":{"ha":1003,"x_min":61,"x_max":951,"o":"m 538 1360 l 686 1360 l 829 1151 l 721 1151 l 607 1290 l 493 1151 l 388 1151 l 538 1360 m 947 669 l 749 669 q 703 778 732 742 q 532 851 644 851 q 339 757 408 851 q 269 494 269 663 q 337 236 269 329 q 525 143 404 143 q 681 196 622 143 q 749 346 739 249 l 951 346 q 825 70 942 172 q 519 -32 708 -32 q 185 110 308 -32 q 61 497 61 253 q 186 886 61 743 q 525 1029 311 1029 q 879 869 758 1029 q 947 669 938 792 z "},"ĉ":{"ha":772,"x_min":47,"x_max":725,"o":"m 339 1097 l 488 1097 l 631 889 l 522 889 l 408 1028 l 294 889 l 189 889 l 339 1097 m 725 469 l 539 469 q 491 574 522 543 q 400 606 460 606 q 279 542 314 606 q 242 360 242 471 q 284 188 242 250 q 400 125 326 125 q 489 156 457 125 q 539 260 521 188 l 725 260 q 623 47 711 125 q 399 -32 535 -32 q 140 71 232 -32 q 47 360 47 174 q 140 657 47 551 q 401 763 233 763 q 628 685 542 763 q 725 469 715 607 z "},"Ċ":{"ha":1003,"x_min":61,"x_max":951,"o":"m 685 1321 l 685 1151 l 532 1151 l 532 1321 l 685 1321 m 947 669 l 749 669 q 703 778 732 742 q 532 851 644 851 q 339 757 408 851 q 269 494 269 663 q 337 236 269 329 q 525 143 404 143 q 681 196 622 143 q 749 346 739 249 l 951 346 q 825 70 942 172 q 519 -32 708 -32 q 185 110 308 -32 q 61 497 61 253 q 186 886 61 743 q 525 1029 311 1029 q 879 869 758 1029 q 947 669 938 792 z "},"ċ":{"ha":772,"x_min":47,"x_max":725,"o":"m 486 1058 l 486 889 l 333 889 l 333 1058 l 486 1058 m 725 469 l 539 469 q 491 574 522 543 q 400 606 460 606 q 279 542 314 606 q 242 360 242 471 q 284 188 242 250 q 400 125 326 125 q 489 156 457 125 q 539 260 521 188 l 725 260 q 623 47 711 125 q 399 -32 535 -32 q 140 71 232 -32 q 47 360 47 174 q 140 657 47 551 q 401 763 233 763 q 628 685 542 763 q 725 469 715 607 z "},"Ĕ":{"ha":926,"x_min":110,"x_max":867,"o":"m 660 1350 l 660 1335 q 607 1204 660 1257 q 476 1151 554 1151 q 346 1204 399 1151 q 293 1336 293 1257 l 293 1350 l 371 1350 q 478 1258 383 1258 q 582 1350 567 1258 l 660 1350 m 318 436 l 318 174 l 867 174 l 867 0 l 110 0 l 110 1013 l 842 1013 l 842 839 l 318 839 l 318 610 l 803 610 l 803 436 l 318 436 z "},"ĕ":{"ha":772,"x_min":31,"x_max":729,"o":"m 544 1088 l 544 1072 q 492 942 544 994 q 361 889 439 889 q 231 942 283 889 q 178 1074 178 994 l 178 1088 l 256 1088 q 363 996 268 996 q 467 1088 451 996 l 544 1088 m 728 314 l 225 314 q 253 182 229 219 q 381 117 296 117 q 529 211 492 117 l 721 211 q 594 34 689 100 q 374 -32 500 -32 q 122 72 214 -32 q 31 356 31 175 q 124 653 31 544 q 378 763 217 763 q 577 705 492 763 q 700 544 663 647 q 729 347 729 460 q 728 314 729 331 m 228 443 l 526 443 q 496 551 521 513 q 375 614 451 614 q 228 443 247 614 z "},"Ĝ":{"ha":1081,"x_min":58,"x_max":988,"o":"m 458 1360 l 607 1360 l 750 1151 l 642 1151 l 528 1290 l 414 1151 l 308 1151 l 458 1360 m 988 544 l 988 -3 l 863 -3 l 838 131 q 707 7 779 46 q 532 -32 635 -32 q 192 118 326 -32 q 58 499 58 268 q 194 882 58 735 q 549 1029 331 1029 q 850 938 732 1029 q 988 689 968 846 l 792 689 q 729 790 768 757 q 550 851 660 851 q 342 758 418 851 q 267 501 267 665 q 348 246 267 346 q 556 146 429 146 q 763 243 683 146 q 813 371 806 293 l 582 371 l 582 544 l 988 544 z "},"ĝ":{"ha":849,"x_min":47,"x_max":751,"o":"m 425 1097 l 574 1097 l 717 889 l 608 889 l 494 1028 l 381 889 l 275 889 l 425 1097 m 567 750 l 751 750 l 751 -25 q 658 -230 751 -157 q 394 -303 564 -303 q 136 -231 225 -303 q 63 -90 64 -171 l 264 -90 q 401 -178 288 -178 q 521 -135 475 -178 q 567 -25 567 -93 l 567 76 q 466 -8 513 15 q 354 -32 419 -32 q 131 75 215 -32 q 47 357 47 182 q 136 647 47 531 q 358 763 225 763 q 567 635 483 763 l 567 750 m 400 600 q 285 533 329 600 q 242 360 242 467 q 285 194 242 258 q 397 131 328 131 q 522 194 474 131 q 569 360 569 258 q 522 532 569 464 q 400 600 474 600 z "},"Ġ":{"ha":1081,"x_min":58,"x_max":988,"o":"m 606 1321 l 606 1151 l 453 1151 l 453 1321 l 606 1321 m 988 544 l 988 -3 l 863 -3 l 838 131 q 707 7 779 46 q 532 -32 635 -32 q 192 118 326 -32 q 58 499 58 268 q 194 882 58 735 q 549 1029 331 1029 q 850 938 732 1029 q 988 689 968 846 l 792 689 q 729 790 768 757 q 550 851 660 851 q 342 758 418 851 q 267 501 267 665 q 348 246 267 346 q 556 146 429 146 q 763 243 683 146 q 813 371 806 293 l 582 371 l 582 544 l 988 544 z "},"ġ":{"ha":849,"x_min":47,"x_max":751,"o":"m 572 1058 l 572 889 l 419 889 l 419 1058 l 572 1058 m 567 750 l 751 750 l 751 -25 q 658 -230 751 -157 q 394 -303 564 -303 q 136 -231 225 -303 q 63 -90 64 -171 l 264 -90 q 401 -178 288 -178 q 521 -135 475 -178 q 567 -25 567 -93 l 567 76 q 466 -8 513 15 q 354 -32 419 -32 q 131 75 215 -32 q 47 357 47 182 q 136 647 47 531 q 358 763 225 763 q 567 635 483 763 l 567 750 m 400 600 q 285 533 329 600 q 242 360 242 467 q 285 194 242 258 q 397 131 328 131 q 522 194 474 131 q 569 360 569 258 q 522 532 569 464 q 400 600 474 600 z "},"Ĥ":{"ha":1003,"x_min":94,"x_max":913,"o":"m 433 1360 l 582 1360 l 725 1151 l 617 1151 l 503 1290 l 389 1151 l 283 1151 l 433 1360 m 704 460 l 303 460 l 303 0 l 94 0 l 94 1013 l 303 1013 l 303 633 l 703 633 l 703 1013 l 913 1013 l 913 0 l 704 0 l 704 460 z "},"ĥ":{"ha":849,"x_min":93,"x_max":751,"o":"m 313 1360 l 461 1360 l 604 1151 l 496 1151 l 382 1290 l 268 1151 l 163 1151 l 313 1360 m 93 1013 l 288 1013 l 288 642 q 507 763 368 763 q 675 706 607 763 q 751 503 751 642 l 751 0 l 557 0 l 557 458 q 535 551 557 518 q 438 597 501 597 q 330 556 372 597 q 288 450 288 514 l 288 0 l 93 0 l 93 1013 z "},"Ħ":{"ha":1044,"x_min":36,"x_max":1008,"o":"m 926 860 l 1008 860 l 1008 750 l 926 750 l 926 0 l 718 0 l 718 460 l 317 460 l 317 0 l 108 0 l 108 750 l 36 750 l 36 860 l 108 860 l 108 1013 l 317 1013 l 317 860 l 717 860 l 717 1013 l 926 1013 l 926 860 m 717 750 l 317 750 l 317 633 l 717 633 l 717 750 z "},"ħ":{"ha":849,"x_min":22,"x_max":751,"o":"m 93 929 l 93 1013 l 288 1013 l 288 929 l 438 929 l 438 819 l 288 819 l 288 642 q 507 763 368 763 q 675 706 607 763 q 751 503 751 642 l 751 0 l 557 0 l 557 458 q 535 551 557 518 q 438 597 501 597 q 330 556 372 597 q 288 450 288 514 l 288 0 l 93 0 l 93 819 l 22 819 l 22 929 l 93 929 z "},"Ĩ":{"ha":386,"x_min":-54,"x_max":438,"o":"m 350 1329 l 438 1329 q 306 1153 429 1153 q 229 1169 272 1153 l 131 1206 q 89 1214 106 1214 q 51 1199 64 1214 q 33 1151 39 1185 l -54 1151 q -15 1278 -50 1232 q 76 1324 19 1324 q 154 1306 104 1324 l 253 1271 q 300 1263 272 1263 q 350 1329 344 1263 m 296 1013 l 296 0 l 88 0 l 88 1013 l 296 1013 z "},"ĩ":{"ha":386,"x_min":-56,"x_max":436,"o":"m 349 1067 l 436 1067 q 304 890 428 890 q 228 907 272 890 l 129 943 q 88 951 104 951 q 50 937 63 951 q 32 889 38 922 l -56 889 q -17 1015 -51 969 q 75 1061 18 1061 q 153 1043 103 1061 l 251 1008 q 299 1000 271 1000 q 349 1067 342 1000 m 288 750 l 288 0 l 93 0 l 93 750 l 288 750 z "},"Ĭ":{"ha":386,"x_min":8,"x_max":375,"o":"m 375 1350 l 375 1335 q 322 1204 375 1257 q 192 1151 269 1151 q 61 1204 114 1151 q 8 1336 8 1257 l 8 1350 l 86 1350 q 193 1258 99 1258 q 297 1350 282 1258 l 375 1350 m 296 1013 l 296 0 l 88 0 l 88 1013 l 296 1013 z "},"ĭ":{"ha":386,"x_min":7,"x_max":374,"o":"m 374 1088 l 374 1072 q 321 942 374 994 q 190 889 268 889 q 60 942 113 889 q 7 1074 7 994 l 7 1088 l 85 1088 q 192 996 97 996 q 296 1088 281 996 l 374 1088 m 288 750 l 288 0 l 93 0 l 93 750 l 288 750 z "},"Ĳ":{"ha":1122,"x_min":88,"x_max":1028,"o":"m 296 1013 l 296 0 l 88 0 l 88 1013 l 296 1013 m 819 1013 l 1028 1013 l 1028 264 q 943 45 1028 122 q 703 -32 858 -32 q 471 49 560 -32 q 386 275 386 128 l 386 375 l 594 375 l 594 278 q 621 177 594 208 q 707 146 647 146 q 790 176 761 146 q 819 264 819 207 l 819 1013 z "},"ĳ":{"ha":683,"x_min":93,"x_max":581,"o":"m 288 750 l 288 0 l 93 0 l 93 750 l 288 750 m 288 1013 l 288 839 l 93 839 l 93 1013 l 288 1013 m 581 750 l 581 -131 q 540 -262 581 -222 q 410 -303 500 -303 q 294 -296 360 -303 l 294 -140 q 329 -146 313 -146 q 374 -133 361 -146 q 386 -87 386 -119 l 386 750 l 581 750 m 581 1013 l 581 839 l 386 839 l 386 1013 l 581 1013 z "},"Ĵ":{"ha":772,"x_min":33,"x_max":792,"o":"m 500 1360 l 649 1360 l 792 1151 l 683 1151 l 569 1290 l 456 1151 l 350 1151 l 500 1360 m 467 1013 l 675 1013 l 675 264 q 590 45 675 122 q 350 -32 506 -32 q 118 49 207 -32 q 33 275 33 128 l 33 375 l 242 375 l 242 278 q 268 177 242 208 q 354 146 294 146 q 438 176 408 146 q 467 264 467 207 l 467 1013 z "},"ĵ":{"ha":386,"x_min":-26,"x_max":415,"o":"m 292 750 l 292 -131 q 251 -262 292 -222 q 121 -303 211 -303 q 6 -296 71 -303 l 6 -140 q 40 -146 24 -146 q 85 -133 72 -146 q 97 -87 97 -119 l 97 750 l 292 750 m 124 1088 l 272 1088 l 415 879 l 307 879 l 193 1018 l 79 879 l -26 879 l 124 1088 z "},"ĸ":{"ha":796,"x_min":82,"x_max":761,"o":"m 276 488 l 501 750 l 707 750 l 410 411 l 761 0 l 508 0 l 276 275 l 276 0 l 82 0 l 82 750 l 276 750 l 276 488 z "},"Ŀ":{"ha":849,"x_min":111,"x_max":804,"o":"m 467 614 l 639 614 l 639 443 l 467 443 l 467 614 m 319 1013 l 319 174 l 804 174 l 804 0 l 111 0 l 111 1013 l 319 1013 z "},"ŀ":{"ha":772,"x_min":93,"x_max":617,"o":"m 288 1013 l 288 0 l 93 0 l 93 1013 l 288 1013 m 444 594 l 617 594 l 617 424 l 444 424 l 444 594 z "},"ŉ":{"ha":849,"x_min":88,"x_max":758,"o":"m 92 1179 l 279 1179 l 279 1028 q 217 865 279 918 q 92 818 165 822 l 92 882 q 203 1006 207 903 l 92 1006 l 92 1179 m 88 750 l 282 750 l 282 642 q 507 763 363 763 q 692 694 626 763 q 758 503 758 626 l 758 0 l 564 0 l 564 463 q 439 597 564 597 q 325 557 368 597 q 282 450 282 517 l 282 0 l 88 0 l 88 750 z "},"Ŋ":{"ha":1003,"x_min":94,"x_max":918,"o":"m 688 39 l 303 700 l 303 0 l 94 0 l 94 1013 l 308 1013 l 710 324 l 710 1013 l 918 1013 l 918 69 q 822 -151 918 -64 q 574 -239 726 -239 l 522 -239 l 522 -65 l 557 -65 q 650 -37 608 -65 q 692 21 692 -10 q 688 39 692 28 z "},"ŋ":{"ha":849,"x_min":88,"x_max":758,"o":"m 564 44 l 564 463 q 439 597 564 597 q 325 557 368 597 q 282 450 282 517 l 282 0 l 88 0 l 88 750 l 282 750 l 282 642 q 507 763 363 763 q 692 694 626 763 q 758 503 758 626 l 758 0 q 693 -192 758 -125 q 514 -260 628 -260 l 444 -260 l 444 -94 q 564 44 564 -94 z "},"Ŏ":{"ha":1081,"x_min":56,"x_max":1031,"o":"m 726 1350 l 726 1335 q 674 1204 726 1257 q 543 1151 621 1151 q 413 1204 465 1151 q 360 1336 360 1257 l 360 1350 l 438 1350 q 544 1258 450 1258 q 649 1350 633 1258 l 726 1350 m 542 1029 q 889 889 758 1029 q 1031 492 1031 736 q 992 281 1031 385 q 889 108 954 178 q 543 -32 758 -32 q 197 108 328 -32 q 92 283 129 181 q 56 499 56 385 q 197 889 56 736 q 542 1029 326 1029 m 543 851 q 340 755 417 851 q 264 499 264 658 q 340 242 264 339 q 543 146 417 146 q 745 242 668 146 q 822 493 822 338 q 747 754 822 657 q 543 851 671 851 z "},"ŏ":{"ha":849,"x_min":49,"x_max":790,"o":"m 603 1088 l 603 1072 q 550 942 603 994 q 419 889 497 889 q 289 942 342 889 q 236 1074 236 994 l 236 1088 l 314 1088 q 421 996 326 996 q 525 1088 510 996 l 603 1088 m 418 763 q 692 656 594 763 q 790 360 790 550 q 690 74 790 179 q 419 -32 590 -32 q 147 74 246 -32 q 49 365 49 181 q 147 656 49 550 q 418 763 246 763 m 419 606 q 292 539 340 606 q 243 365 243 472 q 292 192 243 258 q 419 125 340 125 q 547 191 497 125 q 596 363 596 257 q 548 540 596 474 q 419 606 500 606 z "},"Ŝ":{"ha":926,"x_min":44,"x_max":879,"o":"m 481 1360 l 629 1360 l 772 1151 l 664 1151 l 550 1290 l 436 1151 l 331 1151 l 481 1360 m 843 704 l 649 704 q 436 863 638 863 q 308 828 356 863 q 261 738 261 794 q 301 655 261 682 q 453 606 342 628 l 611 575 q 815 481 751 547 q 879 296 879 415 q 769 55 879 142 q 464 -32 660 -32 q 162 54 269 -32 q 44 303 54 140 l 247 303 q 311 178 253 221 q 475 135 369 135 q 624 171 569 135 q 679 271 679 207 q 636 365 679 332 q 489 418 593 399 l 347 446 q 128 538 193 475 q 63 718 63 600 q 163 948 63 867 q 446 1029 264 1029 q 772 914 668 1029 q 843 704 843 835 z "},"ŝ":{"ha":772,"x_min":40,"x_max":722,"o":"m 317 1097 l 465 1097 l 608 889 l 500 889 l 386 1028 l 272 889 l 167 889 l 317 1097 m 701 508 l 514 508 q 374 610 513 610 q 292 591 322 610 q 261 540 261 572 q 275 506 261 518 q 329 482 289 494 l 575 411 q 722 222 722 368 q 633 35 722 106 q 394 -32 550 -32 q 40 218 49 -32 l 231 218 q 268 147 242 167 q 383 121 308 121 q 490 140 451 121 q 528 194 528 160 q 513 231 528 217 q 463 256 499 244 l 231 328 q 108 390 142 357 q 67 513 67 436 q 149 695 67 628 q 375 763 232 763 q 613 695 526 763 q 701 508 699 628 z "},"Ŧ":{"ha":849,"x_min":19,"x_max":831,"o":"m 326 564 l 326 839 l 19 839 l 19 1013 l 831 1013 l 831 839 l 535 839 l 535 564 l 635 564 l 635 454 l 535 454 l 535 0 l 326 0 l 326 454 l 219 454 l 219 564 l 326 564 z "},"ŧ":{"ha":463,"x_min":19,"x_max":419,"o":"m 115 482 l 115 606 l 19 606 l 19 735 l 115 735 l 115 936 l 310 936 l 310 735 l 418 735 l 418 606 l 310 606 l 310 482 l 419 482 l 419 372 l 310 372 l 310 197 q 322 131 310 147 q 374 115 335 115 q 418 119 389 115 l 418 -17 q 306 -32 371 -32 q 115 144 115 -32 l 115 372 l 19 372 l 19 482 l 115 482 z "},"Ũ":{"ha":1003,"x_min":106,"x_max":908,"o":"m 665 1329 l 753 1329 q 621 1153 744 1153 q 544 1169 589 1153 l 446 1206 q 404 1214 421 1214 q 367 1199 379 1214 q 349 1151 354 1185 l 261 1151 q 300 1278 265 1232 q 392 1324 335 1324 q 469 1306 419 1324 l 568 1271 q 615 1263 588 1263 q 665 1329 658 1263 m 700 1013 l 908 1013 l 908 326 q 810 71 908 160 q 507 -32 696 -32 q 204 71 318 -32 q 106 326 106 160 l 106 1013 l 314 1013 l 314 326 q 507 146 314 146 q 700 326 700 146 l 700 1013 z "},"ũ":{"ha":849,"x_min":81,"x_max":751,"o":"m 574 1067 l 661 1067 q 529 890 653 890 q 453 907 497 890 l 354 943 q 313 951 329 951 q 275 937 288 951 q 257 889 263 922 l 169 889 q 208 1015 174 969 q 300 1061 243 1061 q 378 1043 328 1061 l 476 1008 q 524 1000 496 1000 q 574 1067 567 1000 m 751 0 l 557 0 l 557 89 q 332 -32 476 -32 q 147 36 213 -32 q 81 228 81 104 l 81 750 l 275 750 l 275 268 q 400 133 275 133 q 514 174 471 133 q 557 281 557 214 l 557 750 l 751 750 l 751 0 z "},"Ŭ":{"ha":1003,"x_min":106,"x_max":908,"o":"m 690 1350 l 690 1335 q 638 1204 690 1257 q 507 1151 585 1151 q 376 1204 429 1151 q 324 1336 324 1257 l 324 1350 l 401 1350 q 508 1258 414 1258 q 613 1350 597 1258 l 690 1350 m 700 1013 l 908 1013 l 908 326 q 810 71 908 160 q 507 -32 696 -32 q 204 71 318 -32 q 106 326 106 160 l 106 1013 l 314 1013 l 314 326 q 507 146 314 146 q 700 326 700 146 l 700 1013 z "},"ŭ":{"ha":849,"x_min":81,"x_max":751,"o":"m 600 1088 l 600 1072 q 547 942 600 994 q 417 889 494 889 q 286 942 339 889 q 233 1074 233 994 l 233 1088 l 311 1088 q 418 996 324 996 q 522 1088 507 996 l 600 1088 m 751 0 l 557 0 l 557 89 q 332 -32 476 -32 q 147 36 213 -32 q 81 228 81 104 l 81 750 l 275 750 l 275 268 q 400 133 275 133 q 514 174 471 133 q 557 281 557 214 l 557 750 l 751 750 l 751 0 z "},"Ŵ":{"ha":1311,"x_min":18,"x_max":1294,"o":"m 585 1360 l 733 1360 l 876 1151 l 768 1151 l 654 1290 l 540 1151 l 435 1151 l 585 1360 m 1014 0 l 826 0 l 657 790 l 492 0 l 304 0 l 18 1013 l 239 1013 l 396 254 l 553 1013 l 758 1013 l 922 253 l 1074 1013 l 1294 1013 l 1014 0 z "},"ŵ":{"ha":1081,"x_min":7,"x_max":1064,"o":"m 465 1097 l 614 1097 l 757 889 l 649 889 l 535 1028 l 421 889 l 315 889 l 465 1097 m 851 0 l 650 0 l 538 529 l 418 0 l 218 0 l 7 750 l 208 750 l 328 225 l 442 750 l 636 750 l 749 225 l 863 750 l 1064 750 l 851 0 z "},"Ŷ":{"ha":926,"x_min":38,"x_max":903,"o":"m 399 1360 l 547 1360 l 690 1151 l 582 1151 l 468 1290 l 354 1151 l 249 1151 l 399 1360 m 582 375 l 582 0 l 374 0 l 374 375 l 38 1013 l 269 1013 l 476 565 l 669 1013 l 903 1013 l 582 375 z "},"ŷ":{"ha":772,"x_min":13,"x_max":747,"o":"m 310 1097 l 458 1097 l 601 889 l 493 889 l 379 1028 l 265 889 l 160 889 l 310 1097 m 547 750 l 747 750 l 439 -137 q 392 -234 415 -204 q 329 -281 369 -264 q 189 -304 272 -304 q 119 -299 158 -304 l 119 -153 q 171 -161 150 -161 q 257 -125 222 -161 q 292 -36 292 -89 l 292 -32 l 292 -31 l 13 750 l 226 750 l 392 204 l 547 750 z "},"ſ":{"ha":463,"x_min":19,"x_max":428,"o":"m 319 0 l 125 0 l 125 606 l 19 606 l 19 735 l 125 735 l 125 825 q 317 1013 125 1013 q 428 1008 374 1013 l 428 863 q 372 867 403 867 q 319 808 319 867 l 319 0 z "},"№":{"ha":1503,"x_min":94,"x_max":1425,"o":"m 1425 404 l 1425 315 l 1004 315 l 1004 404 l 1425 404 m 1215 953 q 1363 891 1301 953 q 1425 743 1425 829 q 1363 593 1425 654 q 1213 532 1301 532 q 1066 594 1128 532 q 1004 743 1004 657 q 1066 891 1004 829 q 1215 953 1128 953 m 1215 865 q 1128 829 1164 865 q 1092 742 1092 793 q 1128 656 1092 693 q 1213 619 1164 619 q 1301 656 1265 619 q 1338 743 1338 692 q 1301 829 1338 793 q 1215 865 1265 865 m 710 0 l 303 700 l 303 0 l 94 0 l 94 1013 l 308 1013 l 710 324 l 710 1013 l 918 1013 l 918 0 l 710 0 z "},"∞":{"ha":1210,"x_min":40,"x_max":1176,"o":"m 608 675 q 711 790 653 757 q 861 822 769 822 q 1089 731 1001 822 q 1176 488 1176 640 q 1090 242 1176 333 q 861 151 1003 151 q 711 184 769 151 q 608 299 653 217 q 506 184 564 217 q 356 151 447 151 q 128 242 215 151 q 40 486 40 333 q 127 731 40 640 q 356 822 214 822 q 506 790 447 822 q 608 675 564 757 m 544 488 q 494 599 544 556 q 367 642 443 642 q 250 600 293 642 q 207 488 207 558 q 250 374 207 417 q 364 332 293 332 q 494 374 443 332 q 544 488 544 417 m 672 486 q 723 375 672 418 q 850 332 774 332 q 967 374 924 332 q 1010 486 1010 415 q 967 599 1010 557 q 853 642 924 642 q 723 599 774 642 q 672 486 672 557 z "}}}
